<mxfile host="app.diagrams.net" agent="Mozilla/5.0 (X11; Linux x86_64) AppleWebKit/537.36 (KHTML, like Gecko) Chrome/128.0.0.0 Safari/537.36" version="24.7.7">
  <diagram name="Page-1" id="kQnFyyVV9q2ZvJ4k_LmA">
    <mxGraphModel dx="1434" dy="1923" grid="1" gridSize="10" guides="1" tooltips="1" connect="1" arrows="1" fold="1" page="1" pageScale="1" pageWidth="827" pageHeight="1169" math="0" shadow="0">
      <root>
        <mxCell id="0" />
        <mxCell id="1" parent="0" />
        <UserObject label="" plantUmlData="{&#xa;  &quot;data&quot;: &quot;@startuml\nactor User\n\nUser --&gt; (Register for Account)\n(Register for Account) --&gt; (Validate Registration Data) : &lt;&lt;include&gt;&gt;\n(Validate Registration Data) --&gt; (Send Confirmation Email) : &lt;&lt;include&gt;&gt;\nUser --&gt; (Receive Confirmation Email)\n(Receive Confirmation Email) --&gt; (Confirm Email) : &lt;&lt;include&gt;&gt;\nUser --&gt; (Login)\n\n@enduml\n&quot;,&#xa;  &quot;format&quot;: &quot;svg&quot;&#xa;}" id="9SXIaBKgw8V6z2FIBWtQ-6">
          <mxCell style="shape=image;noLabel=1;verticalAlign=top;aspect=fixed;imageAspect=0;image=data:image/svg+xml,PD94bWwgdmVyc2lvbj0iMS4wIiBlbmNvZGluZz0idXMtYXNjaWkiIHN0YW5kYWxvbmU9Im5vIj8+PHN2ZyB4bWxucz0iaHR0cDovL3d3dy53My5vcmcvMjAwMC9zdmciIHhtbG5zOnhsaW5rPSJodHRwOi8vd3d3LnczLm9yZy8xOTk5L3hsaW5rIiBjb250ZW50U3R5bGVUeXBlPSJ0ZXh0L2NzcyIgaGVpZ2h0PSI0MzdweCIgcHJlc2VydmVBc3BlY3RSYXRpbz0ibm9uZSIgc3R5bGU9IndpZHRoOjU2NXB4O2hlaWdodDo0MzdweDtiYWNrZ3JvdW5kOiNGRkZGRkY7IiB2ZXJzaW9uPSIxLjEiIHZpZXdCb3g9IjAgMCA1NjUgNDM3IiB3aWR0aD0iNTY1cHgiIHpvb21BbmRQYW49Im1hZ25pZnkiPjxkZWZzLz48Zz48IS0tZW50aXR5IFVzZXItLT48ZyBpZD0iZWxlbV9Vc2VyIj48ZWxsaXBzZSBjeD0iMzQ0IiBjeT0iMTQiIGZpbGw9IiNGMUYxRjEiIHJ4PSI4IiByeT0iOCIgc3R5bGU9InN0cm9rZTojMTgxODE4O3N0cm9rZS13aWR0aDowLjU7Ii8+PHBhdGggZD0iTTM0NCwyMiBMMzQ0LDQ5IE0zMzEsMzAgTDM1NywzMCBNMzQ0LDQ5IEwzMzEsNjQgTTM0NCw0OSBMMzU3LDY0ICIgZmlsbD0ibm9uZSIgc3R5bGU9InN0cm9rZTojMTgxODE4O3N0cm9rZS13aWR0aDowLjU7Ii8+PHRleHQgZmlsbD0iIzAwMDAwMCIgZm9udC1mYW1pbHk9InNhbnMtc2VyaWYiIGZvbnQtc2l6ZT0iMTQiIGxlbmd0aEFkanVzdD0ic3BhY2luZyIgdGV4dExlbmd0aD0iMjgiIHg9IjMzMCIgeT0iNzguNzM0NCI+VXNlcjwvdGV4dD48L2c+PGcgaWQ9ImVsZW1fUmVnaXN0ZXIgZm9yIEFjY291bnQiPjxlbGxpcHNlIGN4PSIxMTMuMjMwOSIgY3k9IjE2NS40NDYyIiBmaWxsPSIjRjFGMUYxIiByeD0iODcuNzMwOSIgcnk9IjE5Ljk0NjIiIHN0eWxlPSJzdHJva2U6IzE4MTgxODtzdHJva2Utd2lkdGg6MC41OyIvPjx0ZXh0IGZpbGw9IiMwMDAwMDAiIGZvbnQtZmFtaWx5PSJzYW5zLXNlcmlmIiBmb250LXNpemU9IjE0IiBsZW5ndGhBZGp1c3Q9InNwYWNpbmciIHRleHRMZW5ndGg9IjE0MCIgeD0iNDMuMjMwOSIgeT0iMTY5LjE4ODQiPlJlZ2lzdGVyIGZvciBBY2NvdW50PC90ZXh0PjwvZz48ZyBpZD0iZWxlbV9WYWxpZGF0ZSBSZWdpc3RyYXRpb24gRGF0YSI+PGVsbGlwc2UgY3g9IjExMi45ODIzIiBjeT0iMjg4LjI5NjUiIGZpbGw9IiNGMUYxRjEiIHJ4PSIxMDYuOTgyMyIgcnk9IjIzLjc5NjUiIHN0eWxlPSJzdHJva2U6IzE4MTgxODtzdHJva2Utd2lkdGg6MC41OyIvPjx0ZXh0IGZpbGw9IiMwMDAwMDAiIGZvbnQtZmFtaWx5PSJzYW5zLXNlcmlmIiBmb250LXNpemU9IjE0IiBsZW5ndGhBZGp1c3Q9InNwYWNpbmciIHRleHRMZW5ndGg9IjE4MiIgeD0iMjEuOTgyMyIgeT0iMjkyLjAzODciPlZhbGlkYXRlIFJlZ2lzdHJhdGlvbiBEYXRhPC90ZXh0PjwvZz48ZyBpZD0iZWxlbV9TZW5kIENvbmZpcm1hdGlvbiBFbWFpbCI+PGVsbGlwc2UgY3g9IjExMy4xODE4IiBjeT0iNDA5LjUzNjQiIGZpbGw9IiNGMUYxRjEiIHJ4PSI5OC4xODE4IiByeT0iMjIuMDM2NCIgc3R5bGU9InN0cm9rZTojMTgxODE4O3N0cm9rZS13aWR0aDowLjU7Ii8+PHRleHQgZmlsbD0iIzAwMDAwMCIgZm9udC1mYW1pbHk9InNhbnMtc2VyaWYiIGZvbnQtc2l6ZT0iMTQiIGxlbmd0aEFkanVzdD0ic3BhY2luZyIgdGV4dExlbmd0aD0iMTYzIiB4PSIzMS42ODE4IiB5PSI0MTMuMjc4NSI+U2VuZCBDb25maXJtYXRpb24gRW1haWw8L3RleHQ+PC9nPjxnIGlkPSJlbGVtX1JlY2VpdmUgQ29uZmlybWF0aW9uIEVtYWlsIj48ZWxsaXBzZSBjeD0iMzQzLjkxNTgiIGN5PSIxNjUuNDgzMiIgZmlsbD0iI0YxRjFGMSIgcng9IjEwNy45MTU4IiByeT0iMjMuOTgzMiIgc3R5bGU9InN0cm9rZTojMTgxODE4O3N0cm9rZS13aWR0aDowLjU7Ii8+PHRleHQgZmlsbD0iIzAwMDAwMCIgZm9udC1mYW1pbHk9InNhbnMtc2VyaWYiIGZvbnQtc2l6ZT0iMTQiIGxlbmd0aEFkanVzdD0ic3BhY2luZyIgdGV4dExlbmd0aD0iMTg0IiB4PSIyNTEuOTE1OCIgeT0iMTY5LjIyNTMiPlJlY2VpdmUgQ29uZmlybWF0aW9uIEVtYWlsPC90ZXh0PjwvZz48ZyBpZD0iZWxlbV9Db25maXJtIEVtYWlsIj48ZWxsaXBzZSBjeD0iMzQzLjk5NDciIGN5PSIyODguMzk4OSIgZmlsbD0iI0YxRjFGMSIgcng9IjY3LjQ5NDciIHJ5PSIxNS44OTg5IiBzdHlsZT0ic3Ryb2tlOiMxODE4MTg7c3Ryb2tlLXdpZHRoOjAuNTsiLz48dGV4dCBmaWxsPSIjMDAwMDAwIiBmb250LWZhbWlseT0ic2Fucy1zZXJpZiIgZm9udC1zaXplPSIxNCIgbGVuZ3RoQWRqdXN0PSJzcGFjaW5nIiB0ZXh0TGVuZ3RoPSI5MyIgeD0iMjk3LjQ5NDciIHk9IjI5Mi4xNDExIj5Db25maXJtIEVtYWlsPC90ZXh0PjwvZz48ZyBpZD0iZWxlbV9Mb2dpbiI+PGVsbGlwc2UgY3g9IjUyMy4yMzQiIGN5PSIxNjUuNTk1NiIgZmlsbD0iI0YxRjFGMSIgcng9IjM2LjIzNCIgcnk9IjEzLjU5NTYiIHN0eWxlPSJzdHJva2U6IzE4MTgxODtzdHJva2Utd2lkdGg6MC41OyIvPjx0ZXh0IGZpbGw9IiMwMDAwMDAiIGZvbnQtZmFtaWx5PSJzYW5zLXNlcmlmIiBmb250LXNpemU9IjE0IiBsZW5ndGhBZGp1c3Q9InNwYWNpbmciIHRleHRMZW5ndGg9IjM1IiB4PSI1MDUuNzM0IiB5PSIxNjkuMzM3NyI+TG9naW48L3RleHQ+PC9nPjwhLS1saW5rIFVzZXIgdG8gUmVnaXN0ZXIgZm9yIEFjY291bnQtLT48ZyBpZD0ibGlua19Vc2VyX1JlZ2lzdGVyIGZvciBBY2NvdW50Ij48cGF0aCBkPSJNMzI5LjksNTEuMzYgQzI5My45NSw3MC4xMSAyMDMuNDA5NiwxMTcuMzM0OCAxNTEuOTk5NiwxNDQuMTU0OCAiIGZpbGw9Im5vbmUiIGlkPSJVc2VyLXRvLVJlZ2lzdGVyIGZvciBBY2NvdW50IiBzdHlsZT0ic3Ryb2tlOiMxODE4MTg7c3Ryb2tlLXdpZHRoOjEuMDsiLz48cG9seWdvbiBmaWxsPSIjMTgxODE4IiBwb2ludHM9IjE0Ni42OCwxNDYuOTMsMTU2LjUwOTYsMTQ2LjMxMzYsMTUxLjExMywxNDQuNjE3MywxNTIuODA5MywxMzkuMjIwOCwxNDYuNjgsMTQ2LjkzIiBzdHlsZT0ic3Ryb2tlOiMxODE4MTg7c3Ryb2tlLXdpZHRoOjEuMDsiLz48L2c+PCEtLWxpbmsgUmVnaXN0ZXIgZm9yIEFjY291bnQgdG8gVmFsaWRhdGUgUmVnaXN0cmF0aW9uIERhdGEtLT48ZyBpZD0ibGlua19SZWdpc3RlciBmb3IgQWNjb3VudF9WYWxpZGF0ZSBSZWdpc3RyYXRpb24gRGF0YSI+PHBhdGggZD0iTTExMywxODUuNjcgQzExMywyMDcgMTEzLDIzNS40NCAxMTMsMjU4LjI4ICIgZmlsbD0ibm9uZSIgaWQ9IlJlZ2lzdGVyIGZvciBBY2NvdW50LXRvLVZhbGlkYXRlIFJlZ2lzdHJhdGlvbiBEYXRhIiBzdHlsZT0ic3Ryb2tlOiMxODE4MTg7c3Ryb2tlLXdpZHRoOjEuMDsiLz48cG9seWdvbiBmaWxsPSIjMTgxODE4IiBwb2ludHM9IjExMywyNjQuMjgsMTE3LDI1NS4yOCwxMTMsMjU5LjI4LDEwOSwyNTUuMjgsMTEzLDI2NC4yOCIgc3R5bGU9InN0cm9rZTojMTgxODE4O3N0cm9rZS13aWR0aDoxLjA7Ii8+PHRleHQgZmlsbD0iIzAwMDAwMCIgZm9udC1mYW1pbHk9InNhbnMtc2VyaWYiIGZvbnQtc2l6ZT0iMTMiIGxlbmd0aEFkanVzdD0ic3BhY2luZyIgdGV4dExlbmd0aD0iNjEiIHg9IjExNCIgeT0iMjMyLjc4OTEiPiYjMTcxO2luY2x1ZGUmIzE4Nzs8L3RleHQ+PC9nPjwhLS1saW5rIFZhbGlkYXRlIFJlZ2lzdHJhdGlvbiBEYXRhIHRvIFNlbmQgQ29uZmlybWF0aW9uIEVtYWlsLS0+PGcgaWQ9ImxpbmtfVmFsaWRhdGUgUmVnaXN0cmF0aW9uIERhdGFfU2VuZCBDb25maXJtYXRpb24gRW1haWwiPjxwYXRoIGQ9Ik0xMTMsMzEyLjczIEMxMTMsMzM0LjM3IDExMywzNjAuMzcgMTEzLDM4MS4zMyAiIGZpbGw9Im5vbmUiIGlkPSJWYWxpZGF0ZSBSZWdpc3RyYXRpb24gRGF0YS10by1TZW5kIENvbmZpcm1hdGlvbiBFbWFpbCIgc3R5bGU9InN0cm9rZTojMTgxODE4O3N0cm9rZS13aWR0aDoxLjA7Ii8+PHBvbHlnb24gZmlsbD0iIzE4MTgxOCIgcG9pbnRzPSIxMTMsMzg3LjMzLDExNywzNzguMzMsMTEzLDM4Mi4zMywxMDksMzc4LjMzLDExMywzODcuMzMiIHN0eWxlPSJzdHJva2U6IzE4MTgxODtzdHJva2Utd2lkdGg6MS4wOyIvPjx0ZXh0IGZpbGw9IiMwMDAwMDAiIGZvbnQtZmFtaWx5PSJzYW5zLXNlcmlmIiBmb250LXNpemU9IjEzIiBsZW5ndGhBZGp1c3Q9InNwYWNpbmciIHRleHRMZW5ndGg9IjYxIiB4PSIxMTQiIHk9IjM1NS43ODkxIj4mIzE3MTtpbmNsdWRlJiMxODc7PC90ZXh0PjwvZz48IS0tbGluayBVc2VyIHRvIFJlY2VpdmUgQ29uZmlybWF0aW9uIEVtYWlsLS0+PGcgaWQ9ImxpbmtfVXNlcl9SZWNlaXZlIENvbmZpcm1hdGlvbiBFbWFpbCI+PHBhdGggZD0iTTM0NCw4MC44MSBDMzQ0LDEwMC40NyAzNDQsMTE4LjA3IDM0NCwxMzUuMTkgIiBmaWxsPSJub25lIiBpZD0iVXNlci10by1SZWNlaXZlIENvbmZpcm1hdGlvbiBFbWFpbCIgc3R5bGU9InN0cm9rZTojMTgxODE4O3N0cm9rZS13aWR0aDoxLjA7Ii8+PHBvbHlnb24gZmlsbD0iIzE4MTgxOCIgcG9pbnRzPSIzNDQsMTQxLjE5LDM0OCwxMzIuMTksMzQ0LDEzNi4xOSwzNDAsMTMyLjE5LDM0NCwxNDEuMTkiIHN0eWxlPSJzdHJva2U6IzE4MTgxODtzdHJva2Utd2lkdGg6MS4wOyIvPjwvZz48IS0tbGluayBSZWNlaXZlIENvbmZpcm1hdGlvbiBFbWFpbCB0byBDb25maXJtIEVtYWlsLS0+PGcgaWQ9ImxpbmtfUmVjZWl2ZSBDb25maXJtYXRpb24gRW1haWxfQ29uZmlybSBFbWFpbCI+PHBhdGggZD0iTTM0NCwxODkuNTQgQzM0NCwyMTMuODIgMzQ0LDI0NS4zNSAzNDQsMjY2LjIxICIgZmlsbD0ibm9uZSIgaWQ9IlJlY2VpdmUgQ29uZmlybWF0aW9uIEVtYWlsLXRvLUNvbmZpcm0gRW1haWwiIHN0eWxlPSJzdHJva2U6IzE4MTgxODtzdHJva2Utd2lkdGg6MS4wOyIvPjxwb2x5Z29uIGZpbGw9IiMxODE4MTgiIHBvaW50cz0iMzQ0LDI3Mi4yMSwzNDgsMjYzLjIxLDM0NCwyNjcuMjEsMzQwLDI2My4yMSwzNDQsMjcyLjIxIiBzdHlsZT0ic3Ryb2tlOiMxODE4MTg7c3Ryb2tlLXdpZHRoOjEuMDsiLz48dGV4dCBmaWxsPSIjMDAwMDAwIiBmb250LWZhbWlseT0ic2Fucy1zZXJpZiIgZm9udC1zaXplPSIxMyIgbGVuZ3RoQWRqdXN0PSJzcGFjaW5nIiB0ZXh0TGVuZ3RoPSI2MSIgeD0iMzQ1IiB5PSIyMzIuNzg5MSI+JiMxNzE7aW5jbHVkZSYjMTg3OzwvdGV4dD48L2c+PCEtLWxpbmsgVXNlciB0byBMb2dpbi0tPjxnIGlkPSJsaW5rX1VzZXJfTG9naW4iPjxwYXRoIGQ9Ik0zNTguMDUsNTMuNDYgQzM5MC42OCw3NS40MyA0NjYuNTMyOSwxMjYuNDg5MiA1MDEuNDgyOSwxNTAuMDE5MiAiIGZpbGw9Im5vbmUiIGlkPSJVc2VyLXRvLUxvZ2luIiBzdHlsZT0ic3Ryb2tlOiMxODE4MTg7c3Ryb2tlLXdpZHRoOjEuMDsiLz48cG9seWdvbiBmaWxsPSIjMTgxODE4IiBwb2ludHM9IjUwNi40NiwxNTMuMzcsNTAxLjIyODIsMTQ1LjAyNTYsNTAyLjMxMjQsMTUwLjU3NzYsNDk2Ljc2MDQsMTUxLjY2MTgsNTA2LjQ2LDE1My4zNyIgc3R5bGU9InN0cm9rZTojMTgxODE4O3N0cm9rZS13aWR0aDoxLjA7Ii8+PC9nPjwhLS1TUkM9W1hPeEQyaThtM0NWbFZPZVN4TTRsOEFDV3dpc0plbFZHUFlGRzlUMWJVdHdkekkwb3ZZTUdfRnVWbU1YUXUzdklTVXVyZU1hMnhBeEt5c1pCcll0bTRBREVPandqZHdsWldQYUo2YTdMNTNITVdIQ1FValgzc3hCNEYyS0FtTXJBdHJhdGFXSDdiT3hCS0U1dkdDd19HVF9sSGtBUHJabmsyclJ0MV9taGtNWkZ1ZnkwXS0tPjwvZz48L3N2Zz4=;" parent="1" vertex="1">
            <mxGeometry x="90" y="-20" width="565" height="437" as="geometry" />
          </mxCell>
        </UserObject>
        <UserObject label="" plantUmlData="{&#xa;  &quot;data&quot;: &quot;@startuml\nnode \&quot;Client\&quot; {\n  component \&quot;Attractions\&quot; {\n  }\n}\n\nnode \&quot;Server\&quot; {\n  component \&quot;Attractions API\&quot; {\n  }\n}\n\n\&quot;Attractions\&quot; --&gt; \&quot;Attractions API\&quot;\n\n@enduml\n&quot;,&#xa;  &quot;format&quot;: &quot;svg&quot;&#xa;}" id="9SXIaBKgw8V6z2FIBWtQ-7">
          <mxCell style="shape=image;noLabel=1;verticalAlign=top;aspect=fixed;imageAspect=0;image=data:image/svg+xml,PD94bWwgdmVyc2lvbj0iMS4wIiBlbmNvZGluZz0idXMtYXNjaWkiIHN0YW5kYWxvbmU9Im5vIj8+PHN2ZyB4bWxucz0iaHR0cDovL3d3dy53My5vcmcvMjAwMC9zdmciIHhtbG5zOnhsaW5rPSJodHRwOi8vd3d3LnczLm9yZy8xOTk5L3hsaW5rIiBjb250ZW50U3R5bGVUeXBlPSJ0ZXh0L2NzcyIgaGVpZ2h0PSIyNDVweCIgcHJlc2VydmVBc3BlY3RSYXRpbz0ibm9uZSIgc3R5bGU9IndpZHRoOjIxMXB4O2hlaWdodDoyNDVweDtiYWNrZ3JvdW5kOiNGRkZGRkY7IiB2ZXJzaW9uPSIxLjEiIHZpZXdCb3g9IjAgMCAyMTEgMjQ1IiB3aWR0aD0iMjExcHgiIHpvb21BbmRQYW49Im1hZ25pZnkiPjxkZWZzLz48Zz48IS0tY2x1c3RlciBDbGllbnQtLT48ZyBpZD0iY2x1c3Rlcl9DbGllbnQiPjxwb2x5Z29uIGZpbGw9Im5vbmUiIHBvaW50cz0iMzAsMTYsNDAsNiwxODAsNiwxODAsOTUsMTcwLDEwNSwzMCwxMDUsMzAsMTYiIHN0eWxlPSJzdHJva2U6IzE4MTgxODtzdHJva2Utd2lkdGg6MS4wOyIvPjxsaW5lIHN0eWxlPSJzdHJva2U6IzE4MTgxODtzdHJva2Utd2lkdGg6MS4wOyIgeDE9IjE3MCIgeDI9IjE4MCIgeTE9IjE2IiB5Mj0iNiIvPjxsaW5lIHN0eWxlPSJzdHJva2U6IzE4MTgxODtzdHJva2Utd2lkdGg6MS4wOyIgeDE9IjMwIiB4Mj0iMTcwIiB5MT0iMTYiIHkyPSIxNiIvPjxsaW5lIHN0eWxlPSJzdHJva2U6IzE4MTgxODtzdHJva2Utd2lkdGg6MS4wOyIgeDE9IjE3MCIgeDI9IjE3MCIgeTE9IjE2IiB5Mj0iMTA1Ii8+PHRleHQgZmlsbD0iIzAwMDAwMCIgZm9udC1mYW1pbHk9InNhbnMtc2VyaWYiIGZvbnQtc2l6ZT0iMTQiIGZvbnQtd2VpZ2h0PSJib2xkIiBsZW5ndGhBZGp1c3Q9InNwYWNpbmciIHRleHRMZW5ndGg9IjQyIiB4PSI4MCIgeT0iMzIuMjM0NCI+Q2xpZW50PC90ZXh0PjwvZz48IS0tY2x1c3RlciBTZXJ2ZXItLT48ZyBpZD0iY2x1c3Rlcl9TZXJ2ZXIiPjxwb2x5Z29uIGZpbGw9Im5vbmUiIHBvaW50cz0iMTYsMTM5LDI2LDEyOSwxOTQsMTI5LDE5NCwyMTgsMTg0LDIyOCwxNiwyMjgsMTYsMTM5IiBzdHlsZT0ic3Ryb2tlOiMxODE4MTg7c3Ryb2tlLXdpZHRoOjEuMDsiLz48bGluZSBzdHlsZT0ic3Ryb2tlOiMxODE4MTg7c3Ryb2tlLXdpZHRoOjEuMDsiIHgxPSIxODQiIHgyPSIxOTQiIHkxPSIxMzkiIHkyPSIxMjkiLz48bGluZSBzdHlsZT0ic3Ryb2tlOiMxODE4MTg7c3Ryb2tlLXdpZHRoOjEuMDsiIHgxPSIxNiIgeDI9IjE4NCIgeTE9IjEzOSIgeTI9IjEzOSIvPjxsaW5lIHN0eWxlPSJzdHJva2U6IzE4MTgxODtzdHJva2Utd2lkdGg6MS4wOyIgeDE9IjE4NCIgeDI9IjE4NCIgeTE9IjEzOSIgeTI9IjIyOCIvPjx0ZXh0IGZpbGw9IiMwMDAwMDAiIGZvbnQtZmFtaWx5PSJzYW5zLXNlcmlmIiBmb250LXNpemU9IjE0IiBmb250LXdlaWdodD0iYm9sZCIgbGVuZ3RoQWRqdXN0PSJzcGFjaW5nIiB0ZXh0TGVuZ3RoPSI0MiIgeD0iODAiIHk9IjE1NS4yMzQ0Ij5TZXJ2ZXI8L3RleHQ+PC9nPjwhLS1lbnRpdHkgQXR0cmFjdGlvbnMtLT48ZyBpZD0iZWxlbV9BdHRyYWN0aW9ucyI+PHJlY3QgZmlsbD0iI0YxRjFGMSIgaGVpZ2h0PSI0NC45ODQ0IiByeD0iMi41IiByeT0iMi41IiBzdHlsZT0ic3Ryb2tlOiMxODE4MTg7c3Ryb2tlLXdpZHRoOjAuNTsiIHdpZHRoPSIxMTciIHg9IjQ2LjUiIHk9IjQ0Ii8+PHJlY3QgZmlsbD0iI0YxRjFGMSIgaGVpZ2h0PSIxMCIgc3R5bGU9InN0cm9rZTojMTgxODE4O3N0cm9rZS13aWR0aDowLjU7IiB3aWR0aD0iMTUiIHg9IjE0My41IiB5PSI0OSIvPjxyZWN0IGZpbGw9IiNGMUYxRjEiIGhlaWdodD0iMiIgc3R5bGU9InN0cm9rZTojMTgxODE4O3N0cm9rZS13aWR0aDowLjU7IiB3aWR0aD0iNCIgeD0iMTQxLjUiIHk9IjUxIi8+PHJlY3QgZmlsbD0iI0YxRjFGMSIgaGVpZ2h0PSIyIiBzdHlsZT0ic3Ryb2tlOiMxODE4MTg7c3Ryb2tlLXdpZHRoOjAuNTsiIHdpZHRoPSI0IiB4PSIxNDEuNSIgeT0iNTUiLz48dGV4dCBmaWxsPSIjMDAwMDAwIiBmb250LWZhbWlseT0ic2Fucy1zZXJpZiIgZm9udC1zaXplPSIxNCIgbGVuZ3RoQWRqdXN0PSJzcGFjaW5nIiB0ZXh0TGVuZ3RoPSI3NyIgeD0iNjEuNSIgeT0iNzcuMjM0NCI+QXR0cmFjdGlvbnM8L3RleHQ+PC9nPjwhLS1lbnRpdHkgQXR0cmFjdGlvbnMgQVBJLS0+PGcgaWQ9ImVsZW1fQXR0cmFjdGlvbnMgQVBJIj48cmVjdCBmaWxsPSIjRjFGMUYxIiBoZWlnaHQ9IjQ0Ljk4NDQiIHJ4PSIyLjUiIHJ5PSIyLjUiIHN0eWxlPSJzdHJva2U6IzE4MTgxODtzdHJva2Utd2lkdGg6MC41OyIgd2lkdGg9IjE0NSIgeD0iMzIuNSIgeT0iMTY3Ii8+PHJlY3QgZmlsbD0iI0YxRjFGMSIgaGVpZ2h0PSIxMCIgc3R5bGU9InN0cm9rZTojMTgxODE4O3N0cm9rZS13aWR0aDowLjU7IiB3aWR0aD0iMTUiIHg9IjE1Ny41IiB5PSIxNzIiLz48cmVjdCBmaWxsPSIjRjFGMUYxIiBoZWlnaHQ9IjIiIHN0eWxlPSJzdHJva2U6IzE4MTgxODtzdHJva2Utd2lkdGg6MC41OyIgd2lkdGg9IjQiIHg9IjE1NS41IiB5PSIxNzQiLz48cmVjdCBmaWxsPSIjRjFGMUYxIiBoZWlnaHQ9IjIiIHN0eWxlPSJzdHJva2U6IzE4MTgxODtzdHJva2Utd2lkdGg6MC41OyIgd2lkdGg9IjQiIHg9IjE1NS41IiB5PSIxNzgiLz48dGV4dCBmaWxsPSIjMDAwMDAwIiBmb250LWZhbWlseT0ic2Fucy1zZXJpZiIgZm9udC1zaXplPSIxNCIgbGVuZ3RoQWRqdXN0PSJzcGFjaW5nIiB0ZXh0TGVuZ3RoPSIxMDUiIHg9IjQ3LjUiIHk9IjIwMC4yMzQ0Ij5BdHRyYWN0aW9ucyBBUEk8L3RleHQ+PC9nPjwhLS1saW5rIEF0dHJhY3Rpb25zIHRvIEF0dHJhY3Rpb25zIEFQSS0tPjxnIGlkPSJsaW5rX0F0dHJhY3Rpb25zX0F0dHJhY3Rpb25zIEFQSSI+PHBhdGggY29kZUxpbmU9IjExIiBkPSJNMTA1LDg5LjEzIEMxMDUsMTExLjAyIDEwNSwxMzguNjggMTA1LDE2MC42NSAiIGZpbGw9Im5vbmUiIGlkPSJBdHRyYWN0aW9ucy10by1BdHRyYWN0aW9ucyBBUEkiIHN0eWxlPSJzdHJva2U6IzE4MTgxODtzdHJva2Utd2lkdGg6MS4wOyIvPjxwb2x5Z29uIGZpbGw9IiMxODE4MTgiIHBvaW50cz0iMTA1LDE2Ni42NSwxMDksMTU3LjY1LDEwNSwxNjEuNjUsMTAxLDE1Ny42NSwxMDUsMTY2LjY1IiBzdHlsZT0ic3Ryb2tlOiMxODE4MTg7c3Ryb2tlLXdpZHRoOjEuMDsiLz48L2c+PCEtLVNSQz1bb3lqRklMTEdTaXg5SkNxaEtMQWV2YjlHSUN4RkJTWkYwdDhMYjFuQkllZUlhcWlveV9FQThOQXJOQkxTTjdiV0JTNmZITU1mSFZZcUEzVzZVMjlmR3BMREx6U0VLcDQwXS0tPjwvZz48L3N2Zz4=;" parent="1" vertex="1">
            <mxGeometry x="220" y="480" width="211" height="245" as="geometry" />
          </mxCell>
        </UserObject>
        <UserObject label="" plantUmlData="{&#xa;  &quot;data&quot;: &quot;@startuml\nleft to right direction\n\nnode \&quot;Client\&quot; {\n  component \&quot;Attractions\&quot; {\n  }\n}\n\nnode \&quot;Server\&quot; {\n  component \&quot;Attractions API\&quot; {\n  }\n}\n\n\&quot;Attractions\&quot; --&gt; \&quot;Attractions API\&quot;\n\n@enduml\n&quot;,&#xa;  &quot;format&quot;: &quot;svg&quot;&#xa;}" id="9SXIaBKgw8V6z2FIBWtQ-9">
          <mxCell style="shape=image;noLabel=1;verticalAlign=top;aspect=fixed;imageAspect=0;image=data:image/svg+xml,PD94bWwgdmVyc2lvbj0iMS4wIiBlbmNvZGluZz0idXMtYXNjaWkiIHN0YW5kYWxvbmU9Im5vIj8+PHN2ZyB4bWxucz0iaHR0cDovL3d3dy53My5vcmcvMjAwMC9zdmciIHhtbG5zOnhsaW5rPSJodHRwOi8vd3d3LnczLm9yZy8xOTk5L3hsaW5rIiBjb250ZW50U3R5bGVUeXBlPSJ0ZXh0L2NzcyIgaGVpZ2h0PSIxMjNweCIgcHJlc2VydmVBc3BlY3RSYXRpbz0ibm9uZSIgc3R5bGU9IndpZHRoOjM4N3B4O2hlaWdodDoxMjNweDtiYWNrZ3JvdW5kOiNGRkZGRkY7IiB2ZXJzaW9uPSIxLjEiIHZpZXdCb3g9IjAgMCAzODcgMTIzIiB3aWR0aD0iMzg3cHgiIHpvb21BbmRQYW49Im1hZ25pZnkiPjxkZWZzLz48Zz48IS0tY2x1c3RlciBDbGllbnQtLT48ZyBpZD0iY2x1c3Rlcl9DbGllbnQiPjxwb2x5Z29uIGZpbGw9Im5vbmUiIHBvaW50cz0iMTYsMTYsMjYsNiwxNjUsNiwxNjUsOTYsMTU1LDEwNiwxNiwxMDYsMTYsMTYiIHN0eWxlPSJzdHJva2U6IzE4MTgxODtzdHJva2Utd2lkdGg6MS4wOyIvPjxsaW5lIHN0eWxlPSJzdHJva2U6IzE4MTgxODtzdHJva2Utd2lkdGg6MS4wOyIgeDE9IjE1NSIgeDI9IjE2NSIgeTE9IjE2IiB5Mj0iNiIvPjxsaW5lIHN0eWxlPSJzdHJva2U6IzE4MTgxODtzdHJva2Utd2lkdGg6MS4wOyIgeDE9IjE2IiB4Mj0iMTU1IiB5MT0iMTYiIHkyPSIxNiIvPjxsaW5lIHN0eWxlPSJzdHJva2U6IzE4MTgxODtzdHJva2Utd2lkdGg6MS4wOyIgeDE9IjE1NSIgeDI9IjE1NSIgeTE9IjE2IiB5Mj0iMTA2Ii8+PHRleHQgZmlsbD0iIzAwMDAwMCIgZm9udC1mYW1pbHk9InNhbnMtc2VyaWYiIGZvbnQtc2l6ZT0iMTQiIGZvbnQtd2VpZ2h0PSJib2xkIiBsZW5ndGhBZGp1c3Q9InNwYWNpbmciIHRleHRMZW5ndGg9IjQyIiB4PSI2NS41IiB5PSIzMi4yMzQ0Ij5DbGllbnQ8L3RleHQ+PC9nPjwhLS1jbHVzdGVyIFNlcnZlci0tPjxnIGlkPSJjbHVzdGVyX1NlcnZlciI+PHBvbHlnb24gZmlsbD0ibm9uZSIgcG9pbnRzPSIxOTMsMTYsMjAzLDYsMzcwLDYsMzcwLDk2LDM2MCwxMDYsMTkzLDEwNiwxOTMsMTYiIHN0eWxlPSJzdHJva2U6IzE4MTgxODtzdHJva2Utd2lkdGg6MS4wOyIvPjxsaW5lIHN0eWxlPSJzdHJva2U6IzE4MTgxODtzdHJva2Utd2lkdGg6MS4wOyIgeDE9IjM2MCIgeDI9IjM3MCIgeTE9IjE2IiB5Mj0iNiIvPjxsaW5lIHN0eWxlPSJzdHJva2U6IzE4MTgxODtzdHJva2Utd2lkdGg6MS4wOyIgeDE9IjE5MyIgeDI9IjM2MCIgeTE9IjE2IiB5Mj0iMTYiLz48bGluZSBzdHlsZT0ic3Ryb2tlOiMxODE4MTg7c3Ryb2tlLXdpZHRoOjEuMDsiIHgxPSIzNjAiIHgyPSIzNjAiIHkxPSIxNiIgeTI9IjEwNiIvPjx0ZXh0IGZpbGw9IiMwMDAwMDAiIGZvbnQtZmFtaWx5PSJzYW5zLXNlcmlmIiBmb250LXNpemU9IjE0IiBmb250LXdlaWdodD0iYm9sZCIgbGVuZ3RoQWRqdXN0PSJzcGFjaW5nIiB0ZXh0TGVuZ3RoPSI0MiIgeD0iMjU2LjUiIHk9IjMyLjIzNDQiPlNlcnZlcjwvdGV4dD48L2c+PCEtLWVudGl0eSBBdHRyYWN0aW9ucy0tPjxnIGlkPSJlbGVtX0F0dHJhY3Rpb25zIj48cmVjdCBmaWxsPSIjRjFGMUYxIiBoZWlnaHQ9IjQ0Ljk4NDQiIHJ4PSIyLjUiIHJ5PSIyLjUiIHN0eWxlPSJzdHJva2U6IzE4MTgxODtzdHJva2Utd2lkdGg6MC41OyIgd2lkdGg9IjExNyIgeD0iMzIiIHk9IjQ0LjUiLz48cmVjdCBmaWxsPSIjRjFGMUYxIiBoZWlnaHQ9IjEwIiBzdHlsZT0ic3Ryb2tlOiMxODE4MTg7c3Ryb2tlLXdpZHRoOjAuNTsiIHdpZHRoPSIxNSIgeD0iMTI5IiB5PSI0OS41Ii8+PHJlY3QgZmlsbD0iI0YxRjFGMSIgaGVpZ2h0PSIyIiBzdHlsZT0ic3Ryb2tlOiMxODE4MTg7c3Ryb2tlLXdpZHRoOjAuNTsiIHdpZHRoPSI0IiB4PSIxMjciIHk9IjUxLjUiLz48cmVjdCBmaWxsPSIjRjFGMUYxIiBoZWlnaHQ9IjIiIHN0eWxlPSJzdHJva2U6IzE4MTgxODtzdHJva2Utd2lkdGg6MC41OyIgd2lkdGg9IjQiIHg9IjEyNyIgeT0iNTUuNSIvPjx0ZXh0IGZpbGw9IiMwMDAwMDAiIGZvbnQtZmFtaWx5PSJzYW5zLXNlcmlmIiBmb250LXNpemU9IjE0IiBsZW5ndGhBZGp1c3Q9InNwYWNpbmciIHRleHRMZW5ndGg9Ijc3IiB4PSI0NyIgeT0iNzcuNzM0NCI+QXR0cmFjdGlvbnM8L3RleHQ+PC9nPjwhLS1lbnRpdHkgQXR0cmFjdGlvbnMgQVBJLS0+PGcgaWQ9ImVsZW1fQXR0cmFjdGlvbnMgQVBJIj48cmVjdCBmaWxsPSIjRjFGMUYxIiBoZWlnaHQ9IjQ0Ljk4NDQiIHJ4PSIyLjUiIHJ5PSIyLjUiIHN0eWxlPSJzdHJva2U6IzE4MTgxODtzdHJva2Utd2lkdGg6MC41OyIgd2lkdGg9IjE0NSIgeD0iMjA5IiB5PSI0NC41Ii8+PHJlY3QgZmlsbD0iI0YxRjFGMSIgaGVpZ2h0PSIxMCIgc3R5bGU9InN0cm9rZTojMTgxODE4O3N0cm9rZS13aWR0aDowLjU7IiB3aWR0aD0iMTUiIHg9IjMzNCIgeT0iNDkuNSIvPjxyZWN0IGZpbGw9IiNGMUYxRjEiIGhlaWdodD0iMiIgc3R5bGU9InN0cm9rZTojMTgxODE4O3N0cm9rZS13aWR0aDowLjU7IiB3aWR0aD0iNCIgeD0iMzMyIiB5PSI1MS41Ii8+PHJlY3QgZmlsbD0iI0YxRjFGMSIgaGVpZ2h0PSIyIiBzdHlsZT0ic3Ryb2tlOiMxODE4MTg7c3Ryb2tlLXdpZHRoOjAuNTsiIHdpZHRoPSI0IiB4PSIzMzIiIHk9IjU1LjUiLz48dGV4dCBmaWxsPSIjMDAwMDAwIiBmb250LWZhbWlseT0ic2Fucy1zZXJpZiIgZm9udC1zaXplPSIxNCIgbGVuZ3RoQWRqdXN0PSJzcGFjaW5nIiB0ZXh0TGVuZ3RoPSIxMDUiIHg9IjIyNCIgeT0iNzcuNzM0NCI+QXR0cmFjdGlvbnMgQVBJPC90ZXh0PjwvZz48IS0tbGluayBBdHRyYWN0aW9ucyB0byBBdHRyYWN0aW9ucyBBUEktLT48ZyBpZD0ibGlua19BdHRyYWN0aW9uc19BdHRyYWN0aW9ucyBBUEkiPjxwYXRoIGNvZGVMaW5lPSIxMyIgZD0iTTE0OS4yMyw2NyBDMTY4LjAxLDY3IDE4My4wOSw2NyAyMDIuNzcsNjcgIiBmaWxsPSJub25lIiBpZD0iQXR0cmFjdGlvbnMtdG8tQXR0cmFjdGlvbnMgQVBJIiBzdHlsZT0ic3Ryb2tlOiMxODE4MTg7c3Ryb2tlLXdpZHRoOjEuMDsiLz48cG9seWdvbiBmaWxsPSIjMTgxODE4IiBwb2ludHM9IjIwOC43Nyw2NywxOTkuNzcsNjMsMjAzLjc3LDY3LDE5OS43Nyw3MSwyMDguNzcsNjciIHN0eWxlPSJzdHJva2U6IzE4MTgxODtzdHJva2Utd2lkdGg6MS4wOyIvPjwvZz48IS0tU1JDPVtvcWJEQXI0ZW9MU2VvYXBGQTU1OG9JbkFKSXg5cENfWnVpaEJKcWJMSzdCRW9LcERBcjVJZ0VQSUs0WkVwb3Q4cG1EbzVQR1NJcWdBNGk0QVlvNW9qTG9yQzJ0MWdLTGJnS051ajJXdTFkV1lRS0NySkxWTjNiQ24wMDAwXS0tPjwvZz48L3N2Zz4=;" parent="1" vertex="1">
            <mxGeometry x="268" y="770" width="387" height="123" as="geometry" />
          </mxCell>
        </UserObject>
        <UserObject label="" plantUmlData="{&quot;data&quot;:&quot;@startuml\nskinparam backgroundColor transparent\nleft to right direction\n\nnode \&quot;Client\&quot; as client {\n  component \&quot;Attractions\&quot; {\n  }\n}\n\nnode \&quot;Server\&quot; as server {\n  component \&quot;Attractions API\&quot; {\n  }\n}\n\nclient --&gt; server : Communicates\n\n@enduml\n&quot;,&quot;format&quot;:&quot;svg&quot;}" id="9SXIaBKgw8V6z2FIBWtQ-11">
          <mxCell style="shape=image;noLabel=1;verticalAlign=top;aspect=fixed;imageAspect=0;image=data:image/svg+xml,PD94bWwgdmVyc2lvbj0iMS4wIiBlbmNvZGluZz0idXMtYXNjaWkiIHN0YW5kYWxvbmU9Im5vIj8+PHN2ZyB4bWxucz0iaHR0cDovL3d3dy53My5vcmcvMjAwMC9zdmciIHhtbG5zOnhsaW5rPSJodHRwOi8vd3d3LnczLm9yZy8xOTk5L3hsaW5rIiBjb250ZW50U3R5bGVUeXBlPSJ0ZXh0L2NzcyIgaGVpZ2h0PSIxNThweCIgcHJlc2VydmVBc3BlY3RSYXRpbz0ibm9uZSIgc3R5bGU9IndpZHRoOjUyMXB4O2hlaWdodDoxNThweDsiIHZlcnNpb249IjEuMSIgdmlld0JveD0iMCAwIDUyMSAxNTgiIHdpZHRoPSI1MjFweCIgem9vbUFuZFBhbj0ibWFnbmlmeSI+PGRlZnMvPjxnPjwhLS1jbHVzdGVyIGNsaWVudC0tPjxnIGlkPSJjbHVzdGVyX2NsaWVudCI+PHBvbHlnb24gZmlsbD0ibm9uZSIgcG9pbnRzPSIxNiwxNiwyNiw2LDE4MSw2LDE4MSwxMzEsMTcxLDE0MSwxNiwxNDEsMTYsMTYiIHN0eWxlPSJzdHJva2U6IzE4MTgxODtzdHJva2Utd2lkdGg6MS4wOyIvPjxsaW5lIHN0eWxlPSJzdHJva2U6IzE4MTgxODtzdHJva2Utd2lkdGg6MS4wOyIgeDE9IjE3MSIgeDI9IjE4MSIgeTE9IjE2IiB5Mj0iNiIvPjxsaW5lIHN0eWxlPSJzdHJva2U6IzE4MTgxODtzdHJva2Utd2lkdGg6MS4wOyIgeDE9IjE2IiB4Mj0iMTcxIiB5MT0iMTYiIHkyPSIxNiIvPjxsaW5lIHN0eWxlPSJzdHJva2U6IzE4MTgxODtzdHJva2Utd2lkdGg6MS4wOyIgeDE9IjE3MSIgeDI9IjE3MSIgeTE9IjE2IiB5Mj0iMTQxIi8+PHRleHQgZmlsbD0iIzAwMDAwMCIgZm9udC1mYW1pbHk9InNhbnMtc2VyaWYiIGZvbnQtc2l6ZT0iMTQiIGZvbnQtd2VpZ2h0PSJib2xkIiBsZW5ndGhBZGp1c3Q9InNwYWNpbmciIHRleHRMZW5ndGg9IjQyIiB4PSI3My41IiB5PSIzMi4yMzQ0Ij5DbGllbnQ8L3RleHQ+PC9nPjwhLS1jbHVzdGVyIHNlcnZlci0tPjxnIGlkPSJjbHVzdGVyX3NlcnZlciI+PHBvbHlnb24gZmlsbD0ibm9uZSIgcG9pbnRzPSIzMTEsMTYsMzIxLDYsNTA0LDYsNTA0LDEzMSw0OTQsMTQxLDMxMSwxNDEsMzExLDE2IiBzdHlsZT0ic3Ryb2tlOiMxODE4MTg7c3Ryb2tlLXdpZHRoOjEuMDsiLz48bGluZSBzdHlsZT0ic3Ryb2tlOiMxODE4MTg7c3Ryb2tlLXdpZHRoOjEuMDsiIHgxPSI0OTQiIHgyPSI1MDQiIHkxPSIxNiIgeTI9IjYiLz48bGluZSBzdHlsZT0ic3Ryb2tlOiMxODE4MTg7c3Ryb2tlLXdpZHRoOjEuMDsiIHgxPSIzMTEiIHgyPSI0OTQiIHkxPSIxNiIgeTI9IjE2Ii8+PGxpbmUgc3R5bGU9InN0cm9rZTojMTgxODE4O3N0cm9rZS13aWR0aDoxLjA7IiB4MT0iNDk0IiB4Mj0iNDk0IiB5MT0iMTYiIHkyPSIxNDEiLz48dGV4dCBmaWxsPSIjMDAwMDAwIiBmb250LWZhbWlseT0ic2Fucy1zZXJpZiIgZm9udC1zaXplPSIxNCIgZm9udC13ZWlnaHQ9ImJvbGQiIGxlbmd0aEFkanVzdD0ic3BhY2luZyIgdGV4dExlbmd0aD0iNDIiIHg9IjM4Mi41IiB5PSIzMi4yMzQ0Ij5TZXJ2ZXI8L3RleHQ+PC9nPjwhLS1lbnRpdHkgQXR0cmFjdGlvbnMtLT48ZyBpZD0iZWxlbV9BdHRyYWN0aW9ucyI+PHJlY3QgZmlsbD0iI0YxRjFGMSIgaGVpZ2h0PSI0NC45ODQ0IiByeD0iMi41IiByeT0iMi41IiBzdHlsZT0ic3Ryb2tlOiMxODE4MTg7c3Ryb2tlLXdpZHRoOjAuNTsiIHdpZHRoPSIxMTciIHg9IjQwIiB5PSI1Mi41Ii8+PHJlY3QgZmlsbD0iI0YxRjFGMSIgaGVpZ2h0PSIxMCIgc3R5bGU9InN0cm9rZTojMTgxODE4O3N0cm9rZS13aWR0aDowLjU7IiB3aWR0aD0iMTUiIHg9IjEzNyIgeT0iNTcuNSIvPjxyZWN0IGZpbGw9IiNGMUYxRjEiIGhlaWdodD0iMiIgc3R5bGU9InN0cm9rZTojMTgxODE4O3N0cm9rZS13aWR0aDowLjU7IiB3aWR0aD0iNCIgeD0iMTM1IiB5PSI1OS41Ii8+PHJlY3QgZmlsbD0iI0YxRjFGMSIgaGVpZ2h0PSIyIiBzdHlsZT0ic3Ryb2tlOiMxODE4MTg7c3Ryb2tlLXdpZHRoOjAuNTsiIHdpZHRoPSI0IiB4PSIxMzUiIHk9IjYzLjUiLz48dGV4dCBmaWxsPSIjMDAwMDAwIiBmb250LWZhbWlseT0ic2Fucy1zZXJpZiIgZm9udC1zaXplPSIxNCIgbGVuZ3RoQWRqdXN0PSJzcGFjaW5nIiB0ZXh0TGVuZ3RoPSI3NyIgeD0iNTUiIHk9Ijg1LjczNDQiPkF0dHJhY3Rpb25zPC90ZXh0PjwvZz48IS0tZW50aXR5IEF0dHJhY3Rpb25zIEFQSS0tPjxnIGlkPSJlbGVtX0F0dHJhY3Rpb25zIEFQSSI+PHJlY3QgZmlsbD0iI0YxRjFGMSIgaGVpZ2h0PSI0NC45ODQ0IiByeD0iMi41IiByeT0iMi41IiBzdHlsZT0ic3Ryb2tlOiMxODE4MTg7c3Ryb2tlLXdpZHRoOjAuNTsiIHdpZHRoPSIxNDUiIHg9IjMzNSIgeT0iNTIuNSIvPjxyZWN0IGZpbGw9IiNGMUYxRjEiIGhlaWdodD0iMTAiIHN0eWxlPSJzdHJva2U6IzE4MTgxODtzdHJva2Utd2lkdGg6MC41OyIgd2lkdGg9IjE1IiB4PSI0NjAiIHk9IjU3LjUiLz48cmVjdCBmaWxsPSIjRjFGMUYxIiBoZWlnaHQ9IjIiIHN0eWxlPSJzdHJva2U6IzE4MTgxODtzdHJva2Utd2lkdGg6MC41OyIgd2lkdGg9IjQiIHg9IjQ1OCIgeT0iNTkuNSIvPjxyZWN0IGZpbGw9IiNGMUYxRjEiIGhlaWdodD0iMiIgc3R5bGU9InN0cm9rZTojMTgxODE4O3N0cm9rZS13aWR0aDowLjU7IiB3aWR0aD0iNCIgeD0iNDU4IiB5PSI2My41Ii8+PHRleHQgZmlsbD0iIzAwMDAwMCIgZm9udC1mYW1pbHk9InNhbnMtc2VyaWYiIGZvbnQtc2l6ZT0iMTQiIGxlbmd0aEFkanVzdD0ic3BhY2luZyIgdGV4dExlbmd0aD0iMTA1IiB4PSIzNTAiIHk9Ijg1LjczNDQiPkF0dHJhY3Rpb25zIEFQSTwvdGV4dD48L2c+PCEtLWxpbmsgY2xpZW50IHRvIHNlcnZlci0tPjxnIGlkPSJsaW5rX2NsaWVudF9zZXJ2ZXIiPjxwYXRoIGNvZGVMaW5lPSIxNCIgZD0iTTE4MS4yMjU4LDEzMyBDMTgyLjI4MzIsMTMzIDE4My4zNDY1LDEzMyAxODQuNDE1NCwxMzMgQzE4OC42OTA4LDEzMyAxOTMuMDU1NiwxMzMgMTk3LjQ5MiwxMzMgQzIxNS4yMzcyLDEzMyAyMzQuMTI2MiwxMzMgMjUzLjAxNSwxMzMgQzI3MS45MDM4LDEzMyAyOTAuNzkyMiwxMzMgMzA4LjUzNjIsMTMzIEMzMDkuMDkwNywxMzMgMzAzLjY0NDEsMTMzIDMwNC4xOTYzLDEzMyAiIGZpbGw9Im5vbmUiIGlkPSJjbGllbnQtdG8tc2VydmVyIiBzdHlsZT0ic3Ryb2tlOiMxODE4MTg7c3Ryb2tlLXdpZHRoOjEuMDsiLz48cG9seWdvbiBmaWxsPSIjMTgxODE4IiBwb2ludHM9IjMxMC4xOTYzLDEzMywzMDEuMTk2MywxMjksMzA1LjE5NjMsMTMzLDMwMS4xOTYzLDEzNywzMTAuMTk2MywxMzMiIHN0eWxlPSJzdHJva2U6IzE4MTgxODtzdHJva2Utd2lkdGg6MS4wOyIvPjx0ZXh0IGZpbGw9IiMwMDAwMDAiIGZvbnQtZmFtaWx5PSJzYW5zLXNlcmlmIiBmb250LXNpemU9IjEzIiBsZW5ndGhBZGp1c3Q9InNwYWNpbmciIHRleHRMZW5ndGg9IjgwIiB4PSIyMDYiIHk9IjEzMS4yODkxIj5Db21tdW5pY2F0ZXM8L3RleHQ+PC9nPjwhLS1TUkM9W1ZPc24zaThtNDRGdFY4TUxsSl8wVzVIck9hRlkycTl3YkFaRE5OTXZpYkp6VHFmNDlJT3NNX1Fwb3ZYdTNYZW94WTZFV3loMlZJVUpBNG0zYnBxWURaVkhtczAySlNGSnEyVWJRNGRPRVBRVXVCaWZ4SXNGSzEyaG5FZzBBN2FNX1paVnNodk1hVTloamhkalc2LWFCejhBYm9oX202WWxidi0xeHJkSmQwX3FYNHZvTlpaNU81SlVdLS0+PC9nPjwvc3ZnPg==;" parent="1" vertex="1">
            <mxGeometry x="210" y="920" width="521" height="158" as="geometry" />
          </mxCell>
        </UserObject>
        <mxCell id="9SXIaBKgw8V6z2FIBWtQ-18" value="" style="group" parent="1" vertex="1" connectable="0">
          <mxGeometry x="80" y="1240" width="640" height="200" as="geometry" />
        </mxCell>
        <mxCell id="9SXIaBKgw8V6z2FIBWtQ-14" value="" style="rounded=0;whiteSpace=wrap;html=1;" parent="9SXIaBKgw8V6z2FIBWtQ-18" vertex="1">
          <mxGeometry width="640" height="200" as="geometry" />
        </mxCell>
        <mxCell id="9SXIaBKgw8V6z2FIBWtQ-10" value="User" style="shape=umlActor;verticalLabelPosition=bottom;verticalAlign=top;html=1;outlineConnect=0;" parent="9SXIaBKgw8V6z2FIBWtQ-18" vertex="1">
          <mxGeometry x="50" y="61.5" width="30" height="60" as="geometry" />
        </mxCell>
        <UserObject label="" plantUmlData="{&#xa;  &quot;data&quot;: &quot;@startuml\nskinparam backgroundColor transparent\nleft to right direction\n\nnode \&quot;Server\&quot; as server {\n  component \&quot;Attractions API\&quot; {\n  }\n}\n\n@enduml\n&quot;,&#xa;  &quot;format&quot;: &quot;svg&quot;&#xa;}" id="9SXIaBKgw8V6z2FIBWtQ-12">
          <mxCell style="shape=image;noLabel=1;verticalAlign=top;aspect=fixed;imageAspect=0;image=data:image/svg+xml,PD94bWwgdmVyc2lvbj0iMS4wIiBlbmNvZGluZz0idXMtYXNjaWkiIHN0YW5kYWxvbmU9Im5vIj8+PHN2ZyB4bWxucz0iaHR0cDovL3d3dy53My5vcmcvMjAwMC9zdmciIHhtbG5zOnhsaW5rPSJodHRwOi8vd3d3LnczLm9yZy8xOTk5L3hsaW5rIiBjb250ZW50U3R5bGVUeXBlPSJ0ZXh0L2NzcyIgaGVpZ2h0PSIxMjNweCIgcHJlc2VydmVBc3BlY3RSYXRpbz0ibm9uZSIgc3R5bGU9IndpZHRoOjIxMHB4O2hlaWdodDoxMjNweDsiIHZlcnNpb249IjEuMSIgdmlld0JveD0iMCAwIDIxMCAxMjMiIHdpZHRoPSIyMTBweCIgem9vbUFuZFBhbj0ibWFnbmlmeSI+PGRlZnMvPjxnPjwhLS1jbHVzdGVyIHNlcnZlci0tPjxnIGlkPSJjbHVzdGVyX3NlcnZlciI+PHBvbHlnb24gZmlsbD0ibm9uZSIgcG9pbnRzPSIxNiwxNiwyNiw2LDE5Myw2LDE5Myw5NiwxODMsMTA2LDE2LDEwNiwxNiwxNiIgc3R5bGU9InN0cm9rZTojMTgxODE4O3N0cm9rZS13aWR0aDoxLjA7Ii8+PGxpbmUgc3R5bGU9InN0cm9rZTojMTgxODE4O3N0cm9rZS13aWR0aDoxLjA7IiB4MT0iMTgzIiB4Mj0iMTkzIiB5MT0iMTYiIHkyPSI2Ii8+PGxpbmUgc3R5bGU9InN0cm9rZTojMTgxODE4O3N0cm9rZS13aWR0aDoxLjA7IiB4MT0iMTYiIHgyPSIxODMiIHkxPSIxNiIgeTI9IjE2Ii8+PGxpbmUgc3R5bGU9InN0cm9rZTojMTgxODE4O3N0cm9rZS13aWR0aDoxLjA7IiB4MT0iMTgzIiB4Mj0iMTgzIiB5MT0iMTYiIHkyPSIxMDYiLz48dGV4dCBmaWxsPSIjMDAwMDAwIiBmb250LWZhbWlseT0ic2Fucy1zZXJpZiIgZm9udC1zaXplPSIxNCIgZm9udC13ZWlnaHQ9ImJvbGQiIGxlbmd0aEFkanVzdD0ic3BhY2luZyIgdGV4dExlbmd0aD0iNDIiIHg9Ijc5LjUiIHk9IjMyLjIzNDQiPlNlcnZlcjwvdGV4dD48L2c+PCEtLWVudGl0eSBBdHRyYWN0aW9ucyBBUEktLT48ZyBpZD0iZWxlbV9BdHRyYWN0aW9ucyBBUEkiPjxyZWN0IGZpbGw9IiNGMUYxRjEiIGhlaWdodD0iNDQuOTg0NCIgcng9IjIuNSIgcnk9IjIuNSIgc3R5bGU9InN0cm9rZTojMTgxODE4O3N0cm9rZS13aWR0aDowLjU7IiB3aWR0aD0iMTQ1IiB4PSIzMiIgeT0iNDQuNSIvPjxyZWN0IGZpbGw9IiNGMUYxRjEiIGhlaWdodD0iMTAiIHN0eWxlPSJzdHJva2U6IzE4MTgxODtzdHJva2Utd2lkdGg6MC41OyIgd2lkdGg9IjE1IiB4PSIxNTciIHk9IjQ5LjUiLz48cmVjdCBmaWxsPSIjRjFGMUYxIiBoZWlnaHQ9IjIiIHN0eWxlPSJzdHJva2U6IzE4MTgxODtzdHJva2Utd2lkdGg6MC41OyIgd2lkdGg9IjQiIHg9IjE1NSIgeT0iNTEuNSIvPjxyZWN0IGZpbGw9IiNGMUYxRjEiIGhlaWdodD0iMiIgc3R5bGU9InN0cm9rZTojMTgxODE4O3N0cm9rZS13aWR0aDowLjU7IiB3aWR0aD0iNCIgeD0iMTU1IiB5PSI1NS41Ii8+PHRleHQgZmlsbD0iIzAwMDAwMCIgZm9udC1mYW1pbHk9InNhbnMtc2VyaWYiIGZvbnQtc2l6ZT0iMTQiIGxlbmd0aEFkanVzdD0ic3BhY2luZyIgdGV4dExlbmd0aD0iMTA1IiB4PSI0NyIgeT0iNzcuNzM0NCI+QXR0cmFjdGlvbnMgQVBJPC90ZXh0PjwvZz48IS0tU1JDPVs3T24xMmlDbTMwSmxWaU5ZZHVJU1VZbHExUWdqOVlROTUySWJidkFfcl9Xc0NDcHVya0dhZW1EbEFqallVYWNUVExUMzY4YnRuSDlmdnF5VzVEUU1ETDJSU09jY2FmOWVQVUdOc3ZTaldubS00Qnk0NTNyRWJQdVpKejVsOHQ1Q3BxU1VfYXh0N20wMF0tLT48L2c+PC9zdmc+;" parent="9SXIaBKgw8V6z2FIBWtQ-18" vertex="1">
            <mxGeometry x="400" y="40" width="210" height="123" as="geometry" />
          </mxCell>
        </UserObject>
        <UserObject label="" plantUmlData="{&#xa;  &quot;data&quot;: &quot;@startuml\nskinparam backgroundColor transparent\nleft to right direction\n\nnode \&quot;Client\&quot; as client {\n  component \&quot;Attractions\&quot; {\n  }\n}\n\n@enduml\n&quot;,&#xa;  &quot;format&quot;: &quot;svg&quot;&#xa;}" id="9SXIaBKgw8V6z2FIBWtQ-13">
          <mxCell style="shape=image;noLabel=1;verticalAlign=top;aspect=fixed;imageAspect=0;image=data:image/svg+xml,PD94bWwgdmVyc2lvbj0iMS4wIiBlbmNvZGluZz0idXMtYXNjaWkiIHN0YW5kYWxvbmU9Im5vIj8+PHN2ZyB4bWxucz0iaHR0cDovL3d3dy53My5vcmcvMjAwMC9zdmciIHhtbG5zOnhsaW5rPSJodHRwOi8vd3d3LnczLm9yZy8xOTk5L3hsaW5rIiBjb250ZW50U3R5bGVUeXBlPSJ0ZXh0L2NzcyIgaGVpZ2h0PSIxMjNweCIgcHJlc2VydmVBc3BlY3RSYXRpbz0ibm9uZSIgc3R5bGU9IndpZHRoOjE4MnB4O2hlaWdodDoxMjNweDsiIHZlcnNpb249IjEuMSIgdmlld0JveD0iMCAwIDE4MiAxMjMiIHdpZHRoPSIxODJweCIgem9vbUFuZFBhbj0ibWFnbmlmeSI+PGRlZnMvPjxnPjwhLS1jbHVzdGVyIGNsaWVudC0tPjxnIGlkPSJjbHVzdGVyX2NsaWVudCI+PHBvbHlnb24gZmlsbD0ibm9uZSIgcG9pbnRzPSIxNiwxNiwyNiw2LDE2NSw2LDE2NSw5NiwxNTUsMTA2LDE2LDEwNiwxNiwxNiIgc3R5bGU9InN0cm9rZTojMTgxODE4O3N0cm9rZS13aWR0aDoxLjA7Ii8+PGxpbmUgc3R5bGU9InN0cm9rZTojMTgxODE4O3N0cm9rZS13aWR0aDoxLjA7IiB4MT0iMTU1IiB4Mj0iMTY1IiB5MT0iMTYiIHkyPSI2Ii8+PGxpbmUgc3R5bGU9InN0cm9rZTojMTgxODE4O3N0cm9rZS13aWR0aDoxLjA7IiB4MT0iMTYiIHgyPSIxNTUiIHkxPSIxNiIgeTI9IjE2Ii8+PGxpbmUgc3R5bGU9InN0cm9rZTojMTgxODE4O3N0cm9rZS13aWR0aDoxLjA7IiB4MT0iMTU1IiB4Mj0iMTU1IiB5MT0iMTYiIHkyPSIxMDYiLz48dGV4dCBmaWxsPSIjMDAwMDAwIiBmb250LWZhbWlseT0ic2Fucy1zZXJpZiIgZm9udC1zaXplPSIxNCIgZm9udC13ZWlnaHQ9ImJvbGQiIGxlbmd0aEFkanVzdD0ic3BhY2luZyIgdGV4dExlbmd0aD0iNDIiIHg9IjY1LjUiIHk9IjMyLjIzNDQiPkNsaWVudDwvdGV4dD48L2c+PCEtLWVudGl0eSBBdHRyYWN0aW9ucy0tPjxnIGlkPSJlbGVtX0F0dHJhY3Rpb25zIj48cmVjdCBmaWxsPSIjRjFGMUYxIiBoZWlnaHQ9IjQ0Ljk4NDQiIHJ4PSIyLjUiIHJ5PSIyLjUiIHN0eWxlPSJzdHJva2U6IzE4MTgxODtzdHJva2Utd2lkdGg6MC41OyIgd2lkdGg9IjExNyIgeD0iMzIiIHk9IjQ0LjUiLz48cmVjdCBmaWxsPSIjRjFGMUYxIiBoZWlnaHQ9IjEwIiBzdHlsZT0ic3Ryb2tlOiMxODE4MTg7c3Ryb2tlLXdpZHRoOjAuNTsiIHdpZHRoPSIxNSIgeD0iMTI5IiB5PSI0OS41Ii8+PHJlY3QgZmlsbD0iI0YxRjFGMSIgaGVpZ2h0PSIyIiBzdHlsZT0ic3Ryb2tlOiMxODE4MTg7c3Ryb2tlLXdpZHRoOjAuNTsiIHdpZHRoPSI0IiB4PSIxMjciIHk9IjUxLjUiLz48cmVjdCBmaWxsPSIjRjFGMUYxIiBoZWlnaHQ9IjIiIHN0eWxlPSJzdHJva2U6IzE4MTgxODtzdHJva2Utd2lkdGg6MC41OyIgd2lkdGg9IjQiIHg9IjEyNyIgeT0iNTUuNSIvPjx0ZXh0IGZpbGw9IiMwMDAwMDAiIGZvbnQtZmFtaWx5PSJzYW5zLXNlcmlmIiBmb250LXNpemU9IjE0IiBsZW5ndGhBZGp1c3Q9InNwYWNpbmciIHRleHRMZW5ndGg9Ijc3IiB4PSI0NyIgeT0iNzcuNzM0NCI+QXR0cmFjdGlvbnM8L3RleHQ+PC9nPjwhLS1TUkM9WzdPbjEzZUdtMzBGbFVPTkxkbzFVYWNxQkg5RzRmVGRKWWhfSnhTdE1aRHJGcVBrVEJ0bXVkeGxSTHlqZ3BIcFhoN3NXZ2E2alJlNG1rRW43ZThaTjc2OUFmNU9ncWpmYU0wZFNhTVY0WnUxaXJzdHdSc2M5eUpPZEZLdHNxRkMyXS0tPjwvZz48L3N2Zz4=;" parent="9SXIaBKgw8V6z2FIBWtQ-18" vertex="1">
            <mxGeometry x="160" y="40" width="182" height="123" as="geometry" />
          </mxCell>
        </UserObject>
        <mxCell id="9SXIaBKgw8V6z2FIBWtQ-15" value="" style="endArrow=none;html=1;rounded=0;exitX=1;exitY=0.5;exitDx=0;exitDy=0;" parent="9SXIaBKgw8V6z2FIBWtQ-18" edge="1">
          <mxGeometry width="50" height="50" relative="1" as="geometry">
            <mxPoint x="325" y="98" as="sourcePoint" />
            <mxPoint x="416" y="98" as="targetPoint" />
          </mxGeometry>
        </mxCell>
        <mxCell id="9SXIaBKgw8V6z2FIBWtQ-16" value="" style="endArrow=block;html=1;rounded=0;entryX=0;entryY=0.5;entryDx=0;entryDy=0;dashed=1;endFill=0;" parent="9SXIaBKgw8V6z2FIBWtQ-18" edge="1">
          <mxGeometry width="50" height="50" relative="1" as="geometry">
            <mxPoint x="80" y="99.79999999999995" as="sourcePoint" />
            <mxPoint x="176" y="99.79999999999995" as="targetPoint" />
          </mxGeometry>
        </mxCell>
        <UserObject label="" plantUmlData="{&#xa;  &quot;data&quot;: &quot;@startuml\nactor \&quot;User\&quot; as user\nparticipant \&quot;IoC Container\&quot; as container\nparticipant \&quot;Client\&quot; as client\nparticipant \&quot;Service\&quot; as service\nparticipant \&quot;ConcreteServiceA\&quot; as serviceA\n\nuser -&gt; container: Request Client\ncontainer -&gt; serviceA: Instantiate ConcreteServiceA\ncontainer -&gt; client: Inject service into Client\nclient -&gt; service: Call execute()\n\n@enduml\n&quot;,&#xa;  &quot;format&quot;: &quot;svg&quot;&#xa;}" id="1jSJuEnXcBag9f9SNATm-1">
          <mxCell style="shape=image;noLabel=1;verticalAlign=top;aspect=fixed;imageAspect=0;image=data:image/svg+xml,PD94bWwgdmVyc2lvbj0iMS4wIiBlbmNvZGluZz0idXMtYXNjaWkiIHN0YW5kYWxvbmU9Im5vIj8+PHN2ZyB4bWxucz0iaHR0cDovL3d3dy53My5vcmcvMjAwMC9zdmciIHhtbG5zOnhsaW5rPSJodHRwOi8vd3d3LnczLm9yZy8xOTk5L3hsaW5rIiBjb250ZW50U3R5bGVUeXBlPSJ0ZXh0L2NzcyIgaGVpZ2h0PSIyOTFweCIgcHJlc2VydmVBc3BlY3RSYXRpbz0ibm9uZSIgc3R5bGU9IndpZHRoOjYyOHB4O2hlaWdodDoyOTFweDtiYWNrZ3JvdW5kOiNGRkZGRkY7IiB2ZXJzaW9uPSIxLjEiIHZpZXdCb3g9IjAgMCA2MjggMjkxIiB3aWR0aD0iNjI4cHgiIHpvb21BbmRQYW49Im1hZ25pZnkiPjxkZWZzLz48Zz48bGluZSBzdHlsZT0ic3Ryb2tlOiMxODE4MTg7c3Ryb2tlLXdpZHRoOjAuNTtzdHJva2UtZGFzaGFycmF5OjUuMCw1LjA7IiB4MT0iMjIiIHgyPSIyMiIgeTE9Ijc5Ljk4NDQiIHkyPSIyMTEuNjQwNiIvPjxsaW5lIHN0eWxlPSJzdHJva2U6IzE4MTgxODtzdHJva2Utd2lkdGg6MC41O3N0cm9rZS1kYXNoYXJyYXk6NS4wLDUuMDsiIHgxPSIxMzkuNSIgeDI9IjEzOS41IiB5MT0iNzkuOTg0NCIgeTI9IjIxMS42NDA2Ii8+PGxpbmUgc3R5bGU9InN0cm9rZTojMTgxODE4O3N0cm9rZS13aWR0aDowLjU7c3Ryb2tlLWRhc2hhcnJheTo1LjAsNS4wOyIgeDE9IjMzOCIgeDI9IjMzOCIgeTE9Ijc5Ljk4NDQiIHkyPSIyMTEuNjQwNiIvPjxsaW5lIHN0eWxlPSJzdHJva2U6IzE4MTgxODtzdHJva2Utd2lkdGg6MC41O3N0cm9rZS1kYXNoYXJyYXk6NS4wLDUuMDsiIHgxPSI0NTQuNSIgeDI9IjQ1NC41IiB5MT0iNzkuOTg0NCIgeTI9IjIxMS42NDA2Ii8+PGxpbmUgc3R5bGU9InN0cm9rZTojMTgxODE4O3N0cm9rZS13aWR0aDowLjU7c3Ryb2tlLWRhc2hhcnJheTo1LjAsNS4wOyIgeDE9IjU1OS41IiB4Mj0iNTU5LjUiIHkxPSI3OS45ODQ0IiB5Mj0iMjExLjY0MDYiLz48dGV4dCBmaWxsPSIjMDAwMDAwIiBmb250LWZhbWlseT0ic2Fucy1zZXJpZiIgZm9udC1zaXplPSIxNCIgbGVuZ3RoQWRqdXN0PSJzcGFjaW5nIiB0ZXh0TGVuZ3RoPSIyOCIgeD0iNSIgeT0iNzguMjM0NCI+VXNlcjwvdGV4dD48ZWxsaXBzZSBjeD0iMjIiIGN5PSIxMy41IiBmaWxsPSIjRTJFMkYwIiByeD0iOCIgcnk9IjgiIHN0eWxlPSJzdHJva2U6IzE4MTgxODtzdHJva2Utd2lkdGg6MC41OyIvPjxwYXRoIGQ9Ik0yMiwyMS41IEwyMiw0OC41IE05LDI5LjUgTDM1LDI5LjUgTTIyLDQ4LjUgTDksNjMuNSBNMjIsNDguNSBMMzUsNjMuNSAiIGZpbGw9Im5vbmUiIHN0eWxlPSJzdHJva2U6IzE4MTgxODtzdHJva2Utd2lkdGg6MC41OyIvPjx0ZXh0IGZpbGw9IiMwMDAwMDAiIGZvbnQtZmFtaWx5PSJzYW5zLXNlcmlmIiBmb250LXNpemU9IjE0IiBsZW5ndGhBZGp1c3Q9InNwYWNpbmciIHRleHRMZW5ndGg9IjI4IiB4PSI1IiB5PSIyMjMuODc1Ij5Vc2VyPC90ZXh0PjxlbGxpcHNlIGN4PSIyMiIgY3k9IjIzNC4xMjUiIGZpbGw9IiNFMkUyRjAiIHJ4PSI4IiByeT0iOCIgc3R5bGU9InN0cm9rZTojMTgxODE4O3N0cm9rZS13aWR0aDowLjU7Ii8+PHBhdGggZD0iTTIyLDI0Mi4xMjUgTDIyLDI2OS4xMjUgTTksMjUwLjEyNSBMMzUsMjUwLjEyNSBNMjIsMjY5LjEyNSBMOSwyODQuMTI1IE0yMiwyNjkuMTI1IEwzNSwyODQuMTI1ICIgZmlsbD0ibm9uZSIgc3R5bGU9InN0cm9rZTojMTgxODE4O3N0cm9rZS13aWR0aDowLjU7Ii8+PHJlY3QgZmlsbD0iI0UyRTJGMCIgaGVpZ2h0PSIyOC45ODQ0IiByeD0iMi41IiByeT0iMi41IiBzdHlsZT0ic3Ryb2tlOiMxODE4MTg7c3Ryb2tlLXdpZHRoOjAuNTsiIHdpZHRoPSIxMDUiIHg9Ijg3LjUiIHk9IjUwIi8+PHRleHQgZmlsbD0iIzAwMDAwMCIgZm9udC1mYW1pbHk9InNhbnMtc2VyaWYiIGZvbnQtc2l6ZT0iMTQiIGxlbmd0aEFkanVzdD0ic3BhY2luZyIgdGV4dExlbmd0aD0iOTEiIHg9Ijk0LjUiIHk9IjcwLjIzNDQiPklvQyBDb250YWluZXI8L3RleHQ+PHJlY3QgZmlsbD0iI0UyRTJGMCIgaGVpZ2h0PSIyOC45ODQ0IiByeD0iMi41IiByeT0iMi41IiBzdHlsZT0ic3Ryb2tlOiMxODE4MTg7c3Ryb2tlLXdpZHRoOjAuNTsiIHdpZHRoPSIxMDUiIHg9Ijg3LjUiIHk9IjIxMC42NDA2Ii8+PHRleHQgZmlsbD0iIzAwMDAwMCIgZm9udC1mYW1pbHk9InNhbnMtc2VyaWYiIGZvbnQtc2l6ZT0iMTQiIGxlbmd0aEFkanVzdD0ic3BhY2luZyIgdGV4dExlbmd0aD0iOTEiIHg9Ijk0LjUiIHk9IjIzMC44NzUiPklvQyBDb250YWluZXI8L3RleHQ+PHJlY3QgZmlsbD0iI0UyRTJGMCIgaGVpZ2h0PSIyOC45ODQ0IiByeD0iMi41IiByeT0iMi41IiBzdHlsZT0ic3Ryb2tlOiMxODE4MTg7c3Ryb2tlLXdpZHRoOjAuNTsiIHdpZHRoPSI1NiIgeD0iMzEwIiB5PSI1MCIvPjx0ZXh0IGZpbGw9IiMwMDAwMDAiIGZvbnQtZmFtaWx5PSJzYW5zLXNlcmlmIiBmb250LXNpemU9IjE0IiBsZW5ndGhBZGp1c3Q9InNwYWNpbmciIHRleHRMZW5ndGg9IjQyIiB4PSIzMTciIHk9IjcwLjIzNDQiPkNsaWVudDwvdGV4dD48cmVjdCBmaWxsPSIjRTJFMkYwIiBoZWlnaHQ9IjI4Ljk4NDQiIHJ4PSIyLjUiIHJ5PSIyLjUiIHN0eWxlPSJzdHJva2U6IzE4MTgxODtzdHJva2Utd2lkdGg6MC41OyIgd2lkdGg9IjU2IiB4PSIzMTAiIHk9IjIxMC42NDA2Ii8+PHRleHQgZmlsbD0iIzAwMDAwMCIgZm9udC1mYW1pbHk9InNhbnMtc2VyaWYiIGZvbnQtc2l6ZT0iMTQiIGxlbmd0aEFkanVzdD0ic3BhY2luZyIgdGV4dExlbmd0aD0iNDIiIHg9IjMxNyIgeT0iMjMwLjg3NSI+Q2xpZW50PC90ZXh0PjxyZWN0IGZpbGw9IiNFMkUyRjAiIGhlaWdodD0iMjguOTg0NCIgcng9IjIuNSIgcnk9IjIuNSIgc3R5bGU9InN0cm9rZTojMTgxODE4O3N0cm9rZS13aWR0aDowLjU7IiB3aWR0aD0iNjMiIHg9IjQyMy41IiB5PSI1MCIvPjx0ZXh0IGZpbGw9IiMwMDAwMDAiIGZvbnQtZmFtaWx5PSJzYW5zLXNlcmlmIiBmb250LXNpemU9IjE0IiBsZW5ndGhBZGp1c3Q9InNwYWNpbmciIHRleHRMZW5ndGg9IjQ5IiB4PSI0MzAuNSIgeT0iNzAuMjM0NCI+U2VydmljZTwvdGV4dD48cmVjdCBmaWxsPSIjRTJFMkYwIiBoZWlnaHQ9IjI4Ljk4NDQiIHJ4PSIyLjUiIHJ5PSIyLjUiIHN0eWxlPSJzdHJva2U6IzE4MTgxODtzdHJva2Utd2lkdGg6MC41OyIgd2lkdGg9IjYzIiB4PSI0MjMuNSIgeT0iMjEwLjY0MDYiLz48dGV4dCBmaWxsPSIjMDAwMDAwIiBmb250LWZhbWlseT0ic2Fucy1zZXJpZiIgZm9udC1zaXplPSIxNCIgbGVuZ3RoQWRqdXN0PSJzcGFjaW5nIiB0ZXh0TGVuZ3RoPSI0OSIgeD0iNDMwLjUiIHk9IjIzMC44NzUiPlNlcnZpY2U8L3RleHQ+PHJlY3QgZmlsbD0iI0UyRTJGMCIgaGVpZ2h0PSIyOC45ODQ0IiByeD0iMi41IiByeT0iMi41IiBzdHlsZT0ic3Ryb2tlOiMxODE4MTg7c3Ryb2tlLXdpZHRoOjAuNTsiIHdpZHRoPSIxMjYiIHg9IjQ5Ni41IiB5PSI1MCIvPjx0ZXh0IGZpbGw9IiMwMDAwMDAiIGZvbnQtZmFtaWx5PSJzYW5zLXNlcmlmIiBmb250LXNpemU9IjE0IiBsZW5ndGhBZGp1c3Q9InNwYWNpbmciIHRleHRMZW5ndGg9IjExMiIgeD0iNTAzLjUiIHk9IjcwLjIzNDQiPkNvbmNyZXRlU2VydmljZUE8L3RleHQ+PHJlY3QgZmlsbD0iI0UyRTJGMCIgaGVpZ2h0PSIyOC45ODQ0IiByeD0iMi41IiByeT0iMi41IiBzdHlsZT0ic3Ryb2tlOiMxODE4MTg7c3Ryb2tlLXdpZHRoOjAuNTsiIHdpZHRoPSIxMjYiIHg9IjQ5Ni41IiB5PSIyMTAuNjQwNiIvPjx0ZXh0IGZpbGw9IiMwMDAwMDAiIGZvbnQtZmFtaWx5PSJzYW5zLXNlcmlmIiBmb250LXNpemU9IjE0IiBsZW5ndGhBZGp1c3Q9InNwYWNpbmciIHRleHRMZW5ndGg9IjExMiIgeD0iNTAzLjUiIHk9IjIzMC44NzUiPkNvbmNyZXRlU2VydmljZUE8L3RleHQ+PHBvbHlnb24gZmlsbD0iIzE4MTgxOCIgcG9pbnRzPSIxMjgsMTA1Ljg5ODQsMTM4LDEwOS44OTg0LDEyOCwxMTMuODk4NCwxMzIsMTA5Ljg5ODQiIHN0eWxlPSJzdHJva2U6IzE4MTgxODtzdHJva2Utd2lkdGg6MS4wOyIvPjxsaW5lIHN0eWxlPSJzdHJva2U6IzE4MTgxODtzdHJva2Utd2lkdGg6MS4wOyIgeDE9IjIyIiB4Mj0iMTM0IiB5MT0iMTA5Ljg5ODQiIHkyPSIxMDkuODk4NCIvPjx0ZXh0IGZpbGw9IiMwMDAwMDAiIGZvbnQtZmFtaWx5PSJzYW5zLXNlcmlmIiBmb250LXNpemU9IjEzIiBsZW5ndGhBZGp1c3Q9InNwYWNpbmciIHRleHRMZW5ndGg9Ijk0IiB4PSIyOSIgeT0iMTA2LjI3MzQiPlJlcXVlc3QgQ2xpZW50PC90ZXh0Pjxwb2x5Z29uIGZpbGw9IiMxODE4MTgiIHBvaW50cz0iNTQ3LjUsMTMzLjgxMjUsNTU3LjUsMTM3LjgxMjUsNTQ3LjUsMTQxLjgxMjUsNTUxLjUsMTM3LjgxMjUiIHN0eWxlPSJzdHJva2U6IzE4MTgxODtzdHJva2Utd2lkdGg6MS4wOyIvPjxsaW5lIHN0eWxlPSJzdHJva2U6IzE4MTgxODtzdHJva2Utd2lkdGg6MS4wOyIgeDE9IjE0MCIgeDI9IjU1My41IiB5MT0iMTM3LjgxMjUiIHkyPSIxMzcuODEyNSIvPjx0ZXh0IGZpbGw9IiMwMDAwMDAiIGZvbnQtZmFtaWx5PSJzYW5zLXNlcmlmIiBmb250LXNpemU9IjEzIiBsZW5ndGhBZGp1c3Q9InNwYWNpbmciIHRleHRMZW5ndGg9IjE4OSIgeD0iMTQ3IiB5PSIxMzQuMTg3NSI+SW5zdGFudGlhdGUgQ29uY3JldGVTZXJ2aWNlQTwvdGV4dD48cG9seWdvbiBmaWxsPSIjMTgxODE4IiBwb2ludHM9IjMyNiwxNjEuNzI2NiwzMzYsMTY1LjcyNjYsMzI2LDE2OS43MjY2LDMzMCwxNjUuNzI2NiIgc3R5bGU9InN0cm9rZTojMTgxODE4O3N0cm9rZS13aWR0aDoxLjA7Ii8+PGxpbmUgc3R5bGU9InN0cm9rZTojMTgxODE4O3N0cm9rZS13aWR0aDoxLjA7IiB4MT0iMTQwIiB4Mj0iMzMyIiB5MT0iMTY1LjcyNjYiIHkyPSIxNjUuNzI2NiIvPjx0ZXh0IGZpbGw9IiMwMDAwMDAiIGZvbnQtZmFtaWx5PSJzYW5zLXNlcmlmIiBmb250LXNpemU9IjEzIiBsZW5ndGhBZGp1c3Q9InNwYWNpbmciIHRleHRMZW5ndGg9IjE3NCIgeD0iMTQ3IiB5PSIxNjIuMTAxNiI+SW5qZWN0IHNlcnZpY2UgaW50byBDbGllbnQ8L3RleHQ+PHBvbHlnb24gZmlsbD0iIzE4MTgxOCIgcG9pbnRzPSI0NDMsMTg5LjY0MDYsNDUzLDE5My42NDA2LDQ0MywxOTcuNjQwNiw0NDcsMTkzLjY0MDYiIHN0eWxlPSJzdHJva2U6IzE4MTgxODtzdHJva2Utd2lkdGg6MS4wOyIvPjxsaW5lIHN0eWxlPSJzdHJva2U6IzE4MTgxODtzdHJva2Utd2lkdGg6MS4wOyIgeDE9IjMzOCIgeDI9IjQ0OSIgeTE9IjE5My42NDA2IiB5Mj0iMTkzLjY0MDYiLz48dGV4dCBmaWxsPSIjMDAwMDAwIiBmb250LWZhbWlseT0ic2Fucy1zZXJpZiIgZm9udC1zaXplPSIxMyIgbGVuZ3RoQWRqdXN0PSJzcGFjaW5nIiB0ZXh0TGVuZ3RoPSI5MyIgeD0iMzQ1IiB5PSIxOTAuMDE1NiI+Q2FsbCBleGVjdXRlKCk8L3RleHQ+PCEtLVNSQz1bTk91bjNlQ20zNE50ZEM5WVFlVFVXMDQ5UE05anJHRE9iV1ROb0E2OWdOaHk0VzhLY0Y4WmwtemQ5MGlIZ2NWWU0wNGM2QVZXMWVtYzkwRWdHVEs1M3B3ZWVVWjJxRmV4V2h1TkxZbDQ3OF9aMXlVRjRDX3BMRkFmN3ZHWTZveldrb1RSdl85YlM2bC16WGhrXzF1djZISXBzb09QTXVpclQ5Zmk0V1dRbXpibng5SXBTLUY1UEVpQTRCTW1FVVBkOXdaMU96eTNWdmI2dXlscjFtMDBdLS0+PC9nPjwvc3ZnPg==;" vertex="1" parent="1">
            <mxGeometry x="103" y="1510" width="628" height="291" as="geometry" />
          </mxCell>
        </UserObject>
        <UserObject label="" plantUmlData="{&#xa;  &quot;data&quot;: &quot;@startuml\nactor \&quot;User\&quot; as user\nparticipant \&quot;IoC Container\&quot; as container\nparticipant \&quot;Client\&quot; as client\nparticipant \&quot;Service\&quot; as service\nparticipant \&quot;ConcreteServiceA\&quot; as serviceA\n\nuser -&gt; container: Request Client\ncontainer -&gt; serviceA: Instantiate ConcreteServiceA\ncontainer -&gt; client: Inject service into Client\nclient -&gt; service: Call execute()\n\n@enduml\n&quot;,&#xa;  &quot;format&quot;: &quot;svg&quot;&#xa;}" id="1jSJuEnXcBag9f9SNATm-2">
          <mxCell style="shape=image;noLabel=1;verticalAlign=top;aspect=fixed;imageAspect=0;image=data:image/svg+xml,PD94bWwgdmVyc2lvbj0iMS4wIiBlbmNvZGluZz0idXMtYXNjaWkiIHN0YW5kYWxvbmU9Im5vIj8+PHN2ZyB4bWxucz0iaHR0cDovL3d3dy53My5vcmcvMjAwMC9zdmciIHhtbG5zOnhsaW5rPSJodHRwOi8vd3d3LnczLm9yZy8xOTk5L3hsaW5rIiBjb250ZW50U3R5bGVUeXBlPSJ0ZXh0L2NzcyIgaGVpZ2h0PSIyOTFweCIgcHJlc2VydmVBc3BlY3RSYXRpbz0ibm9uZSIgc3R5bGU9IndpZHRoOjYyOHB4O2hlaWdodDoyOTFweDtiYWNrZ3JvdW5kOiNGRkZGRkY7IiB2ZXJzaW9uPSIxLjEiIHZpZXdCb3g9IjAgMCA2MjggMjkxIiB3aWR0aD0iNjI4cHgiIHpvb21BbmRQYW49Im1hZ25pZnkiPjxkZWZzLz48Zz48bGluZSBzdHlsZT0ic3Ryb2tlOiMxODE4MTg7c3Ryb2tlLXdpZHRoOjAuNTtzdHJva2UtZGFzaGFycmF5OjUuMCw1LjA7IiB4MT0iMjIiIHgyPSIyMiIgeTE9Ijc5Ljk4NDQiIHkyPSIyMTEuNjQwNiIvPjxsaW5lIHN0eWxlPSJzdHJva2U6IzE4MTgxODtzdHJva2Utd2lkdGg6MC41O3N0cm9rZS1kYXNoYXJyYXk6NS4wLDUuMDsiIHgxPSIxMzkuNSIgeDI9IjEzOS41IiB5MT0iNzkuOTg0NCIgeTI9IjIxMS42NDA2Ii8+PGxpbmUgc3R5bGU9InN0cm9rZTojMTgxODE4O3N0cm9rZS13aWR0aDowLjU7c3Ryb2tlLWRhc2hhcnJheTo1LjAsNS4wOyIgeDE9IjMzOCIgeDI9IjMzOCIgeTE9Ijc5Ljk4NDQiIHkyPSIyMTEuNjQwNiIvPjxsaW5lIHN0eWxlPSJzdHJva2U6IzE4MTgxODtzdHJva2Utd2lkdGg6MC41O3N0cm9rZS1kYXNoYXJyYXk6NS4wLDUuMDsiIHgxPSI0NTQuNSIgeDI9IjQ1NC41IiB5MT0iNzkuOTg0NCIgeTI9IjIxMS42NDA2Ii8+PGxpbmUgc3R5bGU9InN0cm9rZTojMTgxODE4O3N0cm9rZS13aWR0aDowLjU7c3Ryb2tlLWRhc2hhcnJheTo1LjAsNS4wOyIgeDE9IjU1OS41IiB4Mj0iNTU5LjUiIHkxPSI3OS45ODQ0IiB5Mj0iMjExLjY0MDYiLz48dGV4dCBmaWxsPSIjMDAwMDAwIiBmb250LWZhbWlseT0ic2Fucy1zZXJpZiIgZm9udC1zaXplPSIxNCIgbGVuZ3RoQWRqdXN0PSJzcGFjaW5nIiB0ZXh0TGVuZ3RoPSIyOCIgeD0iNSIgeT0iNzguMjM0NCI+VXNlcjwvdGV4dD48ZWxsaXBzZSBjeD0iMjIiIGN5PSIxMy41IiBmaWxsPSIjRTJFMkYwIiByeD0iOCIgcnk9IjgiIHN0eWxlPSJzdHJva2U6IzE4MTgxODtzdHJva2Utd2lkdGg6MC41OyIvPjxwYXRoIGQ9Ik0yMiwyMS41IEwyMiw0OC41IE05LDI5LjUgTDM1LDI5LjUgTTIyLDQ4LjUgTDksNjMuNSBNMjIsNDguNSBMMzUsNjMuNSAiIGZpbGw9Im5vbmUiIHN0eWxlPSJzdHJva2U6IzE4MTgxODtzdHJva2Utd2lkdGg6MC41OyIvPjx0ZXh0IGZpbGw9IiMwMDAwMDAiIGZvbnQtZmFtaWx5PSJzYW5zLXNlcmlmIiBmb250LXNpemU9IjE0IiBsZW5ndGhBZGp1c3Q9InNwYWNpbmciIHRleHRMZW5ndGg9IjI4IiB4PSI1IiB5PSIyMjMuODc1Ij5Vc2VyPC90ZXh0PjxlbGxpcHNlIGN4PSIyMiIgY3k9IjIzNC4xMjUiIGZpbGw9IiNFMkUyRjAiIHJ4PSI4IiByeT0iOCIgc3R5bGU9InN0cm9rZTojMTgxODE4O3N0cm9rZS13aWR0aDowLjU7Ii8+PHBhdGggZD0iTTIyLDI0Mi4xMjUgTDIyLDI2OS4xMjUgTTksMjUwLjEyNSBMMzUsMjUwLjEyNSBNMjIsMjY5LjEyNSBMOSwyODQuMTI1IE0yMiwyNjkuMTI1IEwzNSwyODQuMTI1ICIgZmlsbD0ibm9uZSIgc3R5bGU9InN0cm9rZTojMTgxODE4O3N0cm9rZS13aWR0aDowLjU7Ii8+PHJlY3QgZmlsbD0iI0UyRTJGMCIgaGVpZ2h0PSIyOC45ODQ0IiByeD0iMi41IiByeT0iMi41IiBzdHlsZT0ic3Ryb2tlOiMxODE4MTg7c3Ryb2tlLXdpZHRoOjAuNTsiIHdpZHRoPSIxMDUiIHg9Ijg3LjUiIHk9IjUwIi8+PHRleHQgZmlsbD0iIzAwMDAwMCIgZm9udC1mYW1pbHk9InNhbnMtc2VyaWYiIGZvbnQtc2l6ZT0iMTQiIGxlbmd0aEFkanVzdD0ic3BhY2luZyIgdGV4dExlbmd0aD0iOTEiIHg9Ijk0LjUiIHk9IjcwLjIzNDQiPklvQyBDb250YWluZXI8L3RleHQ+PHJlY3QgZmlsbD0iI0UyRTJGMCIgaGVpZ2h0PSIyOC45ODQ0IiByeD0iMi41IiByeT0iMi41IiBzdHlsZT0ic3Ryb2tlOiMxODE4MTg7c3Ryb2tlLXdpZHRoOjAuNTsiIHdpZHRoPSIxMDUiIHg9Ijg3LjUiIHk9IjIxMC42NDA2Ii8+PHRleHQgZmlsbD0iIzAwMDAwMCIgZm9udC1mYW1pbHk9InNhbnMtc2VyaWYiIGZvbnQtc2l6ZT0iMTQiIGxlbmd0aEFkanVzdD0ic3BhY2luZyIgdGV4dExlbmd0aD0iOTEiIHg9Ijk0LjUiIHk9IjIzMC44NzUiPklvQyBDb250YWluZXI8L3RleHQ+PHJlY3QgZmlsbD0iI0UyRTJGMCIgaGVpZ2h0PSIyOC45ODQ0IiByeD0iMi41IiByeT0iMi41IiBzdHlsZT0ic3Ryb2tlOiMxODE4MTg7c3Ryb2tlLXdpZHRoOjAuNTsiIHdpZHRoPSI1NiIgeD0iMzEwIiB5PSI1MCIvPjx0ZXh0IGZpbGw9IiMwMDAwMDAiIGZvbnQtZmFtaWx5PSJzYW5zLXNlcmlmIiBmb250LXNpemU9IjE0IiBsZW5ndGhBZGp1c3Q9InNwYWNpbmciIHRleHRMZW5ndGg9IjQyIiB4PSIzMTciIHk9IjcwLjIzNDQiPkNsaWVudDwvdGV4dD48cmVjdCBmaWxsPSIjRTJFMkYwIiBoZWlnaHQ9IjI4Ljk4NDQiIHJ4PSIyLjUiIHJ5PSIyLjUiIHN0eWxlPSJzdHJva2U6IzE4MTgxODtzdHJva2Utd2lkdGg6MC41OyIgd2lkdGg9IjU2IiB4PSIzMTAiIHk9IjIxMC42NDA2Ii8+PHRleHQgZmlsbD0iIzAwMDAwMCIgZm9udC1mYW1pbHk9InNhbnMtc2VyaWYiIGZvbnQtc2l6ZT0iMTQiIGxlbmd0aEFkanVzdD0ic3BhY2luZyIgdGV4dExlbmd0aD0iNDIiIHg9IjMxNyIgeT0iMjMwLjg3NSI+Q2xpZW50PC90ZXh0PjxyZWN0IGZpbGw9IiNFMkUyRjAiIGhlaWdodD0iMjguOTg0NCIgcng9IjIuNSIgcnk9IjIuNSIgc3R5bGU9InN0cm9rZTojMTgxODE4O3N0cm9rZS13aWR0aDowLjU7IiB3aWR0aD0iNjMiIHg9IjQyMy41IiB5PSI1MCIvPjx0ZXh0IGZpbGw9IiMwMDAwMDAiIGZvbnQtZmFtaWx5PSJzYW5zLXNlcmlmIiBmb250LXNpemU9IjE0IiBsZW5ndGhBZGp1c3Q9InNwYWNpbmciIHRleHRMZW5ndGg9IjQ5IiB4PSI0MzAuNSIgeT0iNzAuMjM0NCI+U2VydmljZTwvdGV4dD48cmVjdCBmaWxsPSIjRTJFMkYwIiBoZWlnaHQ9IjI4Ljk4NDQiIHJ4PSIyLjUiIHJ5PSIyLjUiIHN0eWxlPSJzdHJva2U6IzE4MTgxODtzdHJva2Utd2lkdGg6MC41OyIgd2lkdGg9IjYzIiB4PSI0MjMuNSIgeT0iMjEwLjY0MDYiLz48dGV4dCBmaWxsPSIjMDAwMDAwIiBmb250LWZhbWlseT0ic2Fucy1zZXJpZiIgZm9udC1zaXplPSIxNCIgbGVuZ3RoQWRqdXN0PSJzcGFjaW5nIiB0ZXh0TGVuZ3RoPSI0OSIgeD0iNDMwLjUiIHk9IjIzMC44NzUiPlNlcnZpY2U8L3RleHQ+PHJlY3QgZmlsbD0iI0UyRTJGMCIgaGVpZ2h0PSIyOC45ODQ0IiByeD0iMi41IiByeT0iMi41IiBzdHlsZT0ic3Ryb2tlOiMxODE4MTg7c3Ryb2tlLXdpZHRoOjAuNTsiIHdpZHRoPSIxMjYiIHg9IjQ5Ni41IiB5PSI1MCIvPjx0ZXh0IGZpbGw9IiMwMDAwMDAiIGZvbnQtZmFtaWx5PSJzYW5zLXNlcmlmIiBmb250LXNpemU9IjE0IiBsZW5ndGhBZGp1c3Q9InNwYWNpbmciIHRleHRMZW5ndGg9IjExMiIgeD0iNTAzLjUiIHk9IjcwLjIzNDQiPkNvbmNyZXRlU2VydmljZUE8L3RleHQ+PHJlY3QgZmlsbD0iI0UyRTJGMCIgaGVpZ2h0PSIyOC45ODQ0IiByeD0iMi41IiByeT0iMi41IiBzdHlsZT0ic3Ryb2tlOiMxODE4MTg7c3Ryb2tlLXdpZHRoOjAuNTsiIHdpZHRoPSIxMjYiIHg9IjQ5Ni41IiB5PSIyMTAuNjQwNiIvPjx0ZXh0IGZpbGw9IiMwMDAwMDAiIGZvbnQtZmFtaWx5PSJzYW5zLXNlcmlmIiBmb250LXNpemU9IjE0IiBsZW5ndGhBZGp1c3Q9InNwYWNpbmciIHRleHRMZW5ndGg9IjExMiIgeD0iNTAzLjUiIHk9IjIzMC44NzUiPkNvbmNyZXRlU2VydmljZUE8L3RleHQ+PHBvbHlnb24gZmlsbD0iIzE4MTgxOCIgcG9pbnRzPSIxMjgsMTA1Ljg5ODQsMTM4LDEwOS44OTg0LDEyOCwxMTMuODk4NCwxMzIsMTA5Ljg5ODQiIHN0eWxlPSJzdHJva2U6IzE4MTgxODtzdHJva2Utd2lkdGg6MS4wOyIvPjxsaW5lIHN0eWxlPSJzdHJva2U6IzE4MTgxODtzdHJva2Utd2lkdGg6MS4wOyIgeDE9IjIyIiB4Mj0iMTM0IiB5MT0iMTA5Ljg5ODQiIHkyPSIxMDkuODk4NCIvPjx0ZXh0IGZpbGw9IiMwMDAwMDAiIGZvbnQtZmFtaWx5PSJzYW5zLXNlcmlmIiBmb250LXNpemU9IjEzIiBsZW5ndGhBZGp1c3Q9InNwYWNpbmciIHRleHRMZW5ndGg9Ijk0IiB4PSIyOSIgeT0iMTA2LjI3MzQiPlJlcXVlc3QgQ2xpZW50PC90ZXh0Pjxwb2x5Z29uIGZpbGw9IiMxODE4MTgiIHBvaW50cz0iNTQ3LjUsMTMzLjgxMjUsNTU3LjUsMTM3LjgxMjUsNTQ3LjUsMTQxLjgxMjUsNTUxLjUsMTM3LjgxMjUiIHN0eWxlPSJzdHJva2U6IzE4MTgxODtzdHJva2Utd2lkdGg6MS4wOyIvPjxsaW5lIHN0eWxlPSJzdHJva2U6IzE4MTgxODtzdHJva2Utd2lkdGg6MS4wOyIgeDE9IjE0MCIgeDI9IjU1My41IiB5MT0iMTM3LjgxMjUiIHkyPSIxMzcuODEyNSIvPjx0ZXh0IGZpbGw9IiMwMDAwMDAiIGZvbnQtZmFtaWx5PSJzYW5zLXNlcmlmIiBmb250LXNpemU9IjEzIiBsZW5ndGhBZGp1c3Q9InNwYWNpbmciIHRleHRMZW5ndGg9IjE4OSIgeD0iMTQ3IiB5PSIxMzQuMTg3NSI+SW5zdGFudGlhdGUgQ29uY3JldGVTZXJ2aWNlQTwvdGV4dD48cG9seWdvbiBmaWxsPSIjMTgxODE4IiBwb2ludHM9IjMyNiwxNjEuNzI2NiwzMzYsMTY1LjcyNjYsMzI2LDE2OS43MjY2LDMzMCwxNjUuNzI2NiIgc3R5bGU9InN0cm9rZTojMTgxODE4O3N0cm9rZS13aWR0aDoxLjA7Ii8+PGxpbmUgc3R5bGU9InN0cm9rZTojMTgxODE4O3N0cm9rZS13aWR0aDoxLjA7IiB4MT0iMTQwIiB4Mj0iMzMyIiB5MT0iMTY1LjcyNjYiIHkyPSIxNjUuNzI2NiIvPjx0ZXh0IGZpbGw9IiMwMDAwMDAiIGZvbnQtZmFtaWx5PSJzYW5zLXNlcmlmIiBmb250LXNpemU9IjEzIiBsZW5ndGhBZGp1c3Q9InNwYWNpbmciIHRleHRMZW5ndGg9IjE3NCIgeD0iMTQ3IiB5PSIxNjIuMTAxNiI+SW5qZWN0IHNlcnZpY2UgaW50byBDbGllbnQ8L3RleHQ+PHBvbHlnb24gZmlsbD0iIzE4MTgxOCIgcG9pbnRzPSI0NDMsMTg5LjY0MDYsNDUzLDE5My42NDA2LDQ0MywxOTcuNjQwNiw0NDcsMTkzLjY0MDYiIHN0eWxlPSJzdHJva2U6IzE4MTgxODtzdHJva2Utd2lkdGg6MS4wOyIvPjxsaW5lIHN0eWxlPSJzdHJva2U6IzE4MTgxODtzdHJva2Utd2lkdGg6MS4wOyIgeDE9IjMzOCIgeDI9IjQ0OSIgeTE9IjE5My42NDA2IiB5Mj0iMTkzLjY0MDYiLz48dGV4dCBmaWxsPSIjMDAwMDAwIiBmb250LWZhbWlseT0ic2Fucy1zZXJpZiIgZm9udC1zaXplPSIxMyIgbGVuZ3RoQWRqdXN0PSJzcGFjaW5nIiB0ZXh0TGVuZ3RoPSI5MyIgeD0iMzQ1IiB5PSIxOTAuMDE1NiI+Q2FsbCBleGVjdXRlKCk8L3RleHQ+PCEtLVNSQz1bTk91bjNlQ20zNE50ZEM5WVFlVFVXMDQ5UE05anJHRE9iV1ROb0E2OWdOaHk0VzhLY0Y4WmwtemQ5MGlIZ2NWWU0wNGM2QVZXMWVtYzkwRWdHVEs1M3B3ZWVVWjJxRmV4V2h1TkxZbDQ3OF9aMXlVRjRDX3BMRkFmN3ZHWTZveldrb1RSdl85YlM2bC16WGhrXzF1djZISXBzb09QTXVpclQ5Zmk0V1dRbXpibng5SXBTLUY1UEVpQTRCTW1FVVBkOXdaMU96eTNWdmI2dXlscjFtMDBdLS0+PC9nPjwvc3ZnPg==;" vertex="1" parent="1">
            <mxGeometry x="100" y="1890" width="628" height="291" as="geometry" />
          </mxCell>
        </UserObject>
        <mxCell id="1jSJuEnXcBag9f9SNATm-17" value="" style="group" vertex="1" connectable="0" parent="1">
          <mxGeometry x="120" y="2360" width="520" height="520" as="geometry" />
        </mxCell>
        <mxCell id="1jSJuEnXcBag9f9SNATm-16" value="" style="rounded=0;whiteSpace=wrap;html=1;" vertex="1" parent="1jSJuEnXcBag9f9SNATm-17">
          <mxGeometry width="520" height="520" as="geometry" />
        </mxCell>
        <mxCell id="1jSJuEnXcBag9f9SNATm-3" value="API Layer" style="rounded=0;whiteSpace=wrap;html=1;" vertex="1" parent="1jSJuEnXcBag9f9SNATm-17">
          <mxGeometry x="200" y="40" width="120" height="60" as="geometry" />
        </mxCell>
        <mxCell id="1jSJuEnXcBag9f9SNATm-4" value="Application Layer" style="rounded=0;whiteSpace=wrap;html=1;" vertex="1" parent="1jSJuEnXcBag9f9SNATm-17">
          <mxGeometry x="200" y="230" width="120" height="60" as="geometry" />
        </mxCell>
        <mxCell id="1jSJuEnXcBag9f9SNATm-5" value="Domain Layer" style="rounded=0;whiteSpace=wrap;html=1;" vertex="1" parent="1jSJuEnXcBag9f9SNATm-17">
          <mxGeometry x="200" y="420" width="120" height="60" as="geometry" />
        </mxCell>
        <mxCell id="1jSJuEnXcBag9f9SNATm-6" value="Persistence Layer" style="rounded=0;whiteSpace=wrap;html=1;" vertex="1" parent="1jSJuEnXcBag9f9SNATm-17">
          <mxGeometry x="360" y="320" width="120" height="60" as="geometry" />
        </mxCell>
        <mxCell id="1jSJuEnXcBag9f9SNATm-7" value="Infrastructure Layer" style="rounded=0;whiteSpace=wrap;html=1;" vertex="1" parent="1jSJuEnXcBag9f9SNATm-17">
          <mxGeometry x="40" y="120" width="120" height="60" as="geometry" />
        </mxCell>
        <mxCell id="1jSJuEnXcBag9f9SNATm-9" value="" style="shape=flexArrow;endArrow=classic;html=1;rounded=0;exitX=0.5;exitY=1;exitDx=0;exitDy=0;entryX=1;entryY=0.5;entryDx=0;entryDy=0;fillColor=#dae8fc;strokeColor=#6c8ebf;" edge="1" parent="1jSJuEnXcBag9f9SNATm-17" source="1jSJuEnXcBag9f9SNATm-6" target="1jSJuEnXcBag9f9SNATm-5">
          <mxGeometry width="50" height="50" relative="1" as="geometry">
            <mxPoint x="300" y="320" as="sourcePoint" />
            <mxPoint x="350" y="270" as="targetPoint" />
          </mxGeometry>
        </mxCell>
        <mxCell id="1jSJuEnXcBag9f9SNATm-10" value="" style="shape=flexArrow;endArrow=classic;html=1;rounded=0;fillColor=#dae8fc;strokeColor=#6c8ebf;exitX=1;exitY=0.5;exitDx=0;exitDy=0;entryX=0.5;entryY=0;entryDx=0;entryDy=0;" edge="1" parent="1jSJuEnXcBag9f9SNATm-17" source="1jSJuEnXcBag9f9SNATm-4" target="1jSJuEnXcBag9f9SNATm-6">
          <mxGeometry width="50" height="50" relative="1" as="geometry">
            <mxPoint x="300" y="320" as="sourcePoint" />
            <mxPoint x="350" y="270" as="targetPoint" />
          </mxGeometry>
        </mxCell>
        <mxCell id="1jSJuEnXcBag9f9SNATm-11" value="" style="shape=flexArrow;endArrow=classic;html=1;rounded=0;entryX=0.5;entryY=0;entryDx=0;entryDy=0;exitX=0;exitY=0.5;exitDx=0;exitDy=0;fillColor=#dae8fc;strokeColor=#6c8ebf;" edge="1" parent="1jSJuEnXcBag9f9SNATm-17" source="1jSJuEnXcBag9f9SNATm-3" target="1jSJuEnXcBag9f9SNATm-7">
          <mxGeometry width="50" height="50" relative="1" as="geometry">
            <mxPoint x="334" y="78" as="sourcePoint" />
            <mxPoint x="384" y="28" as="targetPoint" />
          </mxGeometry>
        </mxCell>
        <mxCell id="1jSJuEnXcBag9f9SNATm-12" value="" style="shape=flexArrow;endArrow=classic;html=1;rounded=0;entryX=0.5;entryY=0;entryDx=0;entryDy=0;exitX=0.5;exitY=1;exitDx=0;exitDy=0;fillColor=#dae8fc;strokeColor=#6c8ebf;" edge="1" parent="1jSJuEnXcBag9f9SNATm-17" source="1jSJuEnXcBag9f9SNATm-3" target="1jSJuEnXcBag9f9SNATm-4">
          <mxGeometry width="50" height="50" relative="1" as="geometry">
            <mxPoint x="220.5" y="170" as="sourcePoint" />
            <mxPoint x="270.5" y="120" as="targetPoint" />
          </mxGeometry>
        </mxCell>
        <mxCell id="1jSJuEnXcBag9f9SNATm-13" value="" style="shape=flexArrow;endArrow=classic;html=1;rounded=0;exitX=0.5;exitY=1;exitDx=0;exitDy=0;fillColor=#dae8fc;strokeColor=#6c8ebf;entryX=0;entryY=0.5;entryDx=0;entryDy=0;" edge="1" parent="1jSJuEnXcBag9f9SNATm-17" source="1jSJuEnXcBag9f9SNATm-7" target="1jSJuEnXcBag9f9SNATm-4">
          <mxGeometry width="50" height="50" relative="1" as="geometry">
            <mxPoint x="400" y="260" as="sourcePoint" />
            <mxPoint x="320" y="260" as="targetPoint" />
          </mxGeometry>
        </mxCell>
        <mxCell id="1jSJuEnXcBag9f9SNATm-14" value="" style="shape=flexArrow;endArrow=classic;html=1;rounded=0;entryX=0.5;entryY=0;entryDx=0;entryDy=0;exitX=0.5;exitY=1;exitDx=0;exitDy=0;fillColor=#dae8fc;strokeColor=#6c8ebf;" edge="1" parent="1jSJuEnXcBag9f9SNATm-17">
          <mxGeometry width="50" height="50" relative="1" as="geometry">
            <mxPoint x="259.66" y="290" as="sourcePoint" />
            <mxPoint x="259.66" y="420" as="targetPoint" />
          </mxGeometry>
        </mxCell>
        <mxCell id="1jSJuEnXcBag9f9SNATm-18" value="" style="group" vertex="1" connectable="0" parent="1">
          <mxGeometry x="150" y="2900" width="520" height="520" as="geometry" />
        </mxCell>
        <mxCell id="1jSJuEnXcBag9f9SNATm-19" value="" style="rounded=0;whiteSpace=wrap;html=1;flipV=1;flipH=0;direction=west;movable=0;resizable=0;rotatable=0;deletable=0;editable=0;locked=1;connectable=0;" vertex="1" parent="1jSJuEnXcBag9f9SNATm-18">
          <mxGeometry width="520" height="520" as="geometry" />
        </mxCell>
        <mxCell id="1jSJuEnXcBag9f9SNATm-20" value="API Layer" style="rounded=0;whiteSpace=wrap;html=1;" vertex="1" parent="1jSJuEnXcBag9f9SNATm-18">
          <mxGeometry x="200" y="40" width="120" height="60" as="geometry" />
        </mxCell>
        <mxCell id="1jSJuEnXcBag9f9SNATm-21" value="Application Layer" style="rounded=0;whiteSpace=wrap;html=1;" vertex="1" parent="1jSJuEnXcBag9f9SNATm-18">
          <mxGeometry x="200" y="230" width="120" height="60" as="geometry" />
        </mxCell>
        <mxCell id="1jSJuEnXcBag9f9SNATm-22" value="Domain Layer" style="rounded=0;whiteSpace=wrap;html=1;" vertex="1" parent="1jSJuEnXcBag9f9SNATm-18">
          <mxGeometry x="200" y="420" width="120" height="60" as="geometry" />
        </mxCell>
        <mxCell id="1jSJuEnXcBag9f9SNATm-23" value="Persistence Layer" style="rounded=0;whiteSpace=wrap;html=1;" vertex="1" parent="1jSJuEnXcBag9f9SNATm-18">
          <mxGeometry x="360" y="320" width="120" height="60" as="geometry" />
        </mxCell>
        <mxCell id="1jSJuEnXcBag9f9SNATm-24" value="Infrastructure Layer" style="rounded=0;whiteSpace=wrap;html=1;" vertex="1" parent="1jSJuEnXcBag9f9SNATm-18">
          <mxGeometry x="40" y="120" width="120" height="60" as="geometry" />
        </mxCell>
        <mxCell id="1jSJuEnXcBag9f9SNATm-25" value="" style="endArrow=classic;html=1;rounded=0;exitX=0.5;exitY=1;exitDx=0;exitDy=0;entryX=1;entryY=0.5;entryDx=0;entryDy=0;" edge="1" parent="1jSJuEnXcBag9f9SNATm-18" source="1jSJuEnXcBag9f9SNATm-23" target="1jSJuEnXcBag9f9SNATm-22">
          <mxGeometry width="50" height="50" relative="1" as="geometry">
            <mxPoint x="300" y="320" as="sourcePoint" />
            <mxPoint x="350" y="270" as="targetPoint" />
          </mxGeometry>
        </mxCell>
        <mxCell id="1jSJuEnXcBag9f9SNATm-26" value="" style="endArrow=classic;html=1;rounded=0;exitX=1;exitY=0.5;exitDx=0;exitDy=0;entryX=0.5;entryY=0;entryDx=0;entryDy=0;" edge="1" parent="1jSJuEnXcBag9f9SNATm-18" source="1jSJuEnXcBag9f9SNATm-21" target="1jSJuEnXcBag9f9SNATm-23">
          <mxGeometry width="50" height="50" relative="1" as="geometry">
            <mxPoint x="300" y="320" as="sourcePoint" />
            <mxPoint x="350" y="270" as="targetPoint" />
          </mxGeometry>
        </mxCell>
        <mxCell id="1jSJuEnXcBag9f9SNATm-27" value="" style="endArrow=classic;html=1;rounded=0;entryX=0.5;entryY=0;entryDx=0;entryDy=0;exitX=0;exitY=0.5;exitDx=0;exitDy=0;fillColor=#f8cecc;strokeColor=#b85450;" edge="1" parent="1jSJuEnXcBag9f9SNATm-18" source="1jSJuEnXcBag9f9SNATm-20" target="1jSJuEnXcBag9f9SNATm-24">
          <mxGeometry width="50" height="50" relative="1" as="geometry">
            <mxPoint x="334" y="78" as="sourcePoint" />
            <mxPoint x="384" y="28" as="targetPoint" />
          </mxGeometry>
        </mxCell>
        <mxCell id="1jSJuEnXcBag9f9SNATm-28" value="" style="endArrow=classic;html=1;rounded=0;entryX=0.5;entryY=0;entryDx=0;entryDy=0;exitX=0.5;exitY=1;exitDx=0;exitDy=0;" edge="1" parent="1jSJuEnXcBag9f9SNATm-18">
          <mxGeometry width="50" height="50" relative="1" as="geometry">
            <mxPoint x="245" y="100" as="sourcePoint" />
            <mxPoint x="245" y="230" as="targetPoint" />
          </mxGeometry>
        </mxCell>
        <mxCell id="1jSJuEnXcBag9f9SNATm-29" value="" style="endArrow=none;html=1;rounded=0;exitX=0.5;exitY=1;exitDx=0;exitDy=0;fillColor=default;strokeColor=#000000;entryX=0;entryY=0.5;entryDx=0;entryDy=0;startArrow=classic;startFill=1;endFill=0;" edge="1" parent="1jSJuEnXcBag9f9SNATm-18" source="1jSJuEnXcBag9f9SNATm-24" target="1jSJuEnXcBag9f9SNATm-21">
          <mxGeometry width="50" height="50" relative="1" as="geometry">
            <mxPoint x="400" y="260" as="sourcePoint" />
            <mxPoint x="320" y="260" as="targetPoint" />
          </mxGeometry>
        </mxCell>
        <mxCell id="1jSJuEnXcBag9f9SNATm-30" value="" style="endArrow=classic;html=1;rounded=0;entryX=0.5;entryY=0;entryDx=0;entryDy=0;exitX=0.5;exitY=1;exitDx=0;exitDy=0;" edge="1" parent="1jSJuEnXcBag9f9SNATm-18">
          <mxGeometry width="50" height="50" relative="1" as="geometry">
            <mxPoint x="245.00000000000003" y="290" as="sourcePoint" />
            <mxPoint x="245.00000000000003" y="420" as="targetPoint" />
          </mxGeometry>
        </mxCell>
        <mxCell id="1jSJuEnXcBag9f9SNATm-31" value="" style="endArrow=none;html=1;rounded=0;entryX=1;entryY=1;entryDx=0;entryDy=0;fillColor=#f8cecc;strokeColor=#b85450;startArrow=block;startFill=1;endFill=0;" edge="1" parent="1jSJuEnXcBag9f9SNATm-18" source="1jSJuEnXcBag9f9SNATm-21" target="1jSJuEnXcBag9f9SNATm-24">
          <mxGeometry width="50" height="50" relative="1" as="geometry">
            <mxPoint x="300" y="287" as="sourcePoint" />
            <mxPoint x="350" y="237" as="targetPoint" />
          </mxGeometry>
        </mxCell>
        <mxCell id="1jSJuEnXcBag9f9SNATm-32" value="implements" style="edgeLabel;html=1;align=center;verticalAlign=middle;resizable=0;points=[];" vertex="1" connectable="0" parent="1jSJuEnXcBag9f9SNATm-31">
          <mxGeometry x="0.4276" y="2" relative="1" as="geometry">
            <mxPoint x="-1" y="1" as="offset" />
          </mxGeometry>
        </mxCell>
        <mxCell id="1jSJuEnXcBag9f9SNATm-33" value="" style="endArrow=classic;html=1;rounded=0;exitX=0.75;exitY=1;exitDx=0;exitDy=0;entryX=0.75;entryY=0;entryDx=0;entryDy=0;fillColor=#f8cecc;strokeColor=#b85450;" edge="1" parent="1jSJuEnXcBag9f9SNATm-18">
          <mxGeometry width="50" height="50" relative="1" as="geometry">
            <mxPoint x="285" y="100" as="sourcePoint" />
            <mxPoint x="285" y="230" as="targetPoint" />
          </mxGeometry>
        </mxCell>
        <mxCell id="1jSJuEnXcBag9f9SNATm-34" value="" style="endArrow=classic;html=1;rounded=0;entryX=0.5;entryY=0;entryDx=0;entryDy=0;exitX=0.5;exitY=1;exitDx=0;exitDy=0;fillColor=#f8cecc;strokeColor=#b85450;" edge="1" parent="1jSJuEnXcBag9f9SNATm-18">
          <mxGeometry width="50" height="50" relative="1" as="geometry">
            <mxPoint x="285" y="290" as="sourcePoint" />
            <mxPoint x="285" y="420" as="targetPoint" />
          </mxGeometry>
        </mxCell>
        <mxCell id="1jSJuEnXcBag9f9SNATm-36" value="" style="endArrow=classic;html=1;rounded=0;fillColor=#f8cecc;strokeColor=#b85450;entryX=0.76;entryY=0.706;entryDx=0;entryDy=0;entryPerimeter=0;" edge="1" parent="1jSJuEnXcBag9f9SNATm-18">
          <mxGeometry width="50" height="50" relative="1" as="geometry">
            <mxPoint x="20" y="500" as="sourcePoint" />
            <mxPoint x="160" y="500.1199999999999" as="targetPoint" />
          </mxGeometry>
        </mxCell>
        <mxCell id="1jSJuEnXcBag9f9SNATm-41" value="flow of control" style="text;html=1;align=center;verticalAlign=middle;whiteSpace=wrap;rounded=0;" vertex="1" parent="1jSJuEnXcBag9f9SNATm-18">
          <mxGeometry x="30" y="435" width="120" height="30" as="geometry" />
        </mxCell>
        <mxCell id="1jSJuEnXcBag9f9SNATm-42" value="" style="endArrow=classic;html=1;rounded=0;entryX=0.76;entryY=0.706;entryDx=0;entryDy=0;entryPerimeter=0;" edge="1" parent="1jSJuEnXcBag9f9SNATm-18">
          <mxGeometry width="50" height="50" relative="1" as="geometry">
            <mxPoint x="20" y="465" as="sourcePoint" />
            <mxPoint x="160" y="465.1199999999999" as="targetPoint" />
          </mxGeometry>
        </mxCell>
        <mxCell id="1jSJuEnXcBag9f9SNATm-43" value="flow of dependencies" style="text;html=1;align=center;verticalAlign=middle;whiteSpace=wrap;rounded=0;" vertex="1" parent="1jSJuEnXcBag9f9SNATm-18">
          <mxGeometry x="30" y="470" width="120" height="30" as="geometry" />
        </mxCell>
        <mxCell id="1jSJuEnXcBag9f9SNATm-44" value="" style="endArrow=classic;html=1;rounded=0;fillColor=#f8cecc;strokeColor=#b85450;" edge="1" parent="1jSJuEnXcBag9f9SNATm-18">
          <mxGeometry width="50" height="50" relative="1" as="geometry">
            <mxPoint x="320" y="240" as="sourcePoint" />
            <mxPoint x="450" y="320" as="targetPoint" />
          </mxGeometry>
        </mxCell>
        <mxCell id="1jSJuEnXcBag9f9SNATm-46" value="" style="endArrow=classic;html=1;rounded=0;exitX=0.69;exitY=1.007;exitDx=0;exitDy=0;entryX=0.996;entryY=0.789;entryDx=0;entryDy=0;entryPerimeter=0;exitPerimeter=0;fillColor=#f8cecc;strokeColor=#b85450;" edge="1" parent="1jSJuEnXcBag9f9SNATm-18" source="1jSJuEnXcBag9f9SNATm-23" target="1jSJuEnXcBag9f9SNATm-22">
          <mxGeometry width="50" height="50" relative="1" as="geometry">
            <mxPoint x="430" y="390" as="sourcePoint" />
            <mxPoint x="330" y="460" as="targetPoint" />
          </mxGeometry>
        </mxCell>
        <UserObject label="" plantUmlData="{&#xa;  &quot;data&quot;: &quot;@startuml\n\nclass User {\n    +Guid Id\n    +string Bio\n    +string Photo\n    +List&lt;Attraction&gt; CreatedAttractions\n    +List&lt;AttractionComment&gt; AttractionComments\n    +List&lt;Friendship&gt; FriendshipsSent\n    +List&lt;Friendship&gt; FriendshipsReceived\n}\n\nclass UserRole {\n    +Guid Id\n}\n\nclass Country {\n    +Guid Id\n    +string Name\n}\n\nclass AttractionType {\n    +Guid Id\n    +string Name\n    +List&lt;Attraction&gt; Attractions\n}\n\nclass Attraction {\n    +Guid Id\n    +string Name\n    +string Description\n    +string Address\n    +string Website\n    +string City\n    +Guid CountryId\n    +Guid AttractionTypeId\n    +Guid CreatorId\n    +string PhotosCsv\n    +List&lt;Reaction&gt; Reactions\n    +List&lt;AttractionComment&gt; Comments\n    +Country Country\n    +AttractionType AttractionType\n    +User Creator\n    +List&lt;string&gt; Photos\n}\n\nclass Reaction {\n    +Guid UserId\n    +Guid AttractionId\n    +ReactionType Type\n    +User User\n    +Attraction Attraction\n}\n\nclass AttractionComment {\n    +Guid Id\n    +string Body\n    +DateTime CreatedAt\n    +User Author\n    +Attraction Attraction\n}\n\nclass AttractionsCollection {\n    +Guid Id\n    +string Name\n    +string Description\n    +string Thumbnail\n    +Visibility Visibility\n    +uint Index\n    +Guid OwnerId\n    +User Owner\n    +List&lt;AttractionsCollectionItem&gt; CollectionItems\n}\n\nclass AttractionsCollectionItem {\n    +Guid CollectionId\n    +Guid AttractionId\n    +string Note\n    +uint Index\n    +AttractionsCollection Collection\n    +Attraction Attraction\n}\n\nclass Friendship {\n    +Guid SenderId\n    +Guid ReceiverId\n    +FriendshipStatus Status\n    +DateTime ModifiedAt\n    +User Sender\n    +User Receiver\n}\n\nUser \&quot;1\&quot; -- \&quot;0..*\&quot; Attraction: \&quot;CreatedAttractions\&quot;\nUser \&quot;1\&quot; -- \&quot;0..*\&quot; AttractionComment: \&quot;AttractionComments\&quot;\nUser \&quot;1\&quot; -- \&quot;0..*\&quot; Friendship: \&quot;FriendshipsSent\&quot;\nUser \&quot;1\&quot; -- \&quot;0..*\&quot; Friendship: \&quot;FriendshipsReceived\&quot;\nUserRole \&quot;1\&quot; -- \&quot;0..*\&quot; User\nCountry \&quot;1\&quot; -- \&quot;0..*\&quot; Attraction\nAttractionType \&quot;1\&quot; -- \&quot;0..*\&quot; Attraction\nAttraction \&quot;1\&quot; -- \&quot;0..*\&quot; Reaction: \&quot;Reactions\&quot;\nAttraction \&quot;1\&quot; -- \&quot;0..*\&quot; AttractionComment: \&quot;Comments\&quot;\nAttractionsCollection \&quot;1\&quot; -- \&quot;0..*\&quot; AttractionsCollectionItem: \&quot;CollectionItems\&quot;\nAttractionsCollectionItem \&quot;1\&quot; -- \&quot;1\&quot; AttractionsCollection\nAttractionsCollectionItem \&quot;1\&quot; -- \&quot;1\&quot; Attraction\nAttraction \&quot;1\&quot; -- \&quot;0..*\&quot; AttractionsCollectionItem\nFriendship \&quot;1\&quot; -- \&quot;1\&quot; User: \&quot;Sender\&quot;\nFriendship \&quot;1\&quot; -- \&quot;1\&quot; User: \&quot;Receiver\&quot;\nReaction \&quot;1\&quot; -- \&quot;1\&quot; User\nReaction \&quot;1\&quot; -- \&quot;1\&quot; Attraction\n\n@enduml\n&quot;,&#xa;  &quot;format&quot;: &quot;svg&quot;&#xa;}" id="1jSJuEnXcBag9f9SNATm-48">
          <mxCell style="shape=image;noLabel=1;verticalAlign=top;aspect=fixed;imageAspect=0;image=data:image/svg+xml,PD94bWwgdmVyc2lvbj0iMS4wIiBlbmNvZGluZz0idXMtYXNjaWkiIHN0YW5kYWxvbmU9Im5vIj8+PHN2ZyB4bWxucz0iaHR0cDovL3d3dy53My5vcmcvMjAwMC9zdmciIHhtbG5zOnhsaW5rPSJodHRwOi8vd3d3LnczLm9yZy8xOTk5L3hsaW5rIiBjb250ZW50U3R5bGVUeXBlPSJ0ZXh0L2NzcyIgaGVpZ2h0PSIxMTI0cHgiIHByZXNlcnZlQXNwZWN0UmF0aW89Im5vbmUiIHN0eWxlPSJ3aWR0aDoxMTkycHg7aGVpZ2h0OjExMjRweDtiYWNrZ3JvdW5kOiNGRkZGRkY7IiB2ZXJzaW9uPSIxLjEiIHZpZXdCb3g9IjAgMCAxMTkyIDExMjQiIHdpZHRoPSIxMTkycHgiIHpvb21BbmRQYW49Im1hZ25pZnkiPjxkZWZzLz48Zz48IS0tY2xhc3MgVXNlci0tPjxnIGlkPSJlbGVtX1VzZXIiPjxyZWN0IGNvZGVMaW5lPSIxIiBmaWxsPSIjRjFGMUYxIiBoZWlnaHQ9IjE1Mi44OTA2IiBpZD0iVXNlciIgcng9IjIuNSIgcnk9IjIuNSIgc3R5bGU9InN0cm9rZTojMTgxODE4O3N0cm9rZS13aWR0aDowLjU7IiB3aWR0aD0iMzI0IiB4PSIyODcuNTMiIHk9IjEzMSIvPjxlbGxpcHNlIGN4PSI0MzEuMjgiIGN5PSIxNDciIGZpbGw9IiNBREQxQjIiIHJ4PSIxMSIgcnk9IjExIiBzdHlsZT0ic3Ryb2tlOiMxODE4MTg7c3Ryb2tlLXdpZHRoOjEuMDsiLz48cGF0aCBkPSJNNDI4LjkwNSwxNTEuMjUgTDQyOC45MDUsMTUzIEw0MzMuODQyNSwxNTMgTDQzMy44NDI1LDE1MS4yNSBMNDI4LjkwNSwxNTEuMjUgWiBNNDI5LjU5MjUsMTUxLjkzNzUgUTQyOS41OTI1LDE1MS45Mzc1IDQyOS41OTI1LDE0Mi43NSBMNDI3Ljg0MjUsMTQyLjc1IFE0MjcuODQyNSwxNDIuNzUgNDI3Ljg0MjUsMTUxLjkzNzUgTDQyOS41OTI1LDE1MS45Mzc1IFogTTQzMy4xNTUsMTUxLjkzNzUgTDQzNC45MDUsMTUxLjkzNzUgUTQzNC45MDUsMTUxLjkzNzUgNDM0LjkwNSwxNDkuMTI1IEw0MzMuMTU1LDE0OS4xMjUgUTQzMy4xNTUsMTQ5LjEyNSA0MzMuMTU1LDE1MS45Mzc1IFogTTQzMy4xNTUsMTQyLjc1IFE0MzMuMTU1LDE0Mi43NSA0MzMuMTU1LDE0NS41NjI1IEw0MzQuOTA1LDE0NS41NjI1IFE0MzQuOTA1LDE0NS41NjI1IDQzNC45MDUsMTQyLjc1IEw0MzMuMTU1LDE0Mi43NSBaIE00MjguOTA1LDE0My40Mzc1IEw0MzMuODQyNSwxNDMuNDM3NSBMNDMzLjg0MjUsMTQxLjY4NzUgTDQyOC45MDUsMTQxLjY4NzUgTDQyOC45MDUsMTQzLjQzNzUgWiAiIGZpbGw9IiMwMDAwMDAiLz48dGV4dCBmaWxsPSIjMDAwMDAwIiBmb250LWZhbWlseT0ic2Fucy1zZXJpZiIgZm9udC1zaXplPSIxNCIgbGVuZ3RoQWRqdXN0PSJzcGFjaW5nIiB0ZXh0TGVuZ3RoPSIyOCIgeD0iNDUxLjc4IiB5PSIxNTIuNzQyMiI+VXNlcjwvdGV4dD48bGluZSBzdHlsZT0ic3Ryb2tlOiMxODE4MTg7c3Ryb2tlLXdpZHRoOjAuNTsiIHgxPSIyODguNTMiIHgyPSI2MTAuNTMiIHkxPSIxNjMiIHkyPSIxNjMiLz48ZWxsaXBzZSBjeD0iMjk4LjUzIiBjeT0iMTc1Ljk5MjIiIGZpbGw9Im5vbmUiIHJ4PSIzIiByeT0iMyIgc3R5bGU9InN0cm9rZTojMDM4MDQ4O3N0cm9rZS13aWR0aDoxLjA7Ii8+PHRleHQgZmlsbD0iIzAwMDAwMCIgZm9udC1mYW1pbHk9InNhbnMtc2VyaWYiIGZvbnQtc2l6ZT0iMTQiIGxlbmd0aEFkanVzdD0ic3BhY2luZyIgdGV4dExlbmd0aD0iNDkiIHg9IjMwNy41MyIgeT0iMTgwLjIzNDQiPkd1aWQgSWQ8L3RleHQ+PGVsbGlwc2UgY3g9IjI5OC41MyIgY3k9IjE5MC45NzY2IiBmaWxsPSJub25lIiByeD0iMyIgcnk9IjMiIHN0eWxlPSJzdHJva2U6IzAzODA0ODtzdHJva2Utd2lkdGg6MS4wOyIvPjx0ZXh0IGZpbGw9IiMwMDAwMDAiIGZvbnQtZmFtaWx5PSJzYW5zLXNlcmlmIiBmb250LXNpemU9IjE0IiBsZW5ndGhBZGp1c3Q9InNwYWNpbmciIHRleHRMZW5ndGg9IjcwIiB4PSIzMDcuNTMiIHk9IjE5NS4yMTg4Ij5zdHJpbmcgQmlvPC90ZXh0PjxlbGxpcHNlIGN4PSIyOTguNTMiIGN5PSIyMDUuOTYwOSIgZmlsbD0ibm9uZSIgcng9IjMiIHJ5PSIzIiBzdHlsZT0ic3Ryb2tlOiMwMzgwNDg7c3Ryb2tlLXdpZHRoOjEuMDsiLz48dGV4dCBmaWxsPSIjMDAwMDAwIiBmb250LWZhbWlseT0ic2Fucy1zZXJpZiIgZm9udC1zaXplPSIxNCIgbGVuZ3RoQWRqdXN0PSJzcGFjaW5nIiB0ZXh0TGVuZ3RoPSI4NCIgeD0iMzA3LjUzIiB5PSIyMTAuMjAzMSI+c3RyaW5nIFBob3RvPC90ZXh0PjxlbGxpcHNlIGN4PSIyOTguNTMiIGN5PSIyMjAuOTQ1MyIgZmlsbD0ibm9uZSIgcng9IjMiIHJ5PSIzIiBzdHlsZT0ic3Ryb2tlOiMwMzgwNDg7c3Ryb2tlLXdpZHRoOjEuMDsiLz48dGV4dCBmaWxsPSIjMDAwMDAwIiBmb250LWZhbWlseT0ic2Fucy1zZXJpZiIgZm9udC1zaXplPSIxNCIgbGVuZ3RoQWRqdXN0PSJzcGFjaW5nIiB0ZXh0TGVuZ3RoPSIyNDUiIHg9IjMwNy41MyIgeT0iMjI1LjE4NzUiPkxpc3QmbHQ7QXR0cmFjdGlvbiZndDsgQ3JlYXRlZEF0dHJhY3Rpb25zPC90ZXh0PjxlbGxpcHNlIGN4PSIyOTguNTMiIGN5PSIyMzUuOTI5NyIgZmlsbD0ibm9uZSIgcng9IjMiIHJ5PSIzIiBzdHlsZT0ic3Ryb2tlOiMwMzgwNDg7c3Ryb2tlLXdpZHRoOjEuMDsiLz48dGV4dCBmaWxsPSIjMDAwMDAwIiBmb250LWZhbWlseT0ic2Fucy1zZXJpZiIgZm9udC1zaXplPSIxNCIgbGVuZ3RoQWRqdXN0PSJzcGFjaW5nIiB0ZXh0TGVuZ3RoPSIyOTgiIHg9IjMwNy41MyIgeT0iMjQwLjE3MTkiPkxpc3QmbHQ7QXR0cmFjdGlvbkNvbW1lbnQmZ3Q7IEF0dHJhY3Rpb25Db21tZW50czwvdGV4dD48ZWxsaXBzZSBjeD0iMjk4LjUzIiBjeT0iMjUwLjkxNDEiIGZpbGw9Im5vbmUiIHJ4PSIzIiByeT0iMyIgc3R5bGU9InN0cm9rZTojMDM4MDQ4O3N0cm9rZS13aWR0aDoxLjA7Ii8+PHRleHQgZmlsbD0iIzAwMDAwMCIgZm9udC1mYW1pbHk9InNhbnMtc2VyaWYiIGZvbnQtc2l6ZT0iMTQiIGxlbmd0aEFkanVzdD0ic3BhY2luZyIgdGV4dExlbmd0aD0iMjI0IiB4PSIzMDcuNTMiIHk9IjI1NS4xNTYzIj5MaXN0Jmx0O0ZyaWVuZHNoaXAmZ3Q7IEZyaWVuZHNoaXBzU2VudDwvdGV4dD48ZWxsaXBzZSBjeD0iMjk4LjUzIiBjeT0iMjY1Ljg5ODQiIGZpbGw9Im5vbmUiIHJ4PSIzIiByeT0iMyIgc3R5bGU9InN0cm9rZTojMDM4MDQ4O3N0cm9rZS13aWR0aDoxLjA7Ii8+PHRleHQgZmlsbD0iIzAwMDAwMCIgZm9udC1mYW1pbHk9InNhbnMtc2VyaWYiIGZvbnQtc2l6ZT0iMTQiIGxlbmd0aEFkanVzdD0ic3BhY2luZyIgdGV4dExlbmd0aD0iMjUyIiB4PSIzMDcuNTMiIHk9IjI3MC4xNDA2Ij5MaXN0Jmx0O0ZyaWVuZHNoaXAmZ3Q7IEZyaWVuZHNoaXBzUmVjZWl2ZWQ8L3RleHQ+PGxpbmUgc3R5bGU9InN0cm9rZTojMTgxODE4O3N0cm9rZS13aWR0aDowLjU7IiB4MT0iMjg4LjUzIiB4Mj0iNjEwLjUzIiB5MT0iMjc1Ljg5MDYiIHkyPSIyNzUuODkwNiIvPjwvZz48IS0tY2xhc3MgVXNlclJvbGUtLT48ZyBpZD0iZWxlbV9Vc2VyUm9sZSI+PHJlY3QgY29kZUxpbmU9IjExIiBmaWxsPSIjRjFGMUYxIiBoZWlnaHQ9IjYyLjk4NDQiIGlkPSJVc2VyUm9sZSIgcng9IjIuNSIgcnk9IjIuNSIgc3R5bGU9InN0cm9rZTojMTgxODE4O3N0cm9rZS13aWR0aDowLjU7IiB3aWR0aD0iODgiIHg9IjQwNS41MyIgeT0iNyIvPjxlbGxpcHNlIGN4PSI0MjAuNTMiIGN5PSIyMyIgZmlsbD0iI0FERDFCMiIgcng9IjExIiByeT0iMTEiIHN0eWxlPSJzdHJva2U6IzE4MTgxODtzdHJva2Utd2lkdGg6MS4wOyIvPjxwYXRoIGQ9Ik00MTguMTU1LDI3LjI1IEw0MTguMTU1LDI5IEw0MjMuMDkyNSwyOSBMNDIzLjA5MjUsMjcuMjUgTDQxOC4xNTUsMjcuMjUgWiBNNDE4Ljg0MjUsMjcuOTM3NSBRNDE4Ljg0MjUsMjcuOTM3NSA0MTguODQyNSwxOC43NSBMNDE3LjA5MjUsMTguNzUgUTQxNy4wOTI1LDE4Ljc1IDQxNy4wOTI1LDI3LjkzNzUgTDQxOC44NDI1LDI3LjkzNzUgWiBNNDIyLjQwNSwyNy45Mzc1IEw0MjQuMTU1LDI3LjkzNzUgUTQyNC4xNTUsMjcuOTM3NSA0MjQuMTU1LDI1LjEyNSBMNDIyLjQwNSwyNS4xMjUgUTQyMi40MDUsMjUuMTI1IDQyMi40MDUsMjcuOTM3NSBaIE00MjIuNDA1LDE4Ljc1IFE0MjIuNDA1LDE4Ljc1IDQyMi40MDUsMjEuNTYyNSBMNDI0LjE1NSwyMS41NjI1IFE0MjQuMTU1LDIxLjU2MjUgNDI0LjE1NSwxOC43NSBMNDIyLjQwNSwxOC43NSBaIE00MTguMTU1LDE5LjQzNzUgTDQyMy4wOTI1LDE5LjQzNzUgTDQyMy4wOTI1LDE3LjY4NzUgTDQxOC4xNTUsMTcuNjg3NSBMNDE4LjE1NSwxOS40Mzc1IFogIiBmaWxsPSIjMDAwMDAwIi8+PHRleHQgZmlsbD0iIzAwMDAwMCIgZm9udC1mYW1pbHk9InNhbnMtc2VyaWYiIGZvbnQtc2l6ZT0iMTQiIGxlbmd0aEFkanVzdD0ic3BhY2luZyIgdGV4dExlbmd0aD0iNTYiIHg9IjQzNC41MyIgeT0iMjguNzQyMiI+VXNlclJvbGU8L3RleHQ+PGxpbmUgc3R5bGU9InN0cm9rZTojMTgxODE4O3N0cm9rZS13aWR0aDowLjU7IiB4MT0iNDA2LjUzIiB4Mj0iNDkyLjUzIiB5MT0iMzkiIHkyPSIzOSIvPjxlbGxpcHNlIGN4PSI0MTYuNTMiIGN5PSI1MS45OTIyIiBmaWxsPSJub25lIiByeD0iMyIgcnk9IjMiIHN0eWxlPSJzdHJva2U6IzAzODA0ODtzdHJva2Utd2lkdGg6MS4wOyIvPjx0ZXh0IGZpbGw9IiMwMDAwMDAiIGZvbnQtZmFtaWx5PSJzYW5zLXNlcmlmIiBmb250LXNpemU9IjE0IiBsZW5ndGhBZGp1c3Q9InNwYWNpbmciIHRleHRMZW5ndGg9IjQ5IiB4PSI0MjUuNTMiIHk9IjU2LjIzNDQiPkd1aWQgSWQ8L3RleHQ+PGxpbmUgc3R5bGU9InN0cm9rZTojMTgxODE4O3N0cm9rZS13aWR0aDowLjU7IiB4MT0iNDA2LjUzIiB4Mj0iNDkyLjUzIiB5MT0iNjEuOTg0NCIgeTI9IjYxLjk4NDQiLz48L2c+PCEtLWNsYXNzIENvdW50cnktLT48ZyBpZD0iZWxlbV9Db3VudHJ5Ij48cmVjdCBjb2RlTGluZT0iMTUiIGZpbGw9IiNGMUYxRjEiIGhlaWdodD0iNzcuOTY4OCIgaWQ9IkNvdW50cnkiIHJ4PSIyLjUiIHJ5PSIyLjUiIHN0eWxlPSJzdHJva2U6IzE4MTgxODtzdHJva2Utd2lkdGg6MC41OyIgd2lkdGg9IjEwNCIgeD0iODI0LjUzIiB5PSIxNjguNSIvPjxlbGxpcHNlIGN4PSI4NDkuODgiIGN5PSIxODQuNSIgZmlsbD0iI0FERDFCMiIgcng9IjExIiByeT0iMTEiIHN0eWxlPSJzdHJva2U6IzE4MTgxODtzdHJva2Utd2lkdGg6MS4wOyIvPjxwYXRoIGQ9Ik04NDcuNTA1LDE4OC43NSBMODQ3LjUwNSwxOTAuNSBMODUyLjQ0MjUsMTkwLjUgTDg1Mi40NDI1LDE4OC43NSBMODQ3LjUwNSwxODguNzUgWiBNODQ4LjE5MjUsMTg5LjQzNzUgUTg0OC4xOTI1LDE4OS40Mzc1IDg0OC4xOTI1LDE4MC4yNSBMODQ2LjQ0MjUsMTgwLjI1IFE4NDYuNDQyNSwxODAuMjUgODQ2LjQ0MjUsMTg5LjQzNzUgTDg0OC4xOTI1LDE4OS40Mzc1IFogTTg1MS43NTUsMTg5LjQzNzUgTDg1My41MDUsMTg5LjQzNzUgUTg1My41MDUsMTg5LjQzNzUgODUzLjUwNSwxODYuNjI1IEw4NTEuNzU1LDE4Ni42MjUgUTg1MS43NTUsMTg2LjYyNSA4NTEuNzU1LDE4OS40Mzc1IFogTTg1MS43NTUsMTgwLjI1IFE4NTEuNzU1LDE4MC4yNSA4NTEuNzU1LDE4My4wNjI1IEw4NTMuNTA1LDE4My4wNjI1IFE4NTMuNTA1LDE4My4wNjI1IDg1My41MDUsMTgwLjI1IEw4NTEuNzU1LDE4MC4yNSBaIE04NDcuNTA1LDE4MC45Mzc1IEw4NTIuNDQyNSwxODAuOTM3NSBMODUyLjQ0MjUsMTc5LjE4NzUgTDg0Ny41MDUsMTc5LjE4NzUgTDg0Ny41MDUsMTgwLjkzNzUgWiAiIGZpbGw9IiMwMDAwMDAiLz48dGV4dCBmaWxsPSIjMDAwMDAwIiBmb250LWZhbWlseT0ic2Fucy1zZXJpZiIgZm9udC1zaXplPSIxNCIgbGVuZ3RoQWRqdXN0PSJzcGFjaW5nIiB0ZXh0TGVuZ3RoPSI0OSIgeD0iODY2LjE4IiB5PSIxOTAuMjQyMiI+Q291bnRyeTwvdGV4dD48bGluZSBzdHlsZT0ic3Ryb2tlOiMxODE4MTg7c3Ryb2tlLXdpZHRoOjAuNTsiIHgxPSI4MjUuNTMiIHgyPSI5MjcuNTMiIHkxPSIyMDAuNSIgeTI9IjIwMC41Ii8+PGVsbGlwc2UgY3g9IjgzNS41MyIgY3k9IjIxMy40OTIyIiBmaWxsPSJub25lIiByeD0iMyIgcnk9IjMiIHN0eWxlPSJzdHJva2U6IzAzODA0ODtzdHJva2Utd2lkdGg6MS4wOyIvPjx0ZXh0IGZpbGw9IiMwMDAwMDAiIGZvbnQtZmFtaWx5PSJzYW5zLXNlcmlmIiBmb250LXNpemU9IjE0IiBsZW5ndGhBZGp1c3Q9InNwYWNpbmciIHRleHRMZW5ndGg9IjQ5IiB4PSI4NDQuNTMiIHk9IjIxNy43MzQ0Ij5HdWlkIElkPC90ZXh0PjxlbGxpcHNlIGN4PSI4MzUuNTMiIGN5PSIyMjguNDc2NiIgZmlsbD0ibm9uZSIgcng9IjMiIHJ5PSIzIiBzdHlsZT0ic3Ryb2tlOiMwMzgwNDg7c3Ryb2tlLXdpZHRoOjEuMDsiLz48dGV4dCBmaWxsPSIjMDAwMDAwIiBmb250LWZhbWlseT0ic2Fucy1zZXJpZiIgZm9udC1zaXplPSIxNCIgbGVuZ3RoQWRqdXN0PSJzcGFjaW5nIiB0ZXh0TGVuZ3RoPSI3OCIgeD0iODQ0LjUzIiB5PSIyMzIuNzE4OCI+c3RyaW5nIE5hbWU8L3RleHQ+PGxpbmUgc3R5bGU9InN0cm9rZTojMTgxODE4O3N0cm9rZS13aWR0aDowLjU7IiB4MT0iODI1LjUzIiB4Mj0iOTI3LjUzIiB5MT0iMjM4LjQ2ODgiIHkyPSIyMzguNDY4OCIvPjwvZz48IS0tY2xhc3MgQXR0cmFjdGlvblR5cGUtLT48ZyBpZD0iZWxlbV9BdHRyYWN0aW9uVHlwZSI+PHJlY3QgY29kZUxpbmU9IjIwIiBmaWxsPSIjRjFGMUYxIiBoZWlnaHQ9IjkyLjk1MzEiIGlkPSJBdHRyYWN0aW9uVHlwZSIgcng9IjIuNSIgcnk9IjIuNSIgc3R5bGU9InN0cm9rZTojMTgxODE4O3N0cm9rZS13aWR0aDowLjU7IiB3aWR0aD0iMjIyIiB4PSI5NjMuNTMiIHk9IjE2MSIvPjxlbGxpcHNlIGN4PSIxMDIxLjI4IiBjeT0iMTc3IiBmaWxsPSIjQUREMUIyIiByeD0iMTEiIHJ5PSIxMSIgc3R5bGU9InN0cm9rZTojMTgxODE4O3N0cm9rZS13aWR0aDoxLjA7Ii8+PHBhdGggZD0iTTEwMTguOTA1LDE4MS4yNSBMMTAxOC45MDUsMTgzIEwxMDIzLjg0MjUsMTgzIEwxMDIzLjg0MjUsMTgxLjI1IEwxMDE4LjkwNSwxODEuMjUgWiBNMTAxOS41OTI1LDE4MS45Mzc1IFExMDE5LjU5MjUsMTgxLjkzNzUgMTAxOS41OTI1LDE3Mi43NSBMMTAxNy44NDI1LDE3Mi43NSBRMTAxNy44NDI1LDE3Mi43NSAxMDE3Ljg0MjUsMTgxLjkzNzUgTDEwMTkuNTkyNSwxODEuOTM3NSBaIE0xMDIzLjE1NSwxODEuOTM3NSBMMTAyNC45MDUsMTgxLjkzNzUgUTEwMjQuOTA1LDE4MS45Mzc1IDEwMjQuOTA1LDE3OS4xMjUgTDEwMjMuMTU1LDE3OS4xMjUgUTEwMjMuMTU1LDE3OS4xMjUgMTAyMy4xNTUsMTgxLjkzNzUgWiBNMTAyMy4xNTUsMTcyLjc1IFExMDIzLjE1NSwxNzIuNzUgMTAyMy4xNTUsMTc1LjU2MjUgTDEwMjQuOTA1LDE3NS41NjI1IFExMDI0LjkwNSwxNzUuNTYyNSAxMDI0LjkwNSwxNzIuNzUgTDEwMjMuMTU1LDE3Mi43NSBaIE0xMDE4LjkwNSwxNzMuNDM3NSBMMTAyMy44NDI1LDE3My40Mzc1IEwxMDIzLjg0MjUsMTcxLjY4NzUgTDEwMTguOTA1LDE3MS42ODc1IEwxMDE4LjkwNSwxNzMuNDM3NSBaICIgZmlsbD0iIzAwMDAwMCIvPjx0ZXh0IGZpbGw9IiMwMDAwMDAiIGZvbnQtZmFtaWx5PSJzYW5zLXNlcmlmIiBmb250LXNpemU9IjE0IiBsZW5ndGhBZGp1c3Q9InNwYWNpbmciIHRleHRMZW5ndGg9Ijk4IiB4PSIxMDQxLjc4IiB5PSIxODIuNzQyMiI+QXR0cmFjdGlvblR5cGU8L3RleHQ+PGxpbmUgc3R5bGU9InN0cm9rZTojMTgxODE4O3N0cm9rZS13aWR0aDowLjU7IiB4MT0iOTY0LjUzIiB4Mj0iMTE4NC41MyIgeTE9IjE5MyIgeTI9IjE5MyIvPjxlbGxpcHNlIGN4PSI5NzQuNTMiIGN5PSIyMDUuOTkyMiIgZmlsbD0ibm9uZSIgcng9IjMiIHJ5PSIzIiBzdHlsZT0ic3Ryb2tlOiMwMzgwNDg7c3Ryb2tlLXdpZHRoOjEuMDsiLz48dGV4dCBmaWxsPSIjMDAwMDAwIiBmb250LWZhbWlseT0ic2Fucy1zZXJpZiIgZm9udC1zaXplPSIxNCIgbGVuZ3RoQWRqdXN0PSJzcGFjaW5nIiB0ZXh0TGVuZ3RoPSI0OSIgeD0iOTgzLjUzIiB5PSIyMTAuMjM0NCI+R3VpZCBJZDwvdGV4dD48ZWxsaXBzZSBjeD0iOTc0LjUzIiBjeT0iMjIwLjk3NjYiIGZpbGw9Im5vbmUiIHJ4PSIzIiByeT0iMyIgc3R5bGU9InN0cm9rZTojMDM4MDQ4O3N0cm9rZS13aWR0aDoxLjA7Ii8+PHRleHQgZmlsbD0iIzAwMDAwMCIgZm9udC1mYW1pbHk9InNhbnMtc2VyaWYiIGZvbnQtc2l6ZT0iMTQiIGxlbmd0aEFkanVzdD0ic3BhY2luZyIgdGV4dExlbmd0aD0iNzgiIHg9Ijk4My41MyIgeT0iMjI1LjIxODgiPnN0cmluZyBOYW1lPC90ZXh0PjxlbGxpcHNlIGN4PSI5NzQuNTMiIGN5PSIyMzUuOTYwOSIgZmlsbD0ibm9uZSIgcng9IjMiIHJ5PSIzIiBzdHlsZT0ic3Ryb2tlOiMwMzgwNDg7c3Ryb2tlLXdpZHRoOjEuMDsiLz48dGV4dCBmaWxsPSIjMDAwMDAwIiBmb250LWZhbWlseT0ic2Fucy1zZXJpZiIgZm9udC1zaXplPSIxNCIgbGVuZ3RoQWRqdXN0PSJzcGFjaW5nIiB0ZXh0TGVuZ3RoPSIxOTYiIHg9Ijk4My41MyIgeT0iMjQwLjIwMzEiPkxpc3QmbHQ7QXR0cmFjdGlvbiZndDsgQXR0cmFjdGlvbnM8L3RleHQ+PGxpbmUgc3R5bGU9InN0cm9rZTojMTgxODE4O3N0cm9rZS13aWR0aDowLjU7IiB4MT0iOTY0LjUzIiB4Mj0iMTE4NC41MyIgeTE9IjI0NS45NTMxIiB5Mj0iMjQ1Ljk1MzEiLz48L2c+PCEtLWNsYXNzIEF0dHJhY3Rpb24tLT48ZyBpZD0iZWxlbV9BdHRyYWN0aW9uIj48cmVjdCBjb2RlTGluZT0iMjYiIGZpbGw9IiNGMUYxRjEiIGhlaWdodD0iMjg3Ljc1IiBpZD0iQXR0cmFjdGlvbiIgcng9IjIuNSIgcnk9IjIuNSIgc3R5bGU9InN0cm9rZTojMTgxODE4O3N0cm9rZS13aWR0aDowLjU7IiB3aWR0aD0iMjU0IiB4PSI3NjkuNTMiIHk9IjM1OSIvPjxlbGxpcHNlIGN4PSI4NTcuMjgiIGN5PSIzNzUiIGZpbGw9IiNBREQxQjIiIHJ4PSIxMSIgcnk9IjExIiBzdHlsZT0ic3Ryb2tlOiMxODE4MTg7c3Ryb2tlLXdpZHRoOjEuMDsiLz48cGF0aCBkPSJNODU0LjkwNSwzNzkuMjUgTDg1NC45MDUsMzgxIEw4NTkuODQyNSwzODEgTDg1OS44NDI1LDM3OS4yNSBMODU0LjkwNSwzNzkuMjUgWiBNODU1LjU5MjUsMzc5LjkzNzUgUTg1NS41OTI1LDM3OS45Mzc1IDg1NS41OTI1LDM3MC43NSBMODUzLjg0MjUsMzcwLjc1IFE4NTMuODQyNSwzNzAuNzUgODUzLjg0MjUsMzc5LjkzNzUgTDg1NS41OTI1LDM3OS45Mzc1IFogTTg1OS4xNTUsMzc5LjkzNzUgTDg2MC45MDUsMzc5LjkzNzUgUTg2MC45MDUsMzc5LjkzNzUgODYwLjkwNSwzNzcuMTI1IEw4NTkuMTU1LDM3Ny4xMjUgUTg1OS4xNTUsMzc3LjEyNSA4NTkuMTU1LDM3OS45Mzc1IFogTTg1OS4xNTUsMzcwLjc1IFE4NTkuMTU1LDM3MC43NSA4NTkuMTU1LDM3My41NjI1IEw4NjAuOTA1LDM3My41NjI1IFE4NjAuOTA1LDM3My41NjI1IDg2MC45MDUsMzcwLjc1IEw4NTkuMTU1LDM3MC43NSBaIE04NTQuOTA1LDM3MS40Mzc1IEw4NTkuODQyNSwzNzEuNDM3NSBMODU5Ljg0MjUsMzY5LjY4NzUgTDg1NC45MDUsMzY5LjY4NzUgTDg1NC45MDUsMzcxLjQzNzUgWiAiIGZpbGw9IiMwMDAwMDAiLz48dGV4dCBmaWxsPSIjMDAwMDAwIiBmb250LWZhbWlseT0ic2Fucy1zZXJpZiIgZm9udC1zaXplPSIxNCIgbGVuZ3RoQWRqdXN0PSJzcGFjaW5nIiB0ZXh0TGVuZ3RoPSI3MCIgeD0iODc3Ljc4IiB5PSIzODAuNzQyMiI+QXR0cmFjdGlvbjwvdGV4dD48bGluZSBzdHlsZT0ic3Ryb2tlOiMxODE4MTg7c3Ryb2tlLXdpZHRoOjAuNTsiIHgxPSI3NzAuNTMiIHgyPSIxMDIyLjUzIiB5MT0iMzkxIiB5Mj0iMzkxIi8+PGVsbGlwc2UgY3g9Ijc4MC41MyIgY3k9IjQwMy45OTIyIiBmaWxsPSJub25lIiByeD0iMyIgcnk9IjMiIHN0eWxlPSJzdHJva2U6IzAzODA0ODtzdHJva2Utd2lkdGg6MS4wOyIvPjx0ZXh0IGZpbGw9IiMwMDAwMDAiIGZvbnQtZmFtaWx5PSJzYW5zLXNlcmlmIiBmb250LXNpemU9IjE0IiBsZW5ndGhBZGp1c3Q9InNwYWNpbmciIHRleHRMZW5ndGg9IjQ5IiB4PSI3ODkuNTMiIHk9IjQwOC4yMzQ0Ij5HdWlkIElkPC90ZXh0PjxlbGxpcHNlIGN4PSI3ODAuNTMiIGN5PSI0MTguOTc2NiIgZmlsbD0ibm9uZSIgcng9IjMiIHJ5PSIzIiBzdHlsZT0ic3Ryb2tlOiMwMzgwNDg7c3Ryb2tlLXdpZHRoOjEuMDsiLz48dGV4dCBmaWxsPSIjMDAwMDAwIiBmb250LWZhbWlseT0ic2Fucy1zZXJpZiIgZm9udC1zaXplPSIxNCIgbGVuZ3RoQWRqdXN0PSJzcGFjaW5nIiB0ZXh0TGVuZ3RoPSI3OCIgeD0iNzg5LjUzIiB5PSI0MjMuMjE4OCI+c3RyaW5nIE5hbWU8L3RleHQ+PGVsbGlwc2UgY3g9Ijc4MC41MyIgY3k9IjQzMy45NjA5IiBmaWxsPSJub25lIiByeD0iMyIgcnk9IjMiIHN0eWxlPSJzdHJva2U6IzAzODA0ODtzdHJva2Utd2lkdGg6MS4wOyIvPjx0ZXh0IGZpbGw9IiMwMDAwMDAiIGZvbnQtZmFtaWx5PSJzYW5zLXNlcmlmIiBmb250LXNpemU9IjE0IiBsZW5ndGhBZGp1c3Q9InNwYWNpbmciIHRleHRMZW5ndGg9IjEyNiIgeD0iNzg5LjUzIiB5PSI0MzguMjAzMSI+c3RyaW5nIERlc2NyaXB0aW9uPC90ZXh0PjxlbGxpcHNlIGN4PSI3ODAuNTMiIGN5PSI0NDguOTQ1MyIgZmlsbD0ibm9uZSIgcng9IjMiIHJ5PSIzIiBzdHlsZT0ic3Ryb2tlOiMwMzgwNDg7c3Ryb2tlLXdpZHRoOjEuMDsiLz48dGV4dCBmaWxsPSIjMDAwMDAwIiBmb250LWZhbWlseT0ic2Fucy1zZXJpZiIgZm9udC1zaXplPSIxNCIgbGVuZ3RoQWRqdXN0PSJzcGFjaW5nIiB0ZXh0TGVuZ3RoPSI5OCIgeD0iNzg5LjUzIiB5PSI0NTMuMTg3NSI+c3RyaW5nIEFkZHJlc3M8L3RleHQ+PGVsbGlwc2UgY3g9Ijc4MC41MyIgY3k9IjQ2My45Mjk3IiBmaWxsPSJub25lIiByeD0iMyIgcnk9IjMiIHN0eWxlPSJzdHJva2U6IzAzODA0ODtzdHJva2Utd2lkdGg6MS4wOyIvPjx0ZXh0IGZpbGw9IiMwMDAwMDAiIGZvbnQtZmFtaWx5PSJzYW5zLXNlcmlmIiBmb250LXNpemU9IjE0IiBsZW5ndGhBZGp1c3Q9InNwYWNpbmciIHRleHRMZW5ndGg9Ijk4IiB4PSI3ODkuNTMiIHk9IjQ2OC4xNzE5Ij5zdHJpbmcgV2Vic2l0ZTwvdGV4dD48ZWxsaXBzZSBjeD0iNzgwLjUzIiBjeT0iNDc4LjkxNDEiIGZpbGw9Im5vbmUiIHJ4PSIzIiByeT0iMyIgc3R5bGU9InN0cm9rZTojMDM4MDQ4O3N0cm9rZS13aWR0aDoxLjA7Ii8+PHRleHQgZmlsbD0iIzAwMDAwMCIgZm9udC1mYW1pbHk9InNhbnMtc2VyaWYiIGZvbnQtc2l6ZT0iMTQiIGxlbmd0aEFkanVzdD0ic3BhY2luZyIgdGV4dExlbmd0aD0iNzciIHg9Ijc4OS41MyIgeT0iNDgzLjE1NjMiPnN0cmluZyBDaXR5PC90ZXh0PjxlbGxpcHNlIGN4PSI3ODAuNTMiIGN5PSI0OTMuODk4NCIgZmlsbD0ibm9uZSIgcng9IjMiIHJ5PSIzIiBzdHlsZT0ic3Ryb2tlOiMwMzgwNDg7c3Ryb2tlLXdpZHRoOjEuMDsiLz48dGV4dCBmaWxsPSIjMDAwMDAwIiBmb250LWZhbWlseT0ic2Fucy1zZXJpZiIgZm9udC1zaXplPSIxNCIgbGVuZ3RoQWRqdXN0PSJzcGFjaW5nIiB0ZXh0TGVuZ3RoPSI5OCIgeD0iNzg5LjUzIiB5PSI0OTguMTQwNiI+R3VpZCBDb3VudHJ5SWQ8L3RleHQ+PGVsbGlwc2UgY3g9Ijc4MC41MyIgY3k9IjUwOC44ODI4IiBmaWxsPSJub25lIiByeD0iMyIgcnk9IjMiIHN0eWxlPSJzdHJva2U6IzAzODA0ODtzdHJva2Utd2lkdGg6MS4wOyIvPjx0ZXh0IGZpbGw9IiMwMDAwMDAiIGZvbnQtZmFtaWx5PSJzYW5zLXNlcmlmIiBmb250LXNpemU9IjE0IiBsZW5ndGhBZGp1c3Q9InNwYWNpbmciIHRleHRMZW5ndGg9IjE0NyIgeD0iNzg5LjUzIiB5PSI1MTMuMTI1Ij5HdWlkIEF0dHJhY3Rpb25UeXBlSWQ8L3RleHQ+PGVsbGlwc2UgY3g9Ijc4MC41MyIgY3k9IjUyMy44NjcyIiBmaWxsPSJub25lIiByeD0iMyIgcnk9IjMiIHN0eWxlPSJzdHJva2U6IzAzODA0ODtzdHJva2Utd2lkdGg6MS4wOyIvPjx0ZXh0IGZpbGw9IiMwMDAwMDAiIGZvbnQtZmFtaWx5PSJzYW5zLXNlcmlmIiBmb250LXNpemU9IjE0IiBsZW5ndGhBZGp1c3Q9InNwYWNpbmciIHRleHRMZW5ndGg9Ijk4IiB4PSI3ODkuNTMiIHk9IjUyOC4xMDk0Ij5HdWlkIENyZWF0b3JJZDwvdGV4dD48ZWxsaXBzZSBjeD0iNzgwLjUzIiBjeT0iNTM4Ljg1MTYiIGZpbGw9Im5vbmUiIHJ4PSIzIiByeT0iMyIgc3R5bGU9InN0cm9rZTojMDM4MDQ4O3N0cm9rZS13aWR0aDoxLjA7Ii8+PHRleHQgZmlsbD0iIzAwMDAwMCIgZm9udC1mYW1pbHk9InNhbnMtc2VyaWYiIGZvbnQtc2l6ZT0iMTQiIGxlbmd0aEFkanVzdD0ic3BhY2luZyIgdGV4dExlbmd0aD0iMTEyIiB4PSI3ODkuNTMiIHk9IjU0My4wOTM4Ij5zdHJpbmcgUGhvdG9zQ3N2PC90ZXh0PjxlbGxpcHNlIGN4PSI3ODAuNTMiIGN5PSI1NTMuODM1OSIgZmlsbD0ibm9uZSIgcng9IjMiIHJ5PSIzIiBzdHlsZT0ic3Ryb2tlOiMwMzgwNDg7c3Ryb2tlLXdpZHRoOjEuMDsiLz48dGV4dCBmaWxsPSIjMDAwMDAwIiBmb250LWZhbWlseT0ic2Fucy1zZXJpZiIgZm9udC1zaXplPSIxNCIgbGVuZ3RoQWRqdXN0PSJzcGFjaW5nIiB0ZXh0TGVuZ3RoPSIxNjgiIHg9Ijc4OS41MyIgeT0iNTU4LjA3ODEiPkxpc3QmbHQ7UmVhY3Rpb24mZ3Q7IFJlYWN0aW9uczwvdGV4dD48ZWxsaXBzZSBjeD0iNzgwLjUzIiBjeT0iNTY4LjgyMDMiIGZpbGw9Im5vbmUiIHJ4PSIzIiByeT0iMyIgc3R5bGU9InN0cm9rZTojMDM4MDQ4O3N0cm9rZS13aWR0aDoxLjA7Ii8+PHRleHQgZmlsbD0iIzAwMDAwMCIgZm9udC1mYW1pbHk9InNhbnMtc2VyaWYiIGZvbnQtc2l6ZT0iMTQiIGxlbmd0aEFkanVzdD0ic3BhY2luZyIgdGV4dExlbmd0aD0iMjI4IiB4PSI3ODkuNTMiIHk9IjU3My4wNjI1Ij5MaXN0Jmx0O0F0dHJhY3Rpb25Db21tZW50Jmd0OyBDb21tZW50czwvdGV4dD48ZWxsaXBzZSBjeD0iNzgwLjUzIiBjeT0iNTgzLjgwNDciIGZpbGw9Im5vbmUiIHJ4PSIzIiByeT0iMyIgc3R5bGU9InN0cm9rZTojMDM4MDQ4O3N0cm9rZS13aWR0aDoxLjA7Ii8+PHRleHQgZmlsbD0iIzAwMDAwMCIgZm9udC1mYW1pbHk9InNhbnMtc2VyaWYiIGZvbnQtc2l6ZT0iMTQiIGxlbmd0aEFkanVzdD0ic3BhY2luZyIgdGV4dExlbmd0aD0iMTA1IiB4PSI3ODkuNTMiIHk9IjU4OC4wNDY5Ij5Db3VudHJ5IENvdW50cnk8L3RleHQ+PGVsbGlwc2UgY3g9Ijc4MC41MyIgY3k9IjU5OC43ODkxIiBmaWxsPSJub25lIiByeD0iMyIgcnk9IjMiIHN0eWxlPSJzdHJva2U6IzAzODA0ODtzdHJva2Utd2lkdGg6MS4wOyIvPjx0ZXh0IGZpbGw9IiMwMDAwMDAiIGZvbnQtZmFtaWx5PSJzYW5zLXNlcmlmIiBmb250LXNpemU9IjE0IiBsZW5ndGhBZGp1c3Q9InNwYWNpbmciIHRleHRMZW5ndGg9IjIwMyIgeD0iNzg5LjUzIiB5PSI2MDMuMDMxMyI+QXR0cmFjdGlvblR5cGUgQXR0cmFjdGlvblR5cGU8L3RleHQ+PGVsbGlwc2UgY3g9Ijc4MC41MyIgY3k9IjYxMy43NzM0IiBmaWxsPSJub25lIiByeD0iMyIgcnk9IjMiIHN0eWxlPSJzdHJva2U6IzAzODA0ODtzdHJva2Utd2lkdGg6MS4wOyIvPjx0ZXh0IGZpbGw9IiMwMDAwMDAiIGZvbnQtZmFtaWx5PSJzYW5zLXNlcmlmIiBmb250LXNpemU9IjE0IiBsZW5ndGhBZGp1c3Q9InNwYWNpbmciIHRleHRMZW5ndGg9Ijg0IiB4PSI3ODkuNTMiIHk9IjYxOC4wMTU2Ij5Vc2VyIENyZWF0b3I8L3RleHQ+PGVsbGlwc2UgY3g9Ijc4MC41MyIgY3k9IjYyOC43NTc4IiBmaWxsPSJub25lIiByeD0iMyIgcnk9IjMiIHN0eWxlPSJzdHJva2U6IzAzODA0ODtzdHJva2Utd2lkdGg6MS4wOyIvPjx0ZXh0IGZpbGw9IiMwMDAwMDAiIGZvbnQtZmFtaWx5PSJzYW5zLXNlcmlmIiBmb250LXNpemU9IjE0IiBsZW5ndGhBZGp1c3Q9InNwYWNpbmciIHRleHRMZW5ndGg9IjEzMyIgeD0iNzg5LjUzIiB5PSI2MzMiPkxpc3QmbHQ7c3RyaW5nJmd0OyBQaG90b3M8L3RleHQ+PGxpbmUgc3R5bGU9InN0cm9rZTojMTgxODE4O3N0cm9rZS13aWR0aDowLjU7IiB4MT0iNzcwLjUzIiB4Mj0iMTAyMi41MyIgeTE9IjYzOC43NSIgeTI9IjYzOC43NSIvPjwvZz48IS0tY2xhc3MgUmVhY3Rpb24tLT48ZyBpZD0iZWxlbV9SZWFjdGlvbiI+PHJlY3QgY29kZUxpbmU9IjQ1IiBmaWxsPSIjRjFGMUYxIiBoZWlnaHQ9IjEyMi45MjE5IiBpZD0iUmVhY3Rpb24iIHJ4PSIyLjUiIHJ5PSIyLjUiIHN0eWxlPSJzdHJva2U6IzE4MTgxODtzdHJva2Utd2lkdGg6MC41OyIgd2lkdGg9IjE3MyIgeD0iMzU1LjAzIiB5PSI3MjkuNSIvPjxlbGxpcHNlIGN4PSI0MDkuMjgiIGN5PSI3NDUuNSIgZmlsbD0iI0FERDFCMiIgcng9IjExIiByeT0iMTEiIHN0eWxlPSJzdHJva2U6IzE4MTgxODtzdHJva2Utd2lkdGg6MS4wOyIvPjxwYXRoIGQ9Ik00MDYuOTA1LDc0OS43NSBMNDA2LjkwNSw3NTEuNSBMNDExLjg0MjUsNzUxLjUgTDQxMS44NDI1LDc0OS43NSBMNDA2LjkwNSw3NDkuNzUgWiBNNDA3LjU5MjUsNzUwLjQzNzUgUTQwNy41OTI1LDc1MC40Mzc1IDQwNy41OTI1LDc0MS4yNSBMNDA1Ljg0MjUsNzQxLjI1IFE0MDUuODQyNSw3NDEuMjUgNDA1Ljg0MjUsNzUwLjQzNzUgTDQwNy41OTI1LDc1MC40Mzc1IFogTTQxMS4xNTUsNzUwLjQzNzUgTDQxMi45MDUsNzUwLjQzNzUgUTQxMi45MDUsNzUwLjQzNzUgNDEyLjkwNSw3NDcuNjI1IEw0MTEuMTU1LDc0Ny42MjUgUTQxMS4xNTUsNzQ3LjYyNSA0MTEuMTU1LDc1MC40Mzc1IFogTTQxMS4xNTUsNzQxLjI1IFE0MTEuMTU1LDc0MS4yNSA0MTEuMTU1LDc0NC4wNjI1IEw0MTIuOTA1LDc0NC4wNjI1IFE0MTIuOTA1LDc0NC4wNjI1IDQxMi45MDUsNzQxLjI1IEw0MTEuMTU1LDc0MS4yNSBaIE00MDYuOTA1LDc0MS45Mzc1IEw0MTEuODQyNSw3NDEuOTM3NSBMNDExLjg0MjUsNzQwLjE4NzUgTDQwNi45MDUsNzQwLjE4NzUgTDQwNi45MDUsNzQxLjkzNzUgWiAiIGZpbGw9IiMwMDAwMDAiLz48dGV4dCBmaWxsPSIjMDAwMDAwIiBmb250LWZhbWlseT0ic2Fucy1zZXJpZiIgZm9udC1zaXplPSIxNCIgbGVuZ3RoQWRqdXN0PSJzcGFjaW5nIiB0ZXh0TGVuZ3RoPSI1NiIgeD0iNDI5Ljc4IiB5PSI3NTEuMjQyMiI+UmVhY3Rpb248L3RleHQ+PGxpbmUgc3R5bGU9InN0cm9rZTojMTgxODE4O3N0cm9rZS13aWR0aDowLjU7IiB4MT0iMzU2LjAzIiB4Mj0iNTI3LjAzIiB5MT0iNzYxLjUiIHkyPSI3NjEuNSIvPjxlbGxpcHNlIGN4PSIzNjYuMDMiIGN5PSI3NzQuNDkyMiIgZmlsbD0ibm9uZSIgcng9IjMiIHJ5PSIzIiBzdHlsZT0ic3Ryb2tlOiMwMzgwNDg7c3Ryb2tlLXdpZHRoOjEuMDsiLz48dGV4dCBmaWxsPSIjMDAwMDAwIiBmb250LWZhbWlseT0ic2Fucy1zZXJpZiIgZm9udC1zaXplPSIxNCIgbGVuZ3RoQWRqdXN0PSJzcGFjaW5nIiB0ZXh0TGVuZ3RoPSI3NyIgeD0iMzc1LjAzIiB5PSI3NzguNzM0NCI+R3VpZCBVc2VySWQ8L3RleHQ+PGVsbGlwc2UgY3g9IjM2Ni4wMyIgY3k9Ijc4OS40NzY2IiBmaWxsPSJub25lIiByeD0iMyIgcnk9IjMiIHN0eWxlPSJzdHJva2U6IzAzODA0ODtzdHJva2Utd2lkdGg6MS4wOyIvPjx0ZXh0IGZpbGw9IiMwMDAwMDAiIGZvbnQtZmFtaWx5PSJzYW5zLXNlcmlmIiBmb250LXNpemU9IjE0IiBsZW5ndGhBZGp1c3Q9InNwYWNpbmciIHRleHRMZW5ndGg9IjExOSIgeD0iMzc1LjAzIiB5PSI3OTMuNzE4OCI+R3VpZCBBdHRyYWN0aW9uSWQ8L3RleHQ+PGVsbGlwc2UgY3g9IjM2Ni4wMyIgY3k9IjgwNC40NjA5IiBmaWxsPSJub25lIiByeD0iMyIgcnk9IjMiIHN0eWxlPSJzdHJva2U6IzAzODA0ODtzdHJva2Utd2lkdGg6MS4wOyIvPjx0ZXh0IGZpbGw9IiMwMDAwMDAiIGZvbnQtZmFtaWx5PSJzYW5zLXNlcmlmIiBmb250LXNpemU9IjE0IiBsZW5ndGhBZGp1c3Q9InNwYWNpbmciIHRleHRMZW5ndGg9IjExOSIgeD0iMzc1LjAzIiB5PSI4MDguNzAzMSI+UmVhY3Rpb25UeXBlIFR5cGU8L3RleHQ+PGVsbGlwc2UgY3g9IjM2Ni4wMyIgY3k9IjgxOS40NDUzIiBmaWxsPSJub25lIiByeD0iMyIgcnk9IjMiIHN0eWxlPSJzdHJva2U6IzAzODA0ODtzdHJva2Utd2lkdGg6MS4wOyIvPjx0ZXh0IGZpbGw9IiMwMDAwMDAiIGZvbnQtZmFtaWx5PSJzYW5zLXNlcmlmIiBmb250LXNpemU9IjE0IiBsZW5ndGhBZGp1c3Q9InNwYWNpbmciIHRleHRMZW5ndGg9IjYzIiB4PSIzNzUuMDMiIHk9IjgyMy42ODc1Ij5Vc2VyIFVzZXI8L3RleHQ+PGVsbGlwc2UgY3g9IjM2Ni4wMyIgY3k9IjgzNC40Mjk3IiBmaWxsPSJub25lIiByeD0iMyIgcnk9IjMiIHN0eWxlPSJzdHJva2U6IzAzODA0ODtzdHJva2Utd2lkdGg6MS4wOyIvPjx0ZXh0IGZpbGw9IiMwMDAwMDAiIGZvbnQtZmFtaWx5PSJzYW5zLXNlcmlmIiBmb250LXNpemU9IjE0IiBsZW5ndGhBZGp1c3Q9InNwYWNpbmciIHRleHRMZW5ndGg9IjE0NyIgeD0iMzc1LjAzIiB5PSI4MzguNjcxOSI+QXR0cmFjdGlvbiBBdHRyYWN0aW9uPC90ZXh0PjxsaW5lIHN0eWxlPSJzdHJva2U6IzE4MTgxODtzdHJva2Utd2lkdGg6MC41OyIgeDE9IjM1Ni4wMyIgeDI9IjUyNy4wMyIgeTE9Ijg0NC40MjE5IiB5Mj0iODQ0LjQyMTkiLz48L2c+PCEtLWNsYXNzIEF0dHJhY3Rpb25Db21tZW50LS0+PGcgaWQ9ImVsZW1fQXR0cmFjdGlvbkNvbW1lbnQiPjxyZWN0IGNvZGVMaW5lPSI1MyIgZmlsbD0iI0YxRjFGMSIgaGVpZ2h0PSIxMjIuOTIxOSIgaWQ9IkF0dHJhY3Rpb25Db21tZW50IiByeD0iMi41IiByeT0iMi41IiBzdHlsZT0ic3Ryb2tlOiMxODE4MTg7c3Ryb2tlLXdpZHRoOjAuNTsiIHdpZHRoPSIxNzMiIHg9IjU2My4wMyIgeT0iNzI5LjUiLz48ZWxsaXBzZSBjeD0iNTg3LjAzIiBjeT0iNzQ1LjUiIGZpbGw9IiNBREQxQjIiIHJ4PSIxMSIgcnk9IjExIiBzdHlsZT0ic3Ryb2tlOiMxODE4MTg7c3Ryb2tlLXdpZHRoOjEuMDsiLz48cGF0aCBkPSJNNTg0LjY1NSw3NDkuNzUgTDU4NC42NTUsNzUxLjUgTDU4OS41OTI1LDc1MS41IEw1ODkuNTkyNSw3NDkuNzUgTDU4NC42NTUsNzQ5Ljc1IFogTTU4NS4zNDI1LDc1MC40Mzc1IFE1ODUuMzQyNSw3NTAuNDM3NSA1ODUuMzQyNSw3NDEuMjUgTDU4My41OTI1LDc0MS4yNSBRNTgzLjU5MjUsNzQxLjI1IDU4My41OTI1LDc1MC40Mzc1IEw1ODUuMzQyNSw3NTAuNDM3NSBaIE01ODguOTA1LDc1MC40Mzc1IEw1OTAuNjU1LDc1MC40Mzc1IFE1OTAuNjU1LDc1MC40Mzc1IDU5MC42NTUsNzQ3LjYyNSBMNTg4LjkwNSw3NDcuNjI1IFE1ODguOTA1LDc0Ny42MjUgNTg4LjkwNSw3NTAuNDM3NSBaIE01ODguOTA1LDc0MS4yNSBRNTg4LjkwNSw3NDEuMjUgNTg4LjkwNSw3NDQuMDYyNSBMNTkwLjY1NSw3NDQuMDYyNSBRNTkwLjY1NSw3NDQuMDYyNSA1OTAuNjU1LDc0MS4yNSBMNTg4LjkwNSw3NDEuMjUgWiBNNTg0LjY1NSw3NDEuOTM3NSBMNTg5LjU5MjUsNzQxLjkzNzUgTDU4OS41OTI1LDc0MC4xODc1IEw1ODQuNjU1LDc0MC4xODc1IEw1ODQuNjU1LDc0MS45Mzc1IFogIiBmaWxsPSIjMDAwMDAwIi8+PHRleHQgZmlsbD0iIzAwMDAwMCIgZm9udC1mYW1pbHk9InNhbnMtc2VyaWYiIGZvbnQtc2l6ZT0iMTQiIGxlbmd0aEFkanVzdD0ic3BhY2luZyIgdGV4dExlbmd0aD0iMTIxIiB4PSI2MDMuMDMiIHk9Ijc1MS4yNDIyIj5BdHRyYWN0aW9uQ29tbWVudDwvdGV4dD48bGluZSBzdHlsZT0ic3Ryb2tlOiMxODE4MTg7c3Ryb2tlLXdpZHRoOjAuNTsiIHgxPSI1NjQuMDMiIHgyPSI3MzUuMDMiIHkxPSI3NjEuNSIgeTI9Ijc2MS41Ii8+PGVsbGlwc2UgY3g9IjU3NC4wMyIgY3k9Ijc3NC40OTIyIiBmaWxsPSJub25lIiByeD0iMyIgcnk9IjMiIHN0eWxlPSJzdHJva2U6IzAzODA0ODtzdHJva2Utd2lkdGg6MS4wOyIvPjx0ZXh0IGZpbGw9IiMwMDAwMDAiIGZvbnQtZmFtaWx5PSJzYW5zLXNlcmlmIiBmb250LXNpemU9IjE0IiBsZW5ndGhBZGp1c3Q9InNwYWNpbmciIHRleHRMZW5ndGg9IjQ5IiB4PSI1ODMuMDMiIHk9Ijc3OC43MzQ0Ij5HdWlkIElkPC90ZXh0PjxlbGxpcHNlIGN4PSI1NzQuMDMiIGN5PSI3ODkuNDc2NiIgZmlsbD0ibm9uZSIgcng9IjMiIHJ5PSIzIiBzdHlsZT0ic3Ryb2tlOiMwMzgwNDg7c3Ryb2tlLXdpZHRoOjEuMDsiLz48dGV4dCBmaWxsPSIjMDAwMDAwIiBmb250LWZhbWlseT0ic2Fucy1zZXJpZiIgZm9udC1zaXplPSIxNCIgbGVuZ3RoQWRqdXN0PSJzcGFjaW5nIiB0ZXh0TGVuZ3RoPSI3NyIgeD0iNTgzLjAzIiB5PSI3OTMuNzE4OCI+c3RyaW5nIEJvZHk8L3RleHQ+PGVsbGlwc2UgY3g9IjU3NC4wMyIgY3k9IjgwNC40NjA5IiBmaWxsPSJub25lIiByeD0iMyIgcnk9IjMiIHN0eWxlPSJzdHJva2U6IzAzODA0ODtzdHJva2Utd2lkdGg6MS4wOyIvPjx0ZXh0IGZpbGw9IiMwMDAwMDAiIGZvbnQtZmFtaWx5PSJzYW5zLXNlcmlmIiBmb250LXNpemU9IjE0IiBsZW5ndGhBZGp1c3Q9InNwYWNpbmciIHRleHRMZW5ndGg9IjEyNyIgeD0iNTgzLjAzIiB5PSI4MDguNzAzMSI+RGF0ZVRpbWUgQ3JlYXRlZEF0PC90ZXh0PjxlbGxpcHNlIGN4PSI1NzQuMDMiIGN5PSI4MTkuNDQ1MyIgZmlsbD0ibm9uZSIgcng9IjMiIHJ5PSIzIiBzdHlsZT0ic3Ryb2tlOiMwMzgwNDg7c3Ryb2tlLXdpZHRoOjEuMDsiLz48dGV4dCBmaWxsPSIjMDAwMDAwIiBmb250LWZhbWlseT0ic2Fucy1zZXJpZiIgZm9udC1zaXplPSIxNCIgbGVuZ3RoQWRqdXN0PSJzcGFjaW5nIiB0ZXh0TGVuZ3RoPSI3NyIgeD0iNTgzLjAzIiB5PSI4MjMuNjg3NSI+VXNlciBBdXRob3I8L3RleHQ+PGVsbGlwc2UgY3g9IjU3NC4wMyIgY3k9IjgzNC40Mjk3IiBmaWxsPSJub25lIiByeD0iMyIgcnk9IjMiIHN0eWxlPSJzdHJva2U6IzAzODA0ODtzdHJva2Utd2lkdGg6MS4wOyIvPjx0ZXh0IGZpbGw9IiMwMDAwMDAiIGZvbnQtZmFtaWx5PSJzYW5zLXNlcmlmIiBmb250LXNpemU9IjE0IiBsZW5ndGhBZGp1c3Q9InNwYWNpbmciIHRleHRMZW5ndGg9IjE0NyIgeD0iNTgzLjAzIiB5PSI4MzguNjcxOSI+QXR0cmFjdGlvbiBBdHRyYWN0aW9uPC90ZXh0PjxsaW5lIHN0eWxlPSJzdHJva2U6IzE4MTgxODtzdHJva2Utd2lkdGg6MC41OyIgeDE9IjU2NC4wMyIgeDI9IjczNS4wMyIgeTE9Ijg0NC40MjE5IiB5Mj0iODQ0LjQyMTkiLz48L2c+PCEtLWNsYXNzIEF0dHJhY3Rpb25zQ29sbGVjdGlvbi0tPjxnIGlkPSJlbGVtX0F0dHJhY3Rpb25zQ29sbGVjdGlvbiI+PHJlY3QgY29kZUxpbmU9IjYxIiBmaWxsPSIjRjFGMUYxIiBoZWlnaHQ9IjE4Mi44NTk0IiBpZD0iQXR0cmFjdGlvbnNDb2xsZWN0aW9uIiByeD0iMi41IiByeT0iMi41IiBzdHlsZT0ic3Ryb2tlOiMxODE4MTg7c3Ryb2tlLXdpZHRoOjAuNTsiIHdpZHRoPSIzNTciIHg9IjcxOC4wMyIgeT0iOTM1Ii8+PGVsbGlwc2UgY3g9IjgxOC43OCIgY3k9Ijk1MSIgZmlsbD0iI0FERDFCMiIgcng9IjExIiByeT0iMTEiIHN0eWxlPSJzdHJva2U6IzE4MTgxODtzdHJva2Utd2lkdGg6MS4wOyIvPjxwYXRoIGQ9Ik04MTYuNDA1LDk1NS4yNSBMODE2LjQwNSw5NTcgTDgyMS4zNDI1LDk1NyBMODIxLjM0MjUsOTU1LjI1IEw4MTYuNDA1LDk1NS4yNSBaIE04MTcuMDkyNSw5NTUuOTM3NSBRODE3LjA5MjUsOTU1LjkzNzUgODE3LjA5MjUsOTQ2Ljc1IEw4MTUuMzQyNSw5NDYuNzUgUTgxNS4zNDI1LDk0Ni43NSA4MTUuMzQyNSw5NTUuOTM3NSBMODE3LjA5MjUsOTU1LjkzNzUgWiBNODIwLjY1NSw5NTUuOTM3NSBMODIyLjQwNSw5NTUuOTM3NSBRODIyLjQwNSw5NTUuOTM3NSA4MjIuNDA1LDk1My4xMjUgTDgyMC42NTUsOTUzLjEyNSBRODIwLjY1NSw5NTMuMTI1IDgyMC42NTUsOTU1LjkzNzUgWiBNODIwLjY1NSw5NDYuNzUgUTgyMC42NTUsOTQ2Ljc1IDgyMC42NTUsOTQ5LjU2MjUgTDgyMi40MDUsOTQ5LjU2MjUgUTgyMi40MDUsOTQ5LjU2MjUgODIyLjQwNSw5NDYuNzUgTDgyMC42NTUsOTQ2Ljc1IFogTTgxNi40MDUsOTQ3LjQzNzUgTDgyMS4zNDI1LDk0Ny40Mzc1IEw4MjEuMzQyNSw5NDUuNjg3NSBMODE2LjQwNSw5NDUuNjg3NSBMODE2LjQwNSw5NDcuNDM3NSBaICIgZmlsbD0iIzAwMDAwMCIvPjx0ZXh0IGZpbGw9IiMwMDAwMDAiIGZvbnQtZmFtaWx5PSJzYW5zLXNlcmlmIiBmb250LXNpemU9IjE0IiBsZW5ndGhBZGp1c3Q9InNwYWNpbmciIHRleHRMZW5ndGg9IjE0NyIgeD0iODM5LjI4IiB5PSI5NTYuNzQyMiI+QXR0cmFjdGlvbnNDb2xsZWN0aW9uPC90ZXh0PjxsaW5lIHN0eWxlPSJzdHJva2U6IzE4MTgxODtzdHJva2Utd2lkdGg6MC41OyIgeDE9IjcxOS4wMyIgeDI9IjEwNzQuMDMiIHkxPSI5NjciIHkyPSI5NjciLz48ZWxsaXBzZSBjeD0iNzI5LjAzIiBjeT0iOTc5Ljk5MjIiIGZpbGw9Im5vbmUiIHJ4PSIzIiByeT0iMyIgc3R5bGU9InN0cm9rZTojMDM4MDQ4O3N0cm9rZS13aWR0aDoxLjA7Ii8+PHRleHQgZmlsbD0iIzAwMDAwMCIgZm9udC1mYW1pbHk9InNhbnMtc2VyaWYiIGZvbnQtc2l6ZT0iMTQiIGxlbmd0aEFkanVzdD0ic3BhY2luZyIgdGV4dExlbmd0aD0iNDkiIHg9IjczOC4wMyIgeT0iOTg0LjIzNDQiPkd1aWQgSWQ8L3RleHQ+PGVsbGlwc2UgY3g9IjcyOS4wMyIgY3k9Ijk5NC45NzY2IiBmaWxsPSJub25lIiByeD0iMyIgcnk9IjMiIHN0eWxlPSJzdHJva2U6IzAzODA0ODtzdHJva2Utd2lkdGg6MS4wOyIvPjx0ZXh0IGZpbGw9IiMwMDAwMDAiIGZvbnQtZmFtaWx5PSJzYW5zLXNlcmlmIiBmb250LXNpemU9IjE0IiBsZW5ndGhBZGp1c3Q9InNwYWNpbmciIHRleHRMZW5ndGg9Ijc4IiB4PSI3MzguMDMiIHk9Ijk5OS4yMTg4Ij5zdHJpbmcgTmFtZTwvdGV4dD48ZWxsaXBzZSBjeD0iNzI5LjAzIiBjeT0iMTAwOS45NjA5IiBmaWxsPSJub25lIiByeD0iMyIgcnk9IjMiIHN0eWxlPSJzdHJva2U6IzAzODA0ODtzdHJva2Utd2lkdGg6MS4wOyIvPjx0ZXh0IGZpbGw9IiMwMDAwMDAiIGZvbnQtZmFtaWx5PSJzYW5zLXNlcmlmIiBmb250LXNpemU9IjE0IiBsZW5ndGhBZGp1c3Q9InNwYWNpbmciIHRleHRMZW5ndGg9IjEyNiIgeD0iNzM4LjAzIiB5PSIxMDE0LjIwMzEiPnN0cmluZyBEZXNjcmlwdGlvbjwvdGV4dD48ZWxsaXBzZSBjeD0iNzI5LjAzIiBjeT0iMTAyNC45NDUzIiBmaWxsPSJub25lIiByeD0iMyIgcnk9IjMiIHN0eWxlPSJzdHJva2U6IzAzODA0ODtzdHJva2Utd2lkdGg6MS4wOyIvPjx0ZXh0IGZpbGw9IiMwMDAwMDAiIGZvbnQtZmFtaWx5PSJzYW5zLXNlcmlmIiBmb250LXNpemU9IjE0IiBsZW5ndGhBZGp1c3Q9InNwYWNpbmciIHRleHRMZW5ndGg9IjExMyIgeD0iNzM4LjAzIiB5PSIxMDI5LjE4NzUiPnN0cmluZyBUaHVtYm5haWw8L3RleHQ+PGVsbGlwc2UgY3g9IjcyOS4wMyIgY3k9IjEwMzkuOTI5NyIgZmlsbD0ibm9uZSIgcng9IjMiIHJ5PSIzIiBzdHlsZT0ic3Ryb2tlOiMwMzgwNDg7c3Ryb2tlLXdpZHRoOjEuMDsiLz48dGV4dCBmaWxsPSIjMDAwMDAwIiBmb250LWZhbWlseT0ic2Fucy1zZXJpZiIgZm9udC1zaXplPSIxNCIgbGVuZ3RoQWRqdXN0PSJzcGFjaW5nIiB0ZXh0TGVuZ3RoPSIxNDciIHg9IjczOC4wMyIgeT0iMTA0NC4xNzE5Ij5WaXNpYmlsaXR5IFZpc2liaWxpdHk8L3RleHQ+PGVsbGlwc2UgY3g9IjcyOS4wMyIgY3k9IjEwNTQuOTE0MSIgZmlsbD0ibm9uZSIgcng9IjMiIHJ5PSIzIiBzdHlsZT0ic3Ryb2tlOiMwMzgwNDg7c3Ryb2tlLXdpZHRoOjEuMDsiLz48dGV4dCBmaWxsPSIjMDAwMDAwIiBmb250LWZhbWlseT0ic2Fucy1zZXJpZiIgZm9udC1zaXplPSIxNCIgbGVuZ3RoQWRqdXN0PSJzcGFjaW5nIiB0ZXh0TGVuZ3RoPSI3MCIgeD0iNzM4LjAzIiB5PSIxMDU5LjE1NjMiPnVpbnQgSW5kZXg8L3RleHQ+PGVsbGlwc2UgY3g9IjcyOS4wMyIgY3k9IjEwNjkuODk4NCIgZmlsbD0ibm9uZSIgcng9IjMiIHJ5PSIzIiBzdHlsZT0ic3Ryb2tlOiMwMzgwNDg7c3Ryb2tlLXdpZHRoOjEuMDsiLz48dGV4dCBmaWxsPSIjMDAwMDAwIiBmb250LWZhbWlseT0ic2Fucy1zZXJpZiIgZm9udC1zaXplPSIxNCIgbGVuZ3RoQWRqdXN0PSJzcGFjaW5nIiB0ZXh0TGVuZ3RoPSI4NSIgeD0iNzM4LjAzIiB5PSIxMDc0LjE0MDYiPkd1aWQgT3duZXJJZDwvdGV4dD48ZWxsaXBzZSBjeD0iNzI5LjAzIiBjeT0iMTA4NC44ODI4IiBmaWxsPSJub25lIiByeD0iMyIgcnk9IjMiIHN0eWxlPSJzdHJva2U6IzAzODA0ODtzdHJva2Utd2lkdGg6MS4wOyIvPjx0ZXh0IGZpbGw9IiMwMDAwMDAiIGZvbnQtZmFtaWx5PSJzYW5zLXNlcmlmIiBmb250LXNpemU9IjE0IiBsZW5ndGhBZGp1c3Q9InNwYWNpbmciIHRleHRMZW5ndGg9IjcxIiB4PSI3MzguMDMiIHk9IjEwODkuMTI1Ij5Vc2VyIE93bmVyPC90ZXh0PjxlbGxpcHNlIGN4PSI3MjkuMDMiIGN5PSIxMDk5Ljg2NzIiIGZpbGw9Im5vbmUiIHJ4PSIzIiByeT0iMyIgc3R5bGU9InN0cm9rZTojMDM4MDQ4O3N0cm9rZS13aWR0aDoxLjA7Ii8+PHRleHQgZmlsbD0iIzAwMDAwMCIgZm9udC1mYW1pbHk9InNhbnMtc2VyaWYiIGZvbnQtc2l6ZT0iMTQiIGxlbmd0aEFkanVzdD0ic3BhY2luZyIgdGV4dExlbmd0aD0iMzMxIiB4PSI3MzguMDMiIHk9IjExMDQuMTA5NCI+TGlzdCZsdDtBdHRyYWN0aW9uc0NvbGxlY3Rpb25JdGVtJmd0OyBDb2xsZWN0aW9uSXRlbXM8L3RleHQ+PGxpbmUgc3R5bGU9InN0cm9rZTojMTgxODE4O3N0cm9rZS13aWR0aDowLjU7IiB4MT0iNzE5LjAzIiB4Mj0iMTA3NC4wMyIgeTE9IjExMDkuODU5NCIgeTI9IjExMDkuODU5NCIvPjwvZz48IS0tY2xhc3MgQXR0cmFjdGlvbnNDb2xsZWN0aW9uSXRlbS0tPjxnIGlkPSJlbGVtX0F0dHJhY3Rpb25zQ29sbGVjdGlvbkl0ZW0iPjxyZWN0IGNvZGVMaW5lPSI3MyIgZmlsbD0iI0YxRjFGMSIgaGVpZ2h0PSIxMzcuOTA2MyIgaWQ9IkF0dHJhY3Rpb25zQ29sbGVjdGlvbkl0ZW0iIHJ4PSIyLjUiIHJ5PSIyLjUiIHN0eWxlPSJzdHJva2U6IzE4MTgxODtzdHJva2Utd2lkdGg6MC41OyIgd2lkdGg9IjI1MCIgeD0iNzcxLjUzIiB5PSI3MjIiLz48ZWxsaXBzZSBjeD0iODA1LjQzIiBjeT0iNzM4IiBmaWxsPSIjQUREMUIyIiByeD0iMTEiIHJ5PSIxMSIgc3R5bGU9InN0cm9rZTojMTgxODE4O3N0cm9rZS13aWR0aDoxLjA7Ii8+PHBhdGggZD0iTTgwMy4wNTUsNzQyLjI1IEw4MDMuMDU1LDc0NCBMODA3Ljk5MjUsNzQ0IEw4MDcuOTkyNSw3NDIuMjUgTDgwMy4wNTUsNzQyLjI1IFogTTgwMy43NDI1LDc0Mi45Mzc1IFE4MDMuNzQyNSw3NDIuOTM3NSA4MDMuNzQyNSw3MzMuNzUgTDgwMS45OTI1LDczMy43NSBRODAxLjk5MjUsNzMzLjc1IDgwMS45OTI1LDc0Mi45Mzc1IEw4MDMuNzQyNSw3NDIuOTM3NSBaIE04MDcuMzA1LDc0Mi45Mzc1IEw4MDkuMDU1LDc0Mi45Mzc1IFE4MDkuMDU1LDc0Mi45Mzc1IDgwOS4wNTUsNzQwLjEyNSBMODA3LjMwNSw3NDAuMTI1IFE4MDcuMzA1LDc0MC4xMjUgODA3LjMwNSw3NDIuOTM3NSBaIE04MDcuMzA1LDczMy43NSBRODA3LjMwNSw3MzMuNzUgODA3LjMwNSw3MzYuNTYyNSBMODA5LjA1NSw3MzYuNTYyNSBRODA5LjA1NSw3MzYuNTYyNSA4MDkuMDU1LDczMy43NSBMODA3LjMwNSw3MzMuNzUgWiBNODAzLjA1NSw3MzQuNDM3NSBMODA3Ljk5MjUsNzM0LjQzNzUgTDgwNy45OTI1LDczMi42ODc1IEw4MDMuMDU1LDczMi42ODc1IEw4MDMuMDU1LDczNC40Mzc1IFogIiBmaWxsPSIjMDAwMDAwIi8+PHRleHQgZmlsbD0iIzAwMDAwMCIgZm9udC1mYW1pbHk9InNhbnMtc2VyaWYiIGZvbnQtc2l6ZT0iMTQiIGxlbmd0aEFkanVzdD0ic3BhY2luZyIgdGV4dExlbmd0aD0iMTc2IiB4PSI4MjMuNjMiIHk9Ijc0My43NDIyIj5BdHRyYWN0aW9uc0NvbGxlY3Rpb25JdGVtPC90ZXh0PjxsaW5lIHN0eWxlPSJzdHJva2U6IzE4MTgxODtzdHJva2Utd2lkdGg6MC41OyIgeDE9Ijc3Mi41MyIgeDI9IjEwMjAuNTMiIHkxPSI3NTQiIHkyPSI3NTQiLz48ZWxsaXBzZSBjeD0iNzgyLjUzIiBjeT0iNzY2Ljk5MjIiIGZpbGw9Im5vbmUiIHJ4PSIzIiByeT0iMyIgc3R5bGU9InN0cm9rZTojMDM4MDQ4O3N0cm9rZS13aWR0aDoxLjA7Ii8+PHRleHQgZmlsbD0iIzAwMDAwMCIgZm9udC1mYW1pbHk9InNhbnMtc2VyaWYiIGZvbnQtc2l6ZT0iMTQiIGxlbmd0aEFkanVzdD0ic3BhY2luZyIgdGV4dExlbmd0aD0iMTE5IiB4PSI3OTEuNTMiIHk9Ijc3MS4yMzQ0Ij5HdWlkIENvbGxlY3Rpb25JZDwvdGV4dD48ZWxsaXBzZSBjeD0iNzgyLjUzIiBjeT0iNzgxLjk3NjYiIGZpbGw9Im5vbmUiIHJ4PSIzIiByeT0iMyIgc3R5bGU9InN0cm9rZTojMDM4MDQ4O3N0cm9rZS13aWR0aDoxLjA7Ii8+PHRleHQgZmlsbD0iIzAwMDAwMCIgZm9udC1mYW1pbHk9InNhbnMtc2VyaWYiIGZvbnQtc2l6ZT0iMTQiIGxlbmd0aEFkanVzdD0ic3BhY2luZyIgdGV4dExlbmd0aD0iMTE5IiB4PSI3OTEuNTMiIHk9Ijc4Ni4yMTg4Ij5HdWlkIEF0dHJhY3Rpb25JZDwvdGV4dD48ZWxsaXBzZSBjeD0iNzgyLjUzIiBjeT0iNzk2Ljk2MDkiIGZpbGw9Im5vbmUiIHJ4PSIzIiByeT0iMyIgc3R5bGU9InN0cm9rZTojMDM4MDQ4O3N0cm9rZS13aWR0aDoxLjA7Ii8+PHRleHQgZmlsbD0iIzAwMDAwMCIgZm9udC1mYW1pbHk9InNhbnMtc2VyaWYiIGZvbnQtc2l6ZT0iMTQiIGxlbmd0aEFkanVzdD0ic3BhY2luZyIgdGV4dExlbmd0aD0iNzciIHg9Ijc5MS41MyIgeT0iODAxLjIwMzEiPnN0cmluZyBOb3RlPC90ZXh0PjxlbGxpcHNlIGN4PSI3ODIuNTMiIGN5PSI4MTEuOTQ1MyIgZmlsbD0ibm9uZSIgcng9IjMiIHJ5PSIzIiBzdHlsZT0ic3Ryb2tlOiMwMzgwNDg7c3Ryb2tlLXdpZHRoOjEuMDsiLz48dGV4dCBmaWxsPSIjMDAwMDAwIiBmb250LWZhbWlseT0ic2Fucy1zZXJpZiIgZm9udC1zaXplPSIxNCIgbGVuZ3RoQWRqdXN0PSJzcGFjaW5nIiB0ZXh0TGVuZ3RoPSI3MCIgeD0iNzkxLjUzIiB5PSI4MTYuMTg3NSI+dWludCBJbmRleDwvdGV4dD48ZWxsaXBzZSBjeD0iNzgyLjUzIiBjeT0iODI2LjkyOTciIGZpbGw9Im5vbmUiIHJ4PSIzIiByeT0iMyIgc3R5bGU9InN0cm9rZTojMDM4MDQ4O3N0cm9rZS13aWR0aDoxLjA7Ii8+PHRleHQgZmlsbD0iIzAwMDAwMCIgZm9udC1mYW1pbHk9InNhbnMtc2VyaWYiIGZvbnQtc2l6ZT0iMTQiIGxlbmd0aEFkanVzdD0ic3BhY2luZyIgdGV4dExlbmd0aD0iMjI0IiB4PSI3OTEuNTMiIHk9IjgzMS4xNzE5Ij5BdHRyYWN0aW9uc0NvbGxlY3Rpb24gQ29sbGVjdGlvbjwvdGV4dD48ZWxsaXBzZSBjeD0iNzgyLjUzIiBjeT0iODQxLjkxNDEiIGZpbGw9Im5vbmUiIHJ4PSIzIiByeT0iMyIgc3R5bGU9InN0cm9rZTojMDM4MDQ4O3N0cm9rZS13aWR0aDoxLjA7Ii8+PHRleHQgZmlsbD0iIzAwMDAwMCIgZm9udC1mYW1pbHk9InNhbnMtc2VyaWYiIGZvbnQtc2l6ZT0iMTQiIGxlbmd0aEFkanVzdD0ic3BhY2luZyIgdGV4dExlbmd0aD0iMTQ3IiB4PSI3OTEuNTMiIHk9Ijg0Ni4xNTYzIj5BdHRyYWN0aW9uIEF0dHJhY3Rpb248L3RleHQ+PGxpbmUgc3R5bGU9InN0cm9rZTojMTgxODE4O3N0cm9rZS13aWR0aDowLjU7IiB4MT0iNzcyLjUzIiB4Mj0iMTAyMC41MyIgeTE9Ijg1MS45MDYzIiB5Mj0iODUxLjkwNjMiLz48L2c+PCEtLWNsYXNzIEZyaWVuZHNoaXAtLT48ZyBpZD0iZWxlbV9GcmllbmRzaGlwIj48cmVjdCBjb2RlTGluZT0iODIiIGZpbGw9IiNGMUYxRjEiIGhlaWdodD0iMTM3LjkwNjMiIGlkPSJGcmllbmRzaGlwIiByeD0iMi41IiByeT0iMi41IiBzdHlsZT0ic3Ryb2tlOiMxODE4MTg7c3Ryb2tlLXdpZHRoOjAuNTsiIHdpZHRoPSIxODciIHg9IjI3MC4wMyIgeT0iNDM0Ii8+PGVsbGlwc2UgY3g9IjMyNC4yOCIgY3k9IjQ1MCIgZmlsbD0iI0FERDFCMiIgcng9IjExIiByeT0iMTEiIHN0eWxlPSJzdHJva2U6IzE4MTgxODtzdHJva2Utd2lkdGg6MS4wOyIvPjxwYXRoIGQ9Ik0zMjEuOTA1LDQ1NC4yNSBMMzIxLjkwNSw0NTYgTDMyNi44NDI1LDQ1NiBMMzI2Ljg0MjUsNDU0LjI1IEwzMjEuOTA1LDQ1NC4yNSBaIE0zMjIuNTkyNSw0NTQuOTM3NSBRMzIyLjU5MjUsNDU0LjkzNzUgMzIyLjU5MjUsNDQ1Ljc1IEwzMjAuODQyNSw0NDUuNzUgUTMyMC44NDI1LDQ0NS43NSAzMjAuODQyNSw0NTQuOTM3NSBMMzIyLjU5MjUsNDU0LjkzNzUgWiBNMzI2LjE1NSw0NTQuOTM3NSBMMzI3LjkwNSw0NTQuOTM3NSBRMzI3LjkwNSw0NTQuOTM3NSAzMjcuOTA1LDQ1Mi4xMjUgTDMyNi4xNTUsNDUyLjEyNSBRMzI2LjE1NSw0NTIuMTI1IDMyNi4xNTUsNDU0LjkzNzUgWiBNMzI2LjE1NSw0NDUuNzUgUTMyNi4xNTUsNDQ1Ljc1IDMyNi4xNTUsNDQ4LjU2MjUgTDMyNy45MDUsNDQ4LjU2MjUgUTMyNy45MDUsNDQ4LjU2MjUgMzI3LjkwNSw0NDUuNzUgTDMyNi4xNTUsNDQ1Ljc1IFogTTMyMS45MDUsNDQ2LjQzNzUgTDMyNi44NDI1LDQ0Ni40Mzc1IEwzMjYuODQyNSw0NDQuNjg3NSBMMzIxLjkwNSw0NDQuNjg3NSBMMzIxLjkwNSw0NDYuNDM3NSBaICIgZmlsbD0iIzAwMDAwMCIvPjx0ZXh0IGZpbGw9IiMwMDAwMDAiIGZvbnQtZmFtaWx5PSJzYW5zLXNlcmlmIiBmb250LXNpemU9IjE0IiBsZW5ndGhBZGp1c3Q9InNwYWNpbmciIHRleHRMZW5ndGg9IjcwIiB4PSIzNDQuNzgiIHk9IjQ1NS43NDIyIj5GcmllbmRzaGlwPC90ZXh0PjxsaW5lIHN0eWxlPSJzdHJva2U6IzE4MTgxODtzdHJva2Utd2lkdGg6MC41OyIgeDE9IjI3MS4wMyIgeDI9IjQ1Ni4wMyIgeTE9IjQ2NiIgeTI9IjQ2NiIvPjxlbGxpcHNlIGN4PSIyODEuMDMiIGN5PSI0NzguOTkyMiIgZmlsbD0ibm9uZSIgcng9IjMiIHJ5PSIzIiBzdHlsZT0ic3Ryb2tlOiMwMzgwNDg7c3Ryb2tlLXdpZHRoOjEuMDsiLz48dGV4dCBmaWxsPSIjMDAwMDAwIiBmb250LWZhbWlseT0ic2Fucy1zZXJpZiIgZm9udC1zaXplPSIxNCIgbGVuZ3RoQWRqdXN0PSJzcGFjaW5nIiB0ZXh0TGVuZ3RoPSI5MSIgeD0iMjkwLjAzIiB5PSI0ODMuMjM0NCI+R3VpZCBTZW5kZXJJZDwvdGV4dD48ZWxsaXBzZSBjeD0iMjgxLjAzIiBjeT0iNDkzLjk3NjYiIGZpbGw9Im5vbmUiIHJ4PSIzIiByeT0iMyIgc3R5bGU9InN0cm9rZTojMDM4MDQ4O3N0cm9rZS13aWR0aDoxLjA7Ii8+PHRleHQgZmlsbD0iIzAwMDAwMCIgZm9udC1mYW1pbHk9InNhbnMtc2VyaWYiIGZvbnQtc2l6ZT0iMTQiIGxlbmd0aEFkanVzdD0ic3BhY2luZyIgdGV4dExlbmd0aD0iMTA1IiB4PSIyOTAuMDMiIHk9IjQ5OC4yMTg4Ij5HdWlkIFJlY2VpdmVySWQ8L3RleHQ+PGVsbGlwc2UgY3g9IjI4MS4wMyIgY3k9IjUwOC45NjA5IiBmaWxsPSJub25lIiByeD0iMyIgcnk9IjMiIHN0eWxlPSJzdHJva2U6IzAzODA0ODtzdHJva2Utd2lkdGg6MS4wOyIvPjx0ZXh0IGZpbGw9IiMwMDAwMDAiIGZvbnQtZmFtaWx5PSJzYW5zLXNlcmlmIiBmb250LXNpemU9IjE0IiBsZW5ndGhBZGp1c3Q9InNwYWNpbmciIHRleHRMZW5ndGg9IjE2MSIgeD0iMjkwLjAzIiB5PSI1MTMuMjAzMSI+RnJpZW5kc2hpcFN0YXR1cyBTdGF0dXM8L3RleHQ+PGVsbGlwc2UgY3g9IjI4MS4wMyIgY3k9IjUyMy45NDUzIiBmaWxsPSJub25lIiByeD0iMyIgcnk9IjMiIHN0eWxlPSJzdHJva2U6IzAzODA0ODtzdHJva2Utd2lkdGg6MS4wOyIvPjx0ZXh0IGZpbGw9IiMwMDAwMDAiIGZvbnQtZmFtaWx5PSJzYW5zLXNlcmlmIiBmb250LXNpemU9IjE0IiBsZW5ndGhBZGp1c3Q9InNwYWNpbmciIHRleHRMZW5ndGg9IjEzNCIgeD0iMjkwLjAzIiB5PSI1MjguMTg3NSI+RGF0ZVRpbWUgTW9kaWZpZWRBdDwvdGV4dD48ZWxsaXBzZSBjeD0iMjgxLjAzIiBjeT0iNTM4LjkyOTciIGZpbGw9Im5vbmUiIHJ4PSIzIiByeT0iMyIgc3R5bGU9InN0cm9rZTojMDM4MDQ4O3N0cm9rZS13aWR0aDoxLjA7Ii8+PHRleHQgZmlsbD0iIzAwMDAwMCIgZm9udC1mYW1pbHk9InNhbnMtc2VyaWYiIGZvbnQtc2l6ZT0iMTQiIGxlbmd0aEFkanVzdD0ic3BhY2luZyIgdGV4dExlbmd0aD0iNzciIHg9IjI5MC4wMyIgeT0iNTQzLjE3MTkiPlVzZXIgU2VuZGVyPC90ZXh0PjxlbGxpcHNlIGN4PSIyODEuMDMiIGN5PSI1NTMuOTE0MSIgZmlsbD0ibm9uZSIgcng9IjMiIHJ5PSIzIiBzdHlsZT0ic3Ryb2tlOiMwMzgwNDg7c3Ryb2tlLXdpZHRoOjEuMDsiLz48dGV4dCBmaWxsPSIjMDAwMDAwIiBmb250LWZhbWlseT0ic2Fucy1zZXJpZiIgZm9udC1zaXplPSIxNCIgbGVuZ3RoQWRqdXN0PSJzcGFjaW5nIiB0ZXh0TGVuZ3RoPSI5MSIgeD0iMjkwLjAzIiB5PSI1NTguMTU2MyI+VXNlciBSZWNlaXZlcjwvdGV4dD48bGluZSBzdHlsZT0ic3Ryb2tlOiMxODE4MTg7c3Ryb2tlLXdpZHRoOjAuNTsiIHgxPSIyNzEuMDMiIHgyPSI0NTYuMDMiIHkxPSI1NjMuOTA2MyIgeTI9IjU2My45MDYzIi8+PC9nPjwhLS1saW5rIFVzZXIgdG8gQXR0cmFjdGlvbi0tPjxnIGlkPSJsaW5rX1VzZXJfQXR0cmFjdGlvbiI+PHBhdGggY29kZUxpbmU9IjkxIiBkPSJNNjExLjksMjgxLjkxIEM2NTUuNzIsMzA0LjM3IDcwMi4xNSwzMzAuNjkgNzQyLjUzLDM1OSBDNzUxLjUsMzY1LjI4IDc2MC40NywzNzIuMDYgNzY5LjM0LDM3OS4xMiAiIGZpbGw9Im5vbmUiIGlkPSJVc2VyLUF0dHJhY3Rpb24iIHN0eWxlPSJzdHJva2U6IzE4MTgxODtzdHJva2Utd2lkdGg6MS4wOyIvPjx0ZXh0IGZpbGw9IiMwMDAwMDAiIGZvbnQtZmFtaWx5PSJzYW5zLXNlcmlmIiBmb250LXNpemU9IjEzIiBsZW5ndGhBZGp1c3Q9InNwYWNpbmciIHRleHRMZW5ndGg9IjEyMSIgeD0iNjkwLjUzIiB5PSIzMjcuMjg5MSI+Q3JlYXRlZEF0dHJhY3Rpb25zPC90ZXh0Pjx0ZXh0IGZpbGw9IiMwMDAwMDAiIGZvbnQtZmFtaWx5PSJzYW5zLXNlcmlmIiBmb250LXNpemU9IjEzIiBsZW5ndGhBZGp1c3Q9InNwYWNpbmciIHRleHRMZW5ndGg9IjciIHg9IjYxOS40MTYiIHk9IjI4NC4yOTk0Ij4xPC90ZXh0Pjx0ZXh0IGZpbGw9IiMwMDAwMDAiIGZvbnQtZmFtaWx5PSJzYW5zLXNlcmlmIiBmb250LXNpemU9IjEzIiBsZW5ndGhBZGp1c3Q9InNwYWNpbmciIHRleHRMZW5ndGg9IjI1IiB4PSI3MzYuNzAwNyIgeT0iMzcxLjMxMDciPjAuLio8L3RleHQ+PC9nPjwhLS1saW5rIFVzZXIgdG8gQXR0cmFjdGlvbkNvbW1lbnQtLT48ZyBpZD0ibGlua19Vc2VyX0F0dHJhY3Rpb25Db21tZW50Ij48cGF0aCBjb2RlTGluZT0iOTIiIGQ9Ik01MTkuNSwyODQuMjggQzUyNi4yNiwyOTMuODYgNTMyLjQ3LDMwMy44NiA1MzcuNTMsMzE0IEM1NzMuOTUsMzg2LjkxIDYxOC43NCw2MTguMjEgNjM4Ljg2LDcyOS4zICIgZmlsbD0ibm9uZSIgaWQ9IlVzZXItQXR0cmFjdGlvbkNvbW1lbnQiIHN0eWxlPSJzdHJva2U6IzE4MTgxODtzdHJva2Utd2lkdGg6MS4wOyIvPjx0ZXh0IGZpbGw9IiMwMDAwMDAiIGZvbnQtZmFtaWx5PSJzYW5zLXNlcmlmIiBmb250LXNpemU9IjEzIiBsZW5ndGhBZGp1c3Q9InNwYWNpbmciIHRleHRMZW5ndGg9IjExOSIgeD0iNjIzLjUzIiB5PSI1MDguNzg5MSI+QXR0cmFjdGlvbkNvbW1lbnRzPC90ZXh0Pjx0ZXh0IGZpbGw9IiMwMDAwMDAiIGZvbnQtZmFtaWx5PSJzYW5zLXNlcmlmIiBmb250LXNpemU9IjEzIiBsZW5ndGhBZGp1c3Q9InNwYWNpbmciIHRleHRMZW5ndGg9IjciIHg9IjUxOC42Mjc3IiB5PSIzMDQuMjkzNiI+MTwvdGV4dD48dGV4dCBmaWxsPSIjMDAwMDAwIiBmb250LWZhbWlseT0ic2Fucy1zZXJpZiIgZm9udC1zaXplPSIxMyIgbGVuZ3RoQWRqdXN0PSJzcGFjaW5nIiB0ZXh0TGVuZ3RoPSIyNSIgeD0iNjEwLjg5MTMiIHk9IjcxOS45MTQ1Ij4wLi4qPC90ZXh0PjwvZz48IS0tbGluayBVc2VyIHRvIEZyaWVuZHNoaXAtLT48ZyBpZD0ibGlua19Vc2VyX0ZyaWVuZHNoaXAiPjxwYXRoIGNvZGVMaW5lPSI5MyIgZD0iTTI4Ny40NSwyMjIuOSBDMjI4LjI0LDIzNi45MyAxNjYuOTIsMjYzLjY1IDEzMC41MywzMTQgQzgxLjc1LDM4MS41MSAxODUuMzQsNDM4LjE3IDI2OS42Niw0NzEuMTEgIiBmaWxsPSJub25lIiBpZD0iVXNlci1GcmllbmRzaGlwIiBzdHlsZT0ic3Ryb2tlOiMxODE4MTg7c3Ryb2tlLXdpZHRoOjEuMDsiLz48dGV4dCBmaWxsPSIjMDAwMDAwIiBmb250LWZhbWlseT0ic2Fucy1zZXJpZiIgZm9udC1zaXplPSIxMyIgbGVuZ3RoQWRqdXN0PSJzcGFjaW5nIiB0ZXh0TGVuZ3RoPSIxMDIiIHg9IjEzMS41MyIgeT0iMzI3LjI4OTEiPkZyaWVuZHNoaXBzU2VudDwvdGV4dD48dGV4dCBmaWxsPSIjMDAwMDAwIiBmb250LWZhbWlseT0ic2Fucy1zZXJpZiIgZm9udC1zaXplPSIxMyIgbGVuZ3RoQWRqdXN0PSJzcGFjaW5nIiB0ZXh0TGVuZ3RoPSI3IiB4PSIyNzIuNDI5NyIgeT0iMjIyLjY0NDkiPjE8L3RleHQ+PHRleHQgZmlsbD0iIzAwMDAwMCIgZm9udC1mYW1pbHk9InNhbnMtc2VyaWYiIGZvbnQtc2l6ZT0iMTMiIGxlbmd0aEFkanVzdD0ic3BhY2luZyIgdGV4dExlbmd0aD0iMjUiIHg9IjIzNy4xODA5IiB5PSI0NjcuNzM1MiI+MC4uKjwvdGV4dD48L2c+PCEtLWxpbmsgVXNlciB0byBGcmllbmRzaGlwLS0+PGcgaWQ9ImxpbmtfVXNlcl9GcmllbmRzaGlwIj48cGF0aCBjb2RlTGluZT0iOTQiIGQ9Ik0yOTcuNDgsMjg0LjA3IEMyODguNTcsMjkzLjA4IDI4MC43MywzMDMuMDMgMjc0LjUzLDMxNCBDMjUyLjY5LDM1Mi42NyAyNzIuMzgsMzk3LjU5IDI5OC43NCw0MzMuODEgIiBmaWxsPSJub25lIiBpZD0iVXNlci1GcmllbmRzaGlwLTEiIHN0eWxlPSJzdHJva2U6IzE4MTgxODtzdHJva2Utd2lkdGg6MS4wOyIvPjx0ZXh0IGZpbGw9IiMwMDAwMDAiIGZvbnQtZmFtaWx5PSJzYW5zLXNlcmlmIiBmb250LXNpemU9IjEzIiBsZW5ndGhBZGp1c3Q9InNwYWNpbmciIHRleHRMZW5ndGg9IjEzMCIgeD0iMjc1LjUzIiB5PSIzMjcuMjg5MSI+RnJpZW5kc2hpcHNSZWNlaXZlZDwvdGV4dD48dGV4dCBmaWxsPSIjMDAwMDAwIiBmb250LWZhbWlseT0ic2Fucy1zZXJpZiIgZm9udC1zaXplPSIxMyIgbGVuZ3RoQWRqdXN0PSJzcGFjaW5nIiB0ZXh0TGVuZ3RoPSI3IiB4PSIyNzYuMTQwMiIgeT0iMzA0LjA2NDMiPjE8L3RleHQ+PHRleHQgZmlsbD0iIzAwMDAwMCIgZm9udC1mYW1pbHk9InNhbnMtc2VyaWYiIGZvbnQtc2l6ZT0iMTMiIGxlbmd0aEFkanVzdD0ic3BhY2luZyIgdGV4dExlbmd0aD0iMjUiIHg9IjI2NC44MDMzIiB5PSI0MjQuNDA1NyI+MC4uKjwvdGV4dD48L2c+PCEtLWxpbmsgRnJpZW5kc2hpcCB0byBVc2VyLS0+PGcgaWQ9ImxpbmtfRnJpZW5kc2hpcF9Vc2VyIj48cGF0aCBjb2RlTGluZT0iMTA0IiBkPSJNMzgzLjU1LDQzMy43IEMzOTYuNjgsMzg4LjkgNDEzLjg1LDMzMC4yOCA0MjcuMzksMjg0LjA4ICIgZmlsbD0ibm9uZSIgaWQ9IkZyaWVuZHNoaXAtVXNlciIgc3R5bGU9InN0cm9rZTojMTgxODE4O3N0cm9rZS13aWR0aDoxLjA7Ii8+PHRleHQgZmlsbD0iIzAwMDAwMCIgZm9udC1mYW1pbHk9InNhbnMtc2VyaWYiIGZvbnQtc2l6ZT0iMTMiIGxlbmd0aEFkanVzdD0ic3BhY2luZyIgdGV4dExlbmd0aD0iNDIiIHg9IjQxOC41MyIgeT0iMzI3LjI4OTEiPlNlbmRlcjwvdGV4dD48dGV4dCBmaWxsPSIjMDAwMDAwIiBmb250LWZhbWlseT0ic2Fucy1zZXJpZiIgZm9udC1zaXplPSIxMyIgbGVuZ3RoQWRqdXN0PSJzcGFjaW5nIiB0ZXh0TGVuZ3RoPSI3IiB4PSIzNzguNDYwMSIgeT0iNDI0LjI4MyI+MTwvdGV4dD48dGV4dCBmaWxsPSIjMDAwMDAwIiBmb250LWZhbWlseT0ic2Fucy1zZXJpZiIgZm9udC1zaXplPSIxMyIgbGVuZ3RoQWRqdXN0PSJzcGFjaW5nIiB0ZXh0TGVuZ3RoPSI3IiB4PSI0MTguMDI2MyIgeT0iMzA0LjA3NTIiPjE8L3RleHQ+PC9nPjwhLS1saW5rIEZyaWVuZHNoaXAgdG8gVXNlci0tPjxnIGlkPSJsaW5rX0ZyaWVuZHNoaXBfVXNlciI+PHBhdGggY29kZUxpbmU9IjEwNSIgZD0iTTQxNy4zOCw0MzMuNzYgQzQzNy45Nyw0MDMuNDggNDU5LjAyLDM2Ni4yOSA0NjkuNTMsMzI5IEM0NzMuNTYsMzE0LjcxIDQ3My44OSwyOTkuMjMgNDcyLjI1LDI4NC4yNyAiIGZpbGw9Im5vbmUiIGlkPSJGcmllbmRzaGlwLVVzZXItMSIgc3R5bGU9InN0cm9rZTojMTgxODE4O3N0cm9rZS13aWR0aDoxLjA7Ii8+PHRleHQgZmlsbD0iIzAwMDAwMCIgZm9udC1mYW1pbHk9InNhbnMtc2VyaWYiIGZvbnQtc2l6ZT0iMTMiIGxlbmd0aEFkanVzdD0ic3BhY2luZyIgdGV4dExlbmd0aD0iNTUiIHg9IjQ3My41MyIgeT0iMzI3LjI4OTEiPlJlY2VpdmVyPC90ZXh0Pjx0ZXh0IGZpbGw9IiMwMDAwMDAiIGZvbnQtZmFtaWx5PSJzYW5zLXNlcmlmIiBmb250LXNpemU9IjEzIiBsZW5ndGhBZGp1c3Q9InNwYWNpbmciIHRleHRMZW5ndGg9IjciIHg9IjQxNi4yMDE3IiB5PSI0MjQuMzQ5OSI+MTwvdGV4dD48dGV4dCBmaWxsPSIjMDAwMDAwIiBmb250LWZhbWlseT0ic2Fucy1zZXJpZiIgZm9udC1zaXplPSIxMyIgbGVuZ3RoQWRqdXN0PSJzcGFjaW5nIiB0ZXh0TGVuZ3RoPSI3IiB4PSI0NjcuMDIxOCIgeT0iMzA0LjI4MjciPjE8L3RleHQ+PC9nPjwhLS1saW5rIFVzZXJSb2xlIHRvIFVzZXItLT48ZyBpZD0ibGlua19Vc2VyUm9sZV9Vc2VyIj48cGF0aCBjb2RlTGluZT0iOTUiIGQ9Ik00NDkuNTMsNzAuMTMgQzQ0OS41Myw4Ny4yNyA0NDkuNTMsMTA5LjQ1IDQ0OS41MywxMzAuOTMgIiBmaWxsPSJub25lIiBpZD0iVXNlclJvbGUtVXNlciIgc3R5bGU9InN0cm9rZTojMTgxODE4O3N0cm9rZS13aWR0aDoxLjA7Ii8+PHRleHQgZmlsbD0iIzAwMDAwMCIgZm9udC1mYW1pbHk9InNhbnMtc2VyaWYiIGZvbnQtc2l6ZT0iMTMiIGxlbmd0aEFkanVzdD0ic3BhY2luZyIgdGV4dExlbmd0aD0iNyIgeD0iNDQxLjgwODEiIHk9IjkwLjM3OTIiPjE8L3RleHQ+PHRleHQgZmlsbD0iIzAwMDAwMCIgZm9udC1mYW1pbHk9InNhbnMtc2VyaWYiIGZvbnQtc2l6ZT0iMTMiIGxlbmd0aEFkanVzdD0ic3BhY2luZyIgdGV4dExlbmd0aD0iMjUiIHg9IjQyMy4xNjI4IiB5PSIxMjEuMTg5MyI+MC4uKjwvdGV4dD48L2c+PCEtLWxpbmsgQ291bnRyeSB0byBBdHRyYWN0aW9uLS0+PGcgaWQ9ImxpbmtfQ291bnRyeV9BdHRyYWN0aW9uIj48cGF0aCBjb2RlTGluZT0iOTYiIGQ9Ik04NzkuMTMsMjQ2LjU3IEM4ODEuMTEsMjc1LjU3IDg4My45NiwzMTcuNDYgODg2Ljc5LDM1OC45NiAiIGZpbGw9Im5vbmUiIGlkPSJDb3VudHJ5LUF0dHJhY3Rpb24iIHN0eWxlPSJzdHJva2U6IzE4MTgxODtzdHJva2Utd2lkdGg6MS4wOyIvPjx0ZXh0IGZpbGw9IiMwMDAwMDAiIGZvbnQtZmFtaWx5PSJzYW5zLXNlcmlmIiBmb250LXNpemU9IjEzIiBsZW5ndGhBZGp1c3Q9InNwYWNpbmciIHRleHRMZW5ndGg9IjciIHg9Ijg3MS45NzUzIiB5PSIyNjYuNzcyNiI+MTwvdGV4dD48dGV4dCBmaWxsPSIjMDAwMDAwIiBmb250LWZhbWlseT0ic2Fucy1zZXJpZiIgZm9udC1zaXplPSIxMyIgbGVuZ3RoQWRqdXN0PSJzcGFjaW5nIiB0ZXh0TGVuZ3RoPSIyNSIgeD0iODYwLjUwNDMiIHk9IjM0OS41Nzk2Ij4wLi4qPC90ZXh0PjwvZz48IS0tbGluayBBdHRyYWN0aW9uVHlwZSB0byBBdHRyYWN0aW9uLS0+PGcgaWQ9ImxpbmtfQXR0cmFjdGlvblR5cGVfQXR0cmFjdGlvbiI+PHBhdGggY29kZUxpbmU9Ijk3IiBkPSJNMTA0Ni45MiwyNTQuMDQgQzEwMjkuNjgsMjgyLjQ2IDEwMDYuNDYsMzIwLjc1IDk4My40MiwzNTguNzMgIiBmaWxsPSJub25lIiBpZD0iQXR0cmFjdGlvblR5cGUtQXR0cmFjdGlvbiIgc3R5bGU9InN0cm9rZTojMTgxODE4O3N0cm9rZS13aWR0aDoxLjA7Ii8+PHRleHQgZmlsbD0iIzAwMDAwMCIgZm9udC1mYW1pbHk9InNhbnMtc2VyaWYiIGZvbnQtc2l6ZT0iMTMiIGxlbmd0aEFkanVzdD0ic3BhY2luZyIgdGV4dExlbmd0aD0iNyIgeD0iMTAzNS4zNTA3IiB5PSIyNzQuMTg5OSI+MTwvdGV4dD48dGV4dCBmaWxsPSIjMDAwMDAwIiBmb250LWZhbWlseT0ic2Fucy1zZXJpZiIgZm9udC1zaXplPSIxMyIgbGVuZ3RoQWRqdXN0PSJzcGFjaW5nIiB0ZXh0TGVuZ3RoPSIyNSIgeD0iOTYyLjcyMDciIHk9IjM0OS4zMzYzIj4wLi4qPC90ZXh0PjwvZz48IS0tbGluayBBdHRyYWN0aW9uIHRvIFJlYWN0aW9uLS0+PGcgaWQ9ImxpbmtfQXR0cmFjdGlvbl9SZWFjdGlvbiI+PHBhdGggY29kZUxpbmU9Ijk4IiBkPSJNNzY5LjMzLDYzMS4yMiBDNzYwLjYsNjM3LjA0IDc1MS42NCw2NDIuMzcgNzQyLjUzLDY0NyBDNjgwLjM4LDY3OC42IDY1Mi4wOSw2NDguMzIgNTg4LjUzLDY3NyBDNTU5LjQ5LDY5MC4xMSA1MzAuOTIsNzA5Ljk4IDUwNi44MSw3MjkuNDIgIiBmaWxsPSJub25lIiBpZD0iQXR0cmFjdGlvbi1SZWFjdGlvbiIgc3R5bGU9InN0cm9rZTojMTgxODE4O3N0cm9rZS13aWR0aDoxLjA7Ii8+PHRleHQgZmlsbD0iIzAwMDAwMCIgZm9udC1mYW1pbHk9InNhbnMtc2VyaWYiIGZvbnQtc2l6ZT0iMTMiIGxlbmd0aEFkanVzdD0ic3BhY2luZyIgdGV4dExlbmd0aD0iNjEiIHg9IjU4OS41MyIgeT0iNjkwLjI4OTEiPlJlYWN0aW9uczwvdGV4dD48dGV4dCBmaWxsPSIjMDAwMDAwIiBmb250LWZhbWlseT0ic2Fucy1zZXJpZiIgZm9udC1zaXplPSIxMyIgbGVuZ3RoQWRqdXN0PSJzcGFjaW5nIiB0ZXh0TGVuZ3RoPSI3IiB4PSI3NTQuMzY1NSIgeT0iNjUxLjc1NCI+MTwvdGV4dD48dGV4dCBmaWxsPSIjMDAwMDAwIiBmb250LWZhbWlseT0ic2Fucy1zZXJpZiIgZm9udC1zaXplPSIxMyIgbGVuZ3RoQWRqdXN0PSJzcGFjaW5nIiB0ZXh0TGVuZ3RoPSIyNSIgeD0iNDg4LjU3MjQiIHk9IjcyMC4wNDk5Ij4wLi4qPC90ZXh0PjwvZz48IS0tbGluayBSZWFjdGlvbiB0byBBdHRyYWN0aW9uLS0+PGcgaWQ9ImxpbmtfUmVhY3Rpb25fQXR0cmFjdGlvbiI+PHBhdGggY29kZUxpbmU9IjEwNyIgZD0iTTUyOC4wOCw3MzAuNjMgQzUzMy44OCw3MjcuNTIgNTM5LjczLDcyNC42MSA1NDUuNTMsNzIyIEM1OTEuNzUsNzAxLjIxIDYwOC4zMiw3MTAuNDEgNjU1LjUzLDY5MiBDNjk2LjA5LDY3Ni4xOCA3MDYuOTIsNjcyLjA0IDc0Mi41Myw2NDcgQzc1MS40OSw2NDAuNyA3NjAuNDYsNjMzLjkyIDc2OS4zMiw2MjYuODUgIiBmaWxsPSJub25lIiBpZD0iUmVhY3Rpb24tQXR0cmFjdGlvbiIgc3R5bGU9InN0cm9rZTojMTgxODE4O3N0cm9rZS13aWR0aDoxLjA7Ii8+PHRleHQgZmlsbD0iIzAwMDAwMCIgZm9udC1mYW1pbHk9InNhbnMtc2VyaWYiIGZvbnQtc2l6ZT0iMTMiIGxlbmd0aEFkanVzdD0ic3BhY2luZyIgdGV4dExlbmd0aD0iNyIgeD0iNTM2LjEwMDEiIHk9IjcyNC4wMDc2Ij4xPC90ZXh0Pjx0ZXh0IGZpbGw9IiMwMDAwMDAiIGZvbnQtZmFtaWx5PSJzYW5zLXNlcmlmIiBmb250LXNpemU9IjEzIiBsZW5ndGhBZGp1c3Q9InNwYWNpbmciIHRleHRMZW5ndGg9IjciIHg9Ijc1NC4zNTQ5IiB5PSI2MzMuMzI1NSI+MTwvdGV4dD48L2c+PCEtLWxpbmsgQXR0cmFjdGlvbiB0byBBdHRyYWN0aW9uQ29tbWVudC0tPjxnIGlkPSJsaW5rX0F0dHJhY3Rpb25fQXR0cmFjdGlvbkNvbW1lbnQiPjxwYXRoIGNvZGVMaW5lPSI5OSIgZD0iTTc3Mi42Nyw2NDcuNDIgQzc0Ny43Niw2NzYuMjcgNzIyLjg2LDcwNS4xIDcwMi4wNCw3MjkuMjEgIiBmaWxsPSJub25lIiBpZD0iQXR0cmFjdGlvbi1BdHRyYWN0aW9uQ29tbWVudCIgc3R5bGU9InN0cm9rZTojMTgxODE4O3N0cm9rZS13aWR0aDoxLjA7Ii8+PHRleHQgZmlsbD0iIzAwMDAwMCIgZm9udC1mYW1pbHk9InNhbnMtc2VyaWYiIGZvbnQtc2l6ZT0iMTMiIGxlbmd0aEFkanVzdD0ic3BhY2luZyIgdGV4dExlbmd0aD0iNTMiIHg9Ijc0NC41MyIgeT0iNjkwLjI4OTEiPkNvbW1lbnRzPC90ZXh0Pjx0ZXh0IGZpbGw9IiMwMDAwMDAiIGZvbnQtZmFtaWx5PSJzYW5zLXNlcmlmIiBmb250LXNpemU9IjEzIiBsZW5ndGhBZGp1c3Q9InNwYWNpbmciIHRleHRMZW5ndGg9IjciIHg9Ijc1OS41MDEiIHk9IjY2Ny4wNDc0Ij4xPC90ZXh0Pjx0ZXh0IGZpbGw9IiMwMDAwMDAiIGZvbnQtZmFtaWx5PSJzYW5zLXNlcmlmIiBmb250LXNpemU9IjEzIiBsZW5ndGhBZGp1c3Q9InNwYWNpbmciIHRleHRMZW5ndGg9IjI1IiB4PSI2ODIuMTY2MyIgeT0iNzE5LjgxMyI+MC4uKjwvdGV4dD48L2c+PCEtLWxpbmsgQXR0cmFjdGlvbnNDb2xsZWN0aW9uIHRvIEF0dHJhY3Rpb25zQ29sbGVjdGlvbkl0ZW0tLT48ZyBpZD0ibGlua19BdHRyYWN0aW9uc0NvbGxlY3Rpb25fQXR0cmFjdGlvbnNDb2xsZWN0aW9uSXRlbSI+PHBhdGggY29kZUxpbmU9IjEwMCIgZD0iTTg5Ni41Myw5MzQuNjcgQzg5Ni41Myw5MDkuODggODk2LjUzLDg4My40NSA4OTYuNTMsODYwLjE3ICIgZmlsbD0ibm9uZSIgaWQ9IkF0dHJhY3Rpb25zQ29sbGVjdGlvbi1BdHRyYWN0aW9uc0NvbGxlY3Rpb25JdGVtIiBzdHlsZT0ic3Ryb2tlOiMxODE4MTg7c3Ryb2tlLXdpZHRoOjEuMDsiLz48dGV4dCBmaWxsPSIjMDAwMDAwIiBmb250LWZhbWlseT0ic2Fucy1zZXJpZiIgZm9udC1zaXplPSIxMyIgbGVuZ3RoQWRqdXN0PSJzcGFjaW5nIiB0ZXh0TGVuZ3RoPSI5OCIgeD0iODk3LjUzIiB5PSI5MDMuMjg5MSI+Q29sbGVjdGlvbkl0ZW1zPC90ZXh0Pjx0ZXh0IGZpbGw9IiMwMDAwMDAiIGZvbnQtZmFtaWx5PSJzYW5zLXNlcmlmIiBmb250LXNpemU9IjEzIiBsZW5ndGhBZGp1c3Q9InNwYWNpbmciIHRleHRMZW5ndGg9IjciIHg9Ijg4OS4yMTgzIiB5PSI5MjUuMjQ4NSI+MTwvdGV4dD48dGV4dCBmaWxsPSIjMDAwMDAwIiBmb250LWZhbWlseT0ic2Fucy1zZXJpZiIgZm9udC1zaXplPSIxMyIgbGVuZ3RoQWRqdXN0PSJzcGFjaW5nIiB0ZXh0TGVuZ3RoPSIyNSIgeD0iODk3LjgxOTEiIHk9Ijg4MC4zMTQ1Ij4wLi4qPC90ZXh0PjwvZz48IS0tbGluayBBdHRyYWN0aW9uc0NvbGxlY3Rpb25JdGVtIHRvIEF0dHJhY3Rpb25zQ29sbGVjdGlvbi0tPjxnIGlkPSJsaW5rX0F0dHJhY3Rpb25zQ29sbGVjdGlvbkl0ZW1fQXR0cmFjdGlvbnNDb2xsZWN0aW9uIj48cGF0aCBjb2RlTGluZT0iMTAxIiBkPSJNODkxLjAzLDg2MC4yNCBDODkwLjQxLDg3MC4yMiA4ODkuODgsODgwLjM3IDg4OS41Myw4OTAgQzg4OS4wMiw5MDQuNDggODg5LjE1LDkxOS44MiA4ODkuNjYsOTM0Ljc3ICIgZmlsbD0ibm9uZSIgaWQ9IkF0dHJhY3Rpb25zQ29sbGVjdGlvbkl0ZW0tQXR0cmFjdGlvbnNDb2xsZWN0aW9uIiBzdHlsZT0ic3Ryb2tlOiMxODE4MTg7c3Ryb2tlLXdpZHRoOjEuMDsiLz48dGV4dCBmaWxsPSIjMDAwMDAwIiBmb250LWZhbWlseT0ic2Fucy1zZXJpZiIgZm9udC1zaXplPSIxMyIgbGVuZ3RoQWRqdXN0PSJzcGFjaW5nIiB0ZXh0TGVuZ3RoPSI3IiB4PSI4ODMuMTAxOSIgeT0iODgwLjM5MTciPjE8L3RleHQ+PHRleHQgZmlsbD0iIzAwMDAwMCIgZm9udC1mYW1pbHk9InNhbnMtc2VyaWYiIGZvbnQtc2l6ZT0iMTMiIGxlbmd0aEFkanVzdD0ic3BhY2luZyIgdGV4dExlbmd0aD0iNyIgeD0iODgxLjczNjQiIHk9IjkyNS4zNTc0Ij4xPC90ZXh0PjwvZz48IS0tbGluayBBdHRyYWN0aW9uc0NvbGxlY3Rpb25JdGVtIHRvIEF0dHJhY3Rpb24tLT48ZyBpZD0ibGlua19BdHRyYWN0aW9uc0NvbGxlY3Rpb25JdGVtX0F0dHJhY3Rpb24iPjxwYXRoIGNvZGVMaW5lPSIxMDIiIGQ9Ik05MDguMjQsNzIxLjczIEM5MDkuNDMsNjk5LjI1IDkxMC4wMyw2NzMuMzQgOTEwLjAzLDY0Ny40MiAiIGZpbGw9Im5vbmUiIGlkPSJBdHRyYWN0aW9uc0NvbGxlY3Rpb25JdGVtLUF0dHJhY3Rpb24iIHN0eWxlPSJzdHJva2U6IzE4MTgxODtzdHJva2Utd2lkdGg6MS4wOyIvPjx0ZXh0IGZpbGw9IiMwMDAwMDAiIGZvbnQtZmFtaWx5PSJzYW5zLXNlcmlmIiBmb250LXNpemU9IjEzIiBsZW5ndGhBZGp1c3Q9InNwYWNpbmciIHRleHRMZW5ndGg9IjciIHg9IjkwMi4xODkzIiB5PSI3MTIuMzE2NCI+MTwvdGV4dD48dGV4dCBmaWxsPSIjMDAwMDAwIiBmb250LWZhbWlseT0ic2Fucy1zZXJpZiIgZm9udC1zaXplPSIxMyIgbGVuZ3RoQWRqdXN0PSJzcGFjaW5nIiB0ZXh0TGVuZ3RoPSI3IiB4PSI5MDMuNTE0NCIgeT0iNjY3LjA0NzQiPjE8L3RleHQ+PC9nPjwhLS1saW5rIEF0dHJhY3Rpb24gdG8gQXR0cmFjdGlvbnNDb2xsZWN0aW9uSXRlbS0tPjxnIGlkPSJsaW5rX0F0dHJhY3Rpb25fQXR0cmFjdGlvbnNDb2xsZWN0aW9uSXRlbSI+PHBhdGggY29kZUxpbmU9IjEwMyIgZD0iTTg4My43OSw2NDcuNDIgQzg4My43OSw2NzMuMzQgODg0LjM2LDY5OS4yNSA4ODUuNDgsNzIxLjczICIgZmlsbD0ibm9uZSIgaWQ9IkF0dHJhY3Rpb24tQXR0cmFjdGlvbnNDb2xsZWN0aW9uSXRlbSIgc3R5bGU9InN0cm9rZTojMTgxODE4O3N0cm9rZS13aWR0aDoxLjA7Ii8+PHRleHQgZmlsbD0iIzAwMDAwMCIgZm9udC1mYW1pbHk9InNhbnMtc2VyaWYiIGZvbnQtc2l6ZT0iMTMiIGxlbmd0aEFkanVzdD0ic3BhY2luZyIgdGV4dExlbmd0aD0iNyIgeD0iODc2LjAwMzQiIHk9IjY2Ny4wNDc0Ij4xPC90ZXh0Pjx0ZXh0IGZpbGw9IiMwMDAwMDAiIGZvbnQtZmFtaWx5PSJzYW5zLXNlcmlmIiBmb250LXNpemU9IjEzIiBsZW5ndGhBZGp1c3Q9InNwYWNpbmciIHRleHRMZW5ndGg9IjI1IiB4PSI4NTcuNzU3IiB5PSI3MTIuMzE2NCI+MC4uKjwvdGV4dD48L2c+PCEtLWxpbmsgUmVhY3Rpb24gdG8gVXNlci0tPjxnIGlkPSJsaW5rX1JlYWN0aW9uX1VzZXIiPjxwYXRoIGNvZGVMaW5lPSIxMDYiIGQ9Ik0zNTQuOTQsNzM0Ljk2IEMyMjUuMDMsNjQ1LjQ5IDYsNDYzLjQ2IDExNS41MywzMTQgQzEzNy4zMywyODQuMjYgMjEzLjQsMjU5LjAzIDI4Ny40NSwyNDAuNyAiIGZpbGw9Im5vbmUiIGlkPSJSZWFjdGlvbi1Vc2VyIiBzdHlsZT0ic3Ryb2tlOiMxODE4MTg7c3Ryb2tlLXdpZHRoOjEuMDsiLz48dGV4dCBmaWxsPSIjMDAwMDAwIiBmb250LWZhbWlseT0ic2Fucy1zZXJpZiIgZm9udC1zaXplPSIxMyIgbGVuZ3RoQWRqdXN0PSJzcGFjaW5nIiB0ZXh0TGVuZ3RoPSI3IiB4PSIzMzkuOTE2NCIgeT0iNzI4LjcyMzMiPjE8L3RleHQ+PHRleHQgZmlsbD0iIzAwMDAwMCIgZm9udC1mYW1pbHk9InNhbnMtc2VyaWYiIGZvbnQtc2l6ZT0iMTMiIGxlbmd0aEFkanVzdD0ic3BhY2luZyIgdGV4dExlbmd0aD0iNyIgeD0iMjcyLjQyOTciIHk9IjI0MS4zMDcxIj4xPC90ZXh0PjwvZz48IS0tU1JDPVtoTExCWnpDbTRCeGRMcld2V2RSNU5YNmdMQjgyTFVBYlJlNXA2V3pxZjJJa1I2VVhHbG50NzNfWUh2c3FiVVlYaVNWcC02UmM2eGpmUW83OExtNlNfMmM4LWhyeUZvMGI2c2VzR2RCaVZ2QXRvQUJ6Ym1FSkxsODFYTm9wYmZCTlpLSk1ocVo1ZVBQMGxLWGE1SWxNVFQzQjVKYUpYVmhsRTQ5Rm5HNkZBLUJOdWFjZk5UUlFHV0Z1M0JKdU1uSkRiRVVNalAzY0VZYktSRVdiRm90THViRlRXSlZtdzdVZDhyb3FvdlNpaDVONnl0TFVoVTBISENGbkVEZjV5Wk1iNzhJOFBEelhCcjM2elhOQUtuM0U1aUg1clI4dXYtWDhEdl9uMUFJY1l3WjRTdjNfNWJwc1JkTTE5cDR4TkFGaXJtWUpQaUhSZXdBUFJiNDZ5R3BHYktOZ2MtMm1ISXFPVlNtS244Y1RkU1FISDFfX0tobzFZbm0zUkV3Qjh5Z2VoU0FaNmh5VFRrMGRDR1ktN2tJMXRIZlVMQW5qdVZ6blNOU09rZHJWT3NrYXRyM1c3Ymo1RkVBTnZjWDBiVk1jZl8weDJGbHZMLXlSZUJGSWFZbnowa1dSMlRyOGV0MGxCZ0d4d2FHZjFxVkIzNzByT013LXFiSm92Vk5CZ3RoYVJ4aThmUmVWUVM5SFVuYkVHY192OTZpdjI2OC0yT0stQ2VlX0NFNkd5SHU4ZEV5SGJuUUszb012a29GYmdfbHg1c0swXzNLZnB2LTdTamQ2U2ItUGRoeUtNTEVWY1I5OTdlc1IzRHB4T09wcWtuNFJ3YWJzRHo0U19ZQXZiUXhHSXRKU1BRQkdKTlRiRVEtVUF2cWxNOXZzU253SUtUMlVlbGNQU1FaZG5aYnpjRjV1Zy1hckFJVUVZYzEwMGZ6WnVyR2tYaVpiaWY4WlRyYkNacTZZYjN0bWFGdTFdLS0+PC9nPjwvc3ZnPg==;" vertex="1" parent="1">
            <mxGeometry x="170" y="3170" width="1192" height="1124" as="geometry" />
          </mxCell>
        </UserObject>
      </root>
    </mxGraphModel>
  </diagram>
</mxfile>
